M48
; DRILL file KiCad 10.0.2 date 2026-05-14T17:44:36
; FORMAT={-:-/ absolute / metric / decimal}
; #@! TF.CreationDate,2026-05-14T17:44:36+08:00
; #@! TF.GenerationSoftware,Kicad,Pcbnew,10.0.2
; #@! TF.FileFunction,Plated,1,2,PTH
FMAT,2
METRIC
; #@! TA.AperFunction,Plated,PTH,ViaDrill
T1C0.300
; #@! TA.AperFunction,Plated,PTH,ComponentDrill
T2C0.800
; #@! TA.AperFunction,Plated,PTH,ComponentDrill
T3C0.810
; #@! TA.AperFunction,Plated,PTH,ComponentDrill
T4C0.950
; #@! TA.AperFunction,Plated,PTH,ComponentDrill
T5C1.000
; #@! TA.AperFunction,Plated,PTH,ComponentDrill
T6C2.300
%
G90
G05
T1
X119.5Y-98.5
X119.5Y-101.0
X121.0Y-84.0
X123.5Y-78.0
X123.5Y-79.5
X126.5Y-93.0
X127.066Y-93.566
X127.5Y-101.5
X127.938Y-84.5
X128.025Y-93.525
X130.5Y-95.5
X131.5Y-67.0
X131.5Y-68.5
X131.5Y-97.5
X131.5Y-100.5
X131.85Y-72.0
X132.0Y-98.5
X132.0Y-99.5
X132.5Y-70.5
X132.5Y-93.0
X133.463Y-82.0
X134.5Y-84.5
X135.0Y-77.0
X135.0Y-79.5
X138.0Y-95.0
X138.0Y-98.5
X139.0Y-65.5
X139.5Y-73.5
X139.5Y-76.0
X140.0Y-81.0
X141.5Y-63.5
X142.0Y-73.5
X142.0Y-76.0
X143.5Y-97.0
X144.0Y-81.5
X144.5Y-85.5
X145.5Y-79.0
X145.5Y-81.5
X149.0Y-83.5
X149.0Y-88.5
X151.0Y-73.0
X151.5Y-88.5
X168.0Y-72.0
X168.5Y-74.0
X169.5Y-77.0
X182.0Y-62.5
T2
X112.5Y-65.05
X112.5Y-69.95
X112.5Y-96.55
X112.5Y-101.45
X152.5Y-82.205
X152.5Y-84.705
X163.5Y-82.205
X163.5Y-84.705
T3
X152.5Y-93.38
X152.5Y-101.0
X152.65Y-65.69
X152.65Y-73.31
X165.2Y-93.38
X165.2Y-101.0
X165.35Y-65.69
X165.35Y-73.31
T4
X114.787Y-82.25
X114.787Y-84.75
X116.787Y-82.25
X116.787Y-84.75
T5
X169.025Y-82.25
X169.025Y-84.79
T6
X111.927Y-77.5
X111.927Y-89.5
M30
