%TF.GenerationSoftware,KiCad,Pcbnew,10.0.2*%
%TF.CreationDate,2026-05-14T17:44:33+08:00*%
%TF.ProjectId,usb_audio_cat,7573625f-6175-4646-996f-5f6361742e6b,rev?*%
%TF.SameCoordinates,Original*%
%TF.FileFunction,Copper,L2,Bot*%
%TF.FilePolarity,Positive*%
%FSLAX46Y46*%
G04 Gerber Fmt 4.6, Leading zero omitted, Abs format (unit mm)*
G04 Created by KiCad (PCBNEW 10.0.2) date 2026-05-14 17:44:33*
%MOMM*%
%LPD*%
G01*
G04 APERTURE LIST*
G04 Aperture macros list*
%AMRoundRect*
0 Rectangle with rounded corners*
0 $1 Rounding radius*
0 $2 $3 $4 $5 $6 $7 $8 $9 X,Y pos of 4 corners*
0 Add a 4 corners polygon primitive as box body*
4,1,4,$2,$3,$4,$5,$6,$7,$8,$9,$2,$3,0*
0 Add four circle primitives for the rounded corners*
1,1,$1+$1,$2,$3*
1,1,$1+$1,$4,$5*
1,1,$1+$1,$6,$7*
1,1,$1+$1,$8,$9*
0 Add four rect primitives between the rounded corners*
20,1,$1+$1,$2,$3,$4,$5,0*
20,1,$1+$1,$4,$5,$6,$7,0*
20,1,$1+$1,$6,$7,$8,$9,0*
20,1,$1+$1,$8,$9,$2,$3,0*%
G04 Aperture macros list end*
%TA.AperFunction,ComponentPad*%
%ADD10R,1.600000X1.600000*%
%TD*%
%TA.AperFunction,ComponentPad*%
%ADD11C,1.600000*%
%TD*%
%TA.AperFunction,ComponentPad*%
%ADD12C,4.000000*%
%TD*%
%TA.AperFunction,ComponentPad*%
%ADD13C,1.500000*%
%TD*%
%TA.AperFunction,ComponentPad*%
%ADD14RoundRect,0.250000X0.550000X-0.550000X0.550000X0.550000X-0.550000X0.550000X-0.550000X-0.550000X0*%
%TD*%
%TA.AperFunction,ComponentPad*%
%ADD15R,1.520000X1.520000*%
%TD*%
%TA.AperFunction,ComponentPad*%
%ADD16C,1.520000*%
%TD*%
%TA.AperFunction,ComponentPad*%
%ADD17R,1.700000X1.700000*%
%TD*%
%TA.AperFunction,ComponentPad*%
%ADD18C,1.700000*%
%TD*%
%TA.AperFunction,ViaPad*%
%ADD19C,0.600000*%
%TD*%
%TA.AperFunction,Conductor*%
%ADD20C,0.300000*%
%TD*%
G04 APERTURE END LIST*
D10*
%TO.P,J1,1,VBUS_1*%
%TO.N,+5V*%
X116787500Y-84750000D03*
D11*
%TO.P,J1,2,D-_2*%
%TO.N,Net-(J1-D-)*%
X116787500Y-82250000D03*
%TO.P,J1,3,D+_3*%
%TO.N,Net-(J1-D+)*%
X114787500Y-82250000D03*
%TO.P,J1,4,GND_4*%
%TO.N,GND*%
X114787500Y-84750000D03*
D12*
%TO.P,J1,5,Shield_5*%
X111927500Y-89500000D03*
X111927500Y-77500000D03*
%TD*%
D13*
%TO.P,Y1,1,1_1*%
%TO.N,Net-(C3-Pad2)*%
X112500000Y-101450000D03*
%TO.P,Y1,2,2_2*%
%TO.N,Net-(C1-Pad2)*%
X112500000Y-96550000D03*
%TD*%
D14*
%TO.P,C16,1*%
%TO.N,Net-(C16-Pad1)*%
X163500000Y-84705113D03*
D11*
%TO.P,C16,2*%
%TO.N,Net-(C16-Pad2)*%
X163500000Y-82205113D03*
%TD*%
D15*
%TO.P,T1,1,AA_1*%
%TO.N,GND*%
X152500000Y-101000000D03*
D16*
%TO.P,T1,3,AB_3*%
%TO.N,Net-(T1-AB)*%
X152500000Y-93380000D03*
%TO.P,T1,4,SA_4*%
%TO.N,Net-(T1-SA)*%
X165200000Y-93380000D03*
%TO.P,T1,6,SB_6*%
%TO.N,Net-(T1-SB)*%
X165200000Y-101000000D03*
%TD*%
D13*
%TO.P,Y2,1,1_1*%
%TO.N,Net-(U3-XI)*%
X112500000Y-69950000D03*
%TO.P,Y2,2,2_2*%
%TO.N,Net-(U3-XO)*%
X112500000Y-65050000D03*
%TD*%
D17*
%TO.P,J6,1,Pin_1_1*%
%TO.N,Net-(J6-Pin_1)*%
X169025000Y-82250000D03*
D18*
%TO.P,J6,2,Pin_2_2*%
%TO.N,GNDREF*%
X169025000Y-84790000D03*
%TD*%
D15*
%TO.P,T2,1,AA_1*%
%TO.N,GND*%
X152650000Y-73310000D03*
D16*
%TO.P,T2,3,AB_3*%
%TO.N,Net-(T2-AB)*%
X152650000Y-65690000D03*
%TO.P,T2,4,SA_4*%
%TO.N,Net-(T2-SA)*%
X165350000Y-65690000D03*
%TO.P,T2,6,SB_6*%
%TO.N,Net-(T2-SB)*%
X165350000Y-73310000D03*
%TD*%
D14*
%TO.P,C15,1*%
%TO.N,Net-(C15-Pad1)*%
X152500000Y-84705113D03*
D11*
%TO.P,C15,2*%
%TO.N,Net-(C15-Pad2)*%
X152500000Y-82205113D03*
%TD*%
D19*
%TO.N,GND*%
X123500000Y-79500000D03*
X130500000Y-95500000D03*
X119500000Y-98500000D03*
X132500000Y-93000000D03*
X119500000Y-101000000D03*
X131500000Y-97500000D03*
X121000000Y-84000000D03*
X140000000Y-81000000D03*
%TO.N,+5V*%
X127937500Y-84500000D03*
X123500000Y-78000000D03*
%TO.N,Net-(C8-Pad1)*%
X138000000Y-95000000D03*
X128025307Y-93525307D03*
%TO.N,Net-(C14-Pad1)*%
X143500000Y-97000000D03*
X131500000Y-100500000D03*
%TO.N,Net-(C15-Pad1)*%
X132000000Y-98500000D03*
%TO.N,Net-(C16-Pad1)*%
X132000000Y-99500000D03*
%TO.N,GNDREF*%
X151500000Y-88500000D03*
X149000000Y-88500000D03*
X145500000Y-81500000D03*
X149000000Y-83500000D03*
X182000000Y-62500000D03*
%TO.N,Net-(C19-Pad1)*%
X151000000Y-73000000D03*
X145500000Y-79000000D03*
%TO.N,Net-(J6-Pin_1)*%
X144500000Y-85500000D03*
X144000000Y-81500000D03*
%TO.N,Net-(T2-SB)*%
X169500000Y-77000000D03*
%TO.N,TXD*%
X142000000Y-73500000D03*
X168000000Y-72000000D03*
%TO.N,RXD*%
X168500000Y-74000000D03*
X142000000Y-76000000D03*
%TO.N,Net-(Q1-B)*%
X141500000Y-63500000D03*
X139000000Y-65500000D03*
%TO.N,Net-(R4-Pad1)*%
X134500000Y-84500000D03*
X126500000Y-93000000D03*
%TO.N,Net-(R5-Pad1)*%
X127065687Y-93565687D03*
X133462500Y-82000000D03*
%TO.N,Net-(R6-Pad2)*%
X127500000Y-101500000D03*
X138000000Y-98500000D03*
%TO.N,Net-(U4-UD+)*%
X135000000Y-77000000D03*
X132500000Y-70500000D03*
%TO.N,Net-(U4-UD-)*%
X135000000Y-79500000D03*
X131850000Y-72000000D03*
%TO.N,Net-(U4-TXD)*%
X131500000Y-67000000D03*
X139500000Y-73500000D03*
%TO.N,Net-(U4-RXD)*%
X139500000Y-76000000D03*
X131500000Y-68500000D03*
%TD*%
%TO.N,GND*%
D20*
X131500000Y-94000000D02*
X131500000Y-95500000D01*
X140500000Y-80500000D02*
X140000000Y-81000000D01*
X132500000Y-93000000D02*
X131500000Y-94000000D01*
X121000000Y-84000000D02*
X120600000Y-83600000D01*
X114787500Y-83618630D02*
X114787500Y-84750000D01*
X131500000Y-95500000D02*
X132000000Y-96000000D01*
X130500000Y-95500000D02*
X131500000Y-95500000D01*
X132000000Y-97000000D02*
X131500000Y-97500000D01*
X114806130Y-83600000D02*
X114787500Y-83618630D01*
X152650000Y-73310000D02*
X152650000Y-78350000D01*
X132000000Y-96000000D02*
X132000000Y-97000000D01*
X152650000Y-78350000D02*
X150500000Y-80500000D01*
X120600000Y-83600000D02*
X114806130Y-83600000D01*
X119500000Y-98500000D02*
X119500000Y-101000000D01*
X150500000Y-80500000D02*
X140500000Y-80500000D01*
X123500000Y-81500000D02*
X121000000Y-84000000D01*
X123500000Y-79500000D02*
X123500000Y-81500000D01*
%TO.N,+5V*%
X123500000Y-78000000D02*
X127937500Y-82437500D01*
X127937500Y-82437500D02*
X127937500Y-84500000D01*
%TO.N,Net-(C8-Pad1)*%
X135000000Y-92000000D02*
X129550614Y-92000000D01*
X129550614Y-92000000D02*
X128025307Y-93525307D01*
X138000000Y-95000000D02*
X135000000Y-92000000D01*
%TO.N,Net-(C14-Pad1)*%
X136000000Y-100500000D02*
X137000000Y-99500000D01*
X131500000Y-100500000D02*
X136000000Y-100500000D01*
X137000000Y-99500000D02*
X137000000Y-98580761D01*
X138580761Y-97000000D02*
X143500000Y-97000000D01*
X137000000Y-98580761D02*
X138580761Y-97000000D01*
%TO.N,Net-(C15-Pad1)*%
X138316549Y-95850000D02*
X147650000Y-95850000D01*
X152500000Y-91000000D02*
X152500000Y-84705113D01*
X147650000Y-95850000D02*
X152500000Y-91000000D01*
X132000000Y-98500000D02*
X132500000Y-99000000D01*
X135166549Y-99000000D02*
X138316549Y-95850000D01*
X132500000Y-99000000D02*
X135166549Y-99000000D01*
%TO.N,Net-(C16-Pad1)*%
X138523655Y-96350000D02*
X158350000Y-96350000D01*
X163500000Y-91200000D02*
X163500000Y-84705113D01*
X135373655Y-99500000D02*
X138523655Y-96350000D01*
X158350000Y-96350000D02*
X163500000Y-91200000D01*
X132000000Y-99500000D02*
X135373655Y-99500000D01*
%TO.N,GNDREF*%
X149000000Y-88500000D02*
X151500000Y-88500000D01*
X180500000Y-64000000D02*
X180500000Y-82500000D01*
X171315000Y-82500000D02*
X169025000Y-84790000D01*
X149000000Y-83500000D02*
X147000000Y-81500000D01*
X180500000Y-82500000D02*
X171315000Y-82500000D01*
X182000000Y-62500000D02*
X180500000Y-64000000D01*
X147000000Y-81500000D02*
X145500000Y-81500000D01*
%TO.N,Net-(C19-Pad1)*%
X150500000Y-73500000D02*
X151000000Y-73000000D01*
X145500000Y-79000000D02*
X150500000Y-79000000D01*
X150500000Y-79000000D02*
X150500000Y-73500000D01*
%TO.N,Net-(J6-Pin_1)*%
X169025000Y-82250000D02*
X167775000Y-81000000D01*
X162500000Y-81000000D02*
X160000000Y-83500000D01*
X160000000Y-83500000D02*
X151749657Y-83500000D01*
X144500000Y-82000000D02*
X144000000Y-81500000D01*
X144500000Y-85500000D02*
X144500000Y-82000000D01*
X149749657Y-85500000D02*
X144500000Y-85500000D01*
X151749657Y-83500000D02*
X149749657Y-85500000D01*
X167775000Y-81000000D02*
X162500000Y-81000000D01*
%TO.N,Net-(T2-SB)*%
X169500000Y-77000000D02*
X169040000Y-77000000D01*
X169040000Y-77000000D02*
X165350000Y-73310000D01*
%TO.N,TXD*%
X144000000Y-71500000D02*
X167500000Y-71500000D01*
X167500000Y-71500000D02*
X168000000Y-72000000D01*
X142000000Y-73500000D02*
X144000000Y-71500000D01*
%TO.N,RXD*%
X166700000Y-72200000D02*
X168500000Y-74000000D01*
X145800000Y-72200000D02*
X166700000Y-72200000D01*
X142000000Y-76000000D02*
X145800000Y-72200000D01*
%TO.N,Net-(Q1-B)*%
X139500000Y-65500000D02*
X141500000Y-63500000D01*
X139000000Y-65500000D02*
X139500000Y-65500000D01*
%TO.N,Net-(R4-Pad1)*%
X132500000Y-84500000D02*
X134500000Y-84500000D01*
X126500000Y-93000000D02*
X132500000Y-87000000D01*
X132500000Y-87000000D02*
X132500000Y-84500000D01*
%TO.N,Net-(R5-Pad1)*%
X135150000Y-85481374D02*
X135150000Y-82150000D01*
X127065687Y-93565687D02*
X135150000Y-85481374D01*
X135000000Y-82000000D02*
X133462500Y-82000000D01*
X135150000Y-82150000D02*
X135000000Y-82000000D01*
%TO.N,Net-(R6-Pad2)*%
X138000000Y-103500000D02*
X138000000Y-98500000D01*
X127500000Y-101500000D02*
X129500000Y-103500000D01*
X129500000Y-103500000D02*
X138000000Y-103500000D01*
%TO.N,Net-(U4-UD+)*%
X132500000Y-74500000D02*
X132500000Y-70500000D01*
X135000000Y-77000000D02*
X132500000Y-74500000D01*
%TO.N,Net-(U4-UD-)*%
X135000000Y-79500000D02*
X131850000Y-76350000D01*
X131850000Y-76350000D02*
X131850000Y-72000000D01*
%TO.N,Net-(U4-TXD)*%
X138000000Y-73500000D02*
X139500000Y-73500000D01*
X131500000Y-67000000D02*
X138000000Y-73500000D01*
%TO.N,Net-(U4-RXD)*%
X139000000Y-76000000D02*
X139500000Y-76000000D01*
X131500000Y-68500000D02*
X139000000Y-76000000D01*
%TD*%
%TA.AperFunction,Conductor*%
%TO.N,GND*%
G36*
X115830834Y-83148365D02*
G01*
X115875181Y-83176866D01*
X115943726Y-83245411D01*
X115942278Y-83246858D01*
X115975759Y-83298183D01*
X115976234Y-83368051D01*
X115938861Y-83427085D01*
X115885543Y-83454602D01*
X115880022Y-83455906D01*
X115745171Y-83506202D01*
X115745164Y-83506206D01*
X115629957Y-83592451D01*
X115629950Y-83592457D01*
X115623265Y-83601388D01*
X115596659Y-83621302D01*
X115570634Y-83641970D01*
X115568803Y-83642153D01*
X115567329Y-83643257D01*
X115534165Y-83645627D01*
X115501113Y-83648942D01*
X115498802Y-83648154D01*
X115497638Y-83648238D01*
X115467706Y-83637558D01*
X115415122Y-83610765D01*
X115364326Y-83562790D01*
X115347531Y-83494969D01*
X115370068Y-83428834D01*
X115415121Y-83389795D01*
X115469110Y-83362287D01*
X115530892Y-83317400D01*
X115634713Y-83241971D01*
X115634715Y-83241968D01*
X115634719Y-83241966D01*
X115699819Y-83176866D01*
X115761142Y-83143381D01*
X115830834Y-83148365D01*
G37*
%TD.AperFunction*%
%TA.AperFunction,Conductor*%
G36*
X188942539Y-60520185D02*
G01*
X188988294Y-60572989D01*
X188999500Y-60624500D01*
X188999500Y-106875500D01*
X188979815Y-106942539D01*
X188927011Y-106988294D01*
X188875500Y-106999500D01*
X110124500Y-106999500D01*
X110057461Y-106979815D01*
X110011706Y-106927011D01*
X110000500Y-106875500D01*
X110000500Y-101351577D01*
X111249500Y-101351577D01*
X111249500Y-101548422D01*
X111280290Y-101742826D01*
X111341117Y-101930029D01*
X111414170Y-102073402D01*
X111430476Y-102105405D01*
X111546172Y-102264646D01*
X111685354Y-102403828D01*
X111844595Y-102519524D01*
X111927455Y-102561743D01*
X112019970Y-102608882D01*
X112019972Y-102608882D01*
X112019975Y-102608884D01*
X112120317Y-102641487D01*
X112207173Y-102669709D01*
X112401578Y-102700500D01*
X112401583Y-102700500D01*
X112598422Y-102700500D01*
X112792826Y-102669709D01*
X112980025Y-102608884D01*
X113155405Y-102519524D01*
X113314646Y-102403828D01*
X113453828Y-102264646D01*
X113569524Y-102105405D01*
X113658884Y-101930025D01*
X113719709Y-101742826D01*
X113721188Y-101733489D01*
X113750500Y-101548422D01*
X113750500Y-101351577D01*
X113719709Y-101157173D01*
X113671983Y-101010289D01*
X113658884Y-100969975D01*
X113658882Y-100969972D01*
X113658882Y-100969970D01*
X113569523Y-100794594D01*
X113566623Y-100790602D01*
X113453828Y-100635354D01*
X113314646Y-100496172D01*
X113155405Y-100380476D01*
X113134468Y-100369808D01*
X112980029Y-100291117D01*
X112792826Y-100230290D01*
X112598422Y-100199500D01*
X112598417Y-100199500D01*
X112401583Y-100199500D01*
X112401578Y-100199500D01*
X112207173Y-100230290D01*
X112019970Y-100291117D01*
X111844594Y-100380476D01*
X111785774Y-100423212D01*
X111685354Y-100496172D01*
X111685352Y-100496174D01*
X111685351Y-100496174D01*
X111546174Y-100635351D01*
X111546174Y-100635352D01*
X111546172Y-100635354D01*
X111516700Y-100675919D01*
X111430476Y-100794594D01*
X111341117Y-100969970D01*
X111280290Y-101157173D01*
X111249500Y-101351577D01*
X110000500Y-101351577D01*
X110000500Y-96451577D01*
X111249500Y-96451577D01*
X111249500Y-96648422D01*
X111280290Y-96842826D01*
X111341117Y-97030029D01*
X111430476Y-97205405D01*
X111546172Y-97364646D01*
X111685354Y-97503828D01*
X111844595Y-97619524D01*
X111905389Y-97650500D01*
X112019970Y-97708882D01*
X112019972Y-97708882D01*
X112019975Y-97708884D01*
X112120317Y-97741487D01*
X112207173Y-97769709D01*
X112401578Y-97800500D01*
X112401583Y-97800500D01*
X112598422Y-97800500D01*
X112792826Y-97769709D01*
X112980025Y-97708884D01*
X113155405Y-97619524D01*
X113314646Y-97503828D01*
X113453828Y-97364646D01*
X113569524Y-97205405D01*
X113658884Y-97030025D01*
X113719709Y-96842826D01*
X113750500Y-96648422D01*
X113750500Y-96451577D01*
X113719709Y-96257173D01*
X113658882Y-96069970D01*
X113569523Y-95894594D01*
X113453828Y-95735354D01*
X113314646Y-95596172D01*
X113155405Y-95480476D01*
X112980029Y-95391117D01*
X112792826Y-95330290D01*
X112598422Y-95299500D01*
X112598417Y-95299500D01*
X112401583Y-95299500D01*
X112401578Y-95299500D01*
X112207173Y-95330290D01*
X112019970Y-95391117D01*
X111844594Y-95480476D01*
X111753741Y-95546485D01*
X111685354Y-95596172D01*
X111685352Y-95596174D01*
X111685351Y-95596174D01*
X111546174Y-95735351D01*
X111546174Y-95735352D01*
X111546172Y-95735354D01*
X111515899Y-95777021D01*
X111430476Y-95894594D01*
X111341117Y-96069970D01*
X111280290Y-96257173D01*
X111249500Y-96451577D01*
X110000500Y-96451577D01*
X110000500Y-92921153D01*
X125699500Y-92921153D01*
X125699500Y-93078846D01*
X125730261Y-93233489D01*
X125730264Y-93233501D01*
X125790602Y-93379172D01*
X125790609Y-93379185D01*
X125878210Y-93510288D01*
X125878213Y-93510292D01*
X125989707Y-93621786D01*
X125989711Y-93621789D01*
X126120814Y-93709390D01*
X126120827Y-93709397D01*
X126239871Y-93758706D01*
X126294275Y-93802546D01*
X126306980Y-93825814D01*
X126356291Y-93944863D01*
X126356296Y-93944872D01*
X126443897Y-94075975D01*
X126443900Y-94075979D01*
X126555394Y-94187473D01*
X126555398Y-94187476D01*
X126686501Y-94275077D01*
X126686514Y-94275084D01*
X126808970Y-94325806D01*
X126832190Y-94335424D01*
X126986840Y-94366186D01*
X126986843Y-94366187D01*
X126986845Y-94366187D01*
X127144531Y-94366187D01*
X127144532Y-94366186D01*
X127299184Y-94335424D01*
X127444866Y-94275081D01*
X127506822Y-94233682D01*
X127573498Y-94212805D01*
X127640878Y-94231289D01*
X127644599Y-94233681D01*
X127646114Y-94234693D01*
X127646125Y-94234699D01*
X127646128Y-94234701D01*
X127646130Y-94234701D01*
X127646134Y-94234704D01*
X127781103Y-94290609D01*
X127791810Y-94295044D01*
X127946460Y-94325806D01*
X127946463Y-94325807D01*
X127946465Y-94325807D01*
X128104151Y-94325807D01*
X128104152Y-94325806D01*
X128258804Y-94295044D01*
X128404486Y-94234701D01*
X128535596Y-94147096D01*
X128647096Y-94035596D01*
X128734701Y-93904486D01*
X128795044Y-93758804D01*
X128808386Y-93691723D01*
X128840770Y-93629816D01*
X128842265Y-93628293D01*
X129783741Y-92686819D01*
X129845064Y-92653334D01*
X129871422Y-92650500D01*
X134679192Y-92650500D01*
X134746231Y-92670185D01*
X134766873Y-92686819D01*
X137182984Y-95102930D01*
X137216469Y-95164253D01*
X137216920Y-95166420D01*
X137230261Y-95233489D01*
X137230264Y-95233501D01*
X137290602Y-95379172D01*
X137290609Y-95379185D01*
X137378210Y-95510288D01*
X137378213Y-95510292D01*
X137469580Y-95601659D01*
X137503065Y-95662982D01*
X137498081Y-95732674D01*
X137469580Y-95777021D01*
X134933422Y-98313181D01*
X134872099Y-98346666D01*
X134845741Y-98349500D01*
X132886878Y-98349500D01*
X132819839Y-98329815D01*
X132774084Y-98277011D01*
X132772215Y-98272069D01*
X132772068Y-98272131D01*
X132709397Y-98120827D01*
X132709390Y-98120814D01*
X132621789Y-97989711D01*
X132621786Y-97989707D01*
X132510292Y-97878213D01*
X132510288Y-97878210D01*
X132379185Y-97790609D01*
X132379172Y-97790602D01*
X132233501Y-97730264D01*
X132233489Y-97730261D01*
X132078845Y-97699500D01*
X132078842Y-97699500D01*
X131921158Y-97699500D01*
X131921155Y-97699500D01*
X131766510Y-97730261D01*
X131766498Y-97730264D01*
X131620827Y-97790602D01*
X131620814Y-97790609D01*
X131489711Y-97878210D01*
X131489707Y-97878213D01*
X131378213Y-97989707D01*
X131378210Y-97989711D01*
X131290609Y-98120814D01*
X131290602Y-98120827D01*
X131230264Y-98266498D01*
X131230261Y-98266510D01*
X131199500Y-98421153D01*
X131199500Y-98578846D01*
X131230261Y-98733489D01*
X131230264Y-98733501D01*
X131290602Y-98879172D01*
X131290609Y-98879185D01*
X131325304Y-98931109D01*
X131346182Y-98997786D01*
X131327698Y-99065167D01*
X131325304Y-99068891D01*
X131290609Y-99120814D01*
X131290602Y-99120827D01*
X131230264Y-99266498D01*
X131230261Y-99266510D01*
X131199500Y-99421153D01*
X131199500Y-99578846D01*
X131212573Y-99644568D01*
X131206346Y-99714159D01*
X131163483Y-99769337D01*
X131138411Y-99783319D01*
X131120826Y-99790603D01*
X131120814Y-99790609D01*
X130989711Y-99878210D01*
X130989707Y-99878213D01*
X130878213Y-99989707D01*
X130878210Y-99989711D01*
X130790609Y-100120814D01*
X130790602Y-100120827D01*
X130730264Y-100266498D01*
X130730261Y-100266510D01*
X130699500Y-100421153D01*
X130699500Y-100578846D01*
X130730261Y-100733489D01*
X130730264Y-100733501D01*
X130790602Y-100879172D01*
X130790609Y-100879185D01*
X130878210Y-101010288D01*
X130878213Y-101010292D01*
X130989707Y-101121786D01*
X130989711Y-101121789D01*
X131120814Y-101209390D01*
X131120827Y-101209397D01*
X131258695Y-101266503D01*
X131266503Y-101269737D01*
X131421153Y-101300499D01*
X131421156Y-101300500D01*
X131421158Y-101300500D01*
X131578844Y-101300500D01*
X131578845Y-101300499D01*
X131733497Y-101269737D01*
X131879179Y-101209394D01*
X131936044Y-101171397D01*
X132002721Y-101150520D01*
X132004935Y-101150500D01*
X136064071Y-101150500D01*
X136148615Y-101133682D01*
X136189744Y-101125501D01*
X136308127Y-101076465D01*
X136414669Y-101005277D01*
X137137819Y-100282127D01*
X137199142Y-100248642D01*
X137268833Y-100253626D01*
X137324767Y-100295498D01*
X137349184Y-100360962D01*
X137349500Y-100369808D01*
X137349500Y-102725500D01*
X137329815Y-102792539D01*
X137277011Y-102838294D01*
X137225500Y-102849500D01*
X129820807Y-102849500D01*
X129753768Y-102829815D01*
X129733126Y-102813181D01*
X128317015Y-101397070D01*
X128283530Y-101335747D01*
X128283095Y-101333660D01*
X128269737Y-101266503D01*
X128224452Y-101157174D01*
X128209397Y-101120827D01*
X128209390Y-101120814D01*
X128121789Y-100989711D01*
X128121786Y-100989707D01*
X128010292Y-100878213D01*
X128010288Y-100878210D01*
X127879185Y-100790609D01*
X127879172Y-100790602D01*
X127733501Y-100730264D01*
X127733489Y-100730261D01*
X127578845Y-100699500D01*
X127578842Y-100699500D01*
X127421158Y-100699500D01*
X127421155Y-100699500D01*
X127266510Y-100730261D01*
X127266498Y-100730264D01*
X127120827Y-100790602D01*
X127120814Y-100790609D01*
X126989711Y-100878210D01*
X126989707Y-100878213D01*
X126878213Y-100989707D01*
X126878210Y-100989711D01*
X126790609Y-101120814D01*
X126790602Y-101120827D01*
X126730264Y-101266498D01*
X126730261Y-101266510D01*
X126699500Y-101421153D01*
X126699500Y-101578846D01*
X126730261Y-101733489D01*
X126730264Y-101733501D01*
X126790602Y-101879172D01*
X126790609Y-101879185D01*
X126878210Y-102010288D01*
X126878213Y-102010292D01*
X126989707Y-102121786D01*
X126989711Y-102121789D01*
X127120814Y-102209390D01*
X127120827Y-102209397D01*
X127169272Y-102229463D01*
X127266503Y-102269737D01*
X127333581Y-102283079D01*
X127395490Y-102315463D01*
X127397070Y-102317015D01*
X128994724Y-103914669D01*
X129085328Y-104005273D01*
X129085332Y-104005277D01*
X129191866Y-104076461D01*
X129191872Y-104076464D01*
X129191873Y-104076465D01*
X129310256Y-104125501D01*
X129310260Y-104125501D01*
X129310261Y-104125502D01*
X129435928Y-104150500D01*
X129435931Y-104150500D01*
X138064071Y-104150500D01*
X138148615Y-104133682D01*
X138189744Y-104125501D01*
X138308127Y-104076465D01*
X138414669Y-104005276D01*
X138505276Y-103914669D01*
X138576465Y-103808127D01*
X138625501Y-103689744D01*
X138650500Y-103564069D01*
X138650500Y-100192155D01*
X151240000Y-100192155D01*
X151240000Y-100750000D01*
X152177243Y-100750000D01*
X152175919Y-100751324D01*
X152122600Y-100843676D01*
X152095000Y-100946681D01*
X152095000Y-101053319D01*
X152122600Y-101156324D01*
X152175919Y-101248676D01*
X152177243Y-101250000D01*
X151240000Y-101250000D01*
X151240000Y-101807844D01*
X151246401Y-101867372D01*
X151246403Y-101867379D01*
X151296645Y-102002086D01*
X151296649Y-102002093D01*
X151382809Y-102117187D01*
X151382812Y-102117190D01*
X151497906Y-102203350D01*
X151497913Y-102203354D01*
X151632620Y-102253596D01*
X151632627Y-102253598D01*
X151692155Y-102259999D01*
X151692172Y-102260000D01*
X152250000Y-102260000D01*
X152250000Y-101322757D01*
X152251324Y-101324081D01*
X152343676Y-101377400D01*
X152446681Y-101405000D01*
X152553319Y-101405000D01*
X152656324Y-101377400D01*
X152748676Y-101324081D01*
X152750000Y-101322757D01*
X152750000Y-102260000D01*
X153307828Y-102260000D01*
X153307844Y-102259999D01*
X153367372Y-102253598D01*
X153367379Y-102253596D01*
X153502086Y-102203354D01*
X153502093Y-102203350D01*
X153617187Y-102117190D01*
X153617190Y-102117187D01*
X153703350Y-102002093D01*
X153703354Y-102002086D01*
X153753596Y-101867379D01*
X153753598Y-101867372D01*
X153759999Y-101807844D01*
X153760000Y-101807827D01*
X153760000Y-101250000D01*
X152822757Y-101250000D01*
X152824081Y-101248676D01*
X152877400Y-101156324D01*
X152905000Y-101053319D01*
X152905000Y-100946681D01*
X152892704Y-100900790D01*
X163939500Y-100900790D01*
X163939500Y-101099209D01*
X163963383Y-101250000D01*
X163970537Y-101295168D01*
X164011893Y-101422447D01*
X164031850Y-101483868D01*
X164080242Y-101578842D01*
X164121923Y-101660646D01*
X164238544Y-101821161D01*
X164378839Y-101961456D01*
X164539354Y-102078077D01*
X164625139Y-102121786D01*
X164716131Y-102168149D01*
X164716133Y-102168149D01*
X164716136Y-102168151D01*
X164904832Y-102229463D01*
X165002814Y-102244981D01*
X165100791Y-102260500D01*
X165100796Y-102260500D01*
X165299209Y-102260500D01*
X165388278Y-102246392D01*
X165495168Y-102229463D01*
X165683864Y-102168151D01*
X165860646Y-102078077D01*
X166021161Y-101961456D01*
X166161456Y-101821161D01*
X166278077Y-101660646D01*
X166368151Y-101483864D01*
X166429463Y-101295168D01*
X166451319Y-101157173D01*
X166460500Y-101099209D01*
X166460500Y-100913389D01*
X177399500Y-100913389D01*
X177399500Y-101086610D01*
X177425168Y-101248676D01*
X177426598Y-101257701D01*
X177480127Y-101422445D01*
X177558768Y-101576788D01*
X177660586Y-101716928D01*
X177783072Y-101839414D01*
X177923212Y-101941232D01*
X178077555Y-102019873D01*
X178242299Y-102073402D01*
X178413389Y-102100500D01*
X178413390Y-102100500D01*
X178586610Y-102100500D01*
X178586611Y-102100500D01*
X178757701Y-102073402D01*
X178922445Y-102019873D01*
X179076788Y-101941232D01*
X179216928Y-101839414D01*
X179339414Y-101716928D01*
X179441232Y-101576788D01*
X179519873Y-101422445D01*
X179573402Y-101257701D01*
X179600500Y-101086611D01*
X179600500Y-100913389D01*
X184399500Y-100913389D01*
X184399500Y-101086610D01*
X184425168Y-101248676D01*
X184426598Y-101257701D01*
X184480127Y-101422445D01*
X184558768Y-101576788D01*
X184660586Y-101716928D01*
X184783072Y-101839414D01*
X184923212Y-101941232D01*
X185077555Y-102019873D01*
X185242299Y-102073402D01*
X185413389Y-102100500D01*
X185413390Y-102100500D01*
X185586610Y-102100500D01*
X185586611Y-102100500D01*
X185757701Y-102073402D01*
X185922445Y-102019873D01*
X186076788Y-101941232D01*
X186216928Y-101839414D01*
X186339414Y-101716928D01*
X186441232Y-101576788D01*
X186519873Y-101422445D01*
X186573402Y-101257701D01*
X186600500Y-101086611D01*
X186600500Y-100913389D01*
X186573402Y-100742299D01*
X186519873Y-100577555D01*
X186441232Y-100423212D01*
X186339414Y-100283072D01*
X186216928Y-100160586D01*
X186076788Y-100058768D01*
X185922445Y-99980127D01*
X185757701Y-99926598D01*
X185757699Y-99926597D01*
X185757698Y-99926597D01*
X185626271Y-99905781D01*
X185586611Y-99899500D01*
X185413389Y-99899500D01*
X185373728Y-99905781D01*
X185242302Y-99926597D01*
X185077552Y-99980128D01*
X184923211Y-100058768D01*
X184843256Y-100116859D01*
X184783072Y-100160586D01*
X184783070Y-100160588D01*
X184783069Y-100160588D01*
X184660588Y-100283069D01*
X184660588Y-100283070D01*
X184660586Y-100283072D01*
X184654742Y-100291116D01*
X184558768Y-100423211D01*
X184480128Y-100577552D01*
X184426597Y-100742302D01*
X184399500Y-100913389D01*
X179600500Y-100913389D01*
X179573402Y-100742299D01*
X179519873Y-100577555D01*
X179441232Y-100423212D01*
X179339414Y-100283072D01*
X179216928Y-100160586D01*
X179076788Y-100058768D01*
X178922445Y-99980127D01*
X178757701Y-99926598D01*
X178757699Y-99926597D01*
X178757698Y-99926597D01*
X178626271Y-99905781D01*
X178586611Y-99899500D01*
X178413389Y-99899500D01*
X178373728Y-99905781D01*
X178242302Y-99926597D01*
X178077552Y-99980128D01*
X177923211Y-100058768D01*
X177843256Y-100116859D01*
X177783072Y-100160586D01*
X177783070Y-100160588D01*
X177783069Y-100160588D01*
X177660588Y-100283069D01*
X177660588Y-100283070D01*
X177660586Y-100283072D01*
X177654742Y-100291116D01*
X177558768Y-100423211D01*
X177480128Y-100577552D01*
X177426597Y-100742302D01*
X177399500Y-100913389D01*
X166460500Y-100913389D01*
X166460500Y-100900790D01*
X166436826Y-100751324D01*
X166429463Y-100704832D01*
X166368151Y-100516136D01*
X166368149Y-100516133D01*
X166368149Y-100516131D01*
X166299029Y-100380476D01*
X166278077Y-100339354D01*
X166161456Y-100178839D01*
X166021161Y-100038544D01*
X165860646Y-99921923D01*
X165783880Y-99882809D01*
X165683868Y-99831850D01*
X165638596Y-99817140D01*
X165495168Y-99770537D01*
X165495162Y-99770536D01*
X165299209Y-99739500D01*
X165299204Y-99739500D01*
X165100796Y-99739500D01*
X165100791Y-99739500D01*
X164904837Y-99770536D01*
X164904835Y-99770536D01*
X164904832Y-99770537D01*
X164843058Y-99790609D01*
X164716131Y-99831850D01*
X164539352Y-99921924D01*
X164539349Y-99921926D01*
X164532919Y-99926598D01*
X164378839Y-100038544D01*
X164378837Y-100038546D01*
X164378836Y-100038546D01*
X164238546Y-100178836D01*
X164238546Y-100178837D01*
X164238544Y-100178839D01*
X164228857Y-100192172D01*
X164121926Y-100339349D01*
X164121924Y-100339352D01*
X164031850Y-100516131D01*
X164011893Y-100577552D01*
X163970537Y-100704832D01*
X163970536Y-100704835D01*
X163970536Y-100704837D01*
X163939500Y-100900790D01*
X152892704Y-100900790D01*
X152877400Y-100843676D01*
X152824081Y-100751324D01*
X152822757Y-100750000D01*
X153760000Y-100750000D01*
X153760000Y-100192172D01*
X153759999Y-100192155D01*
X153753598Y-100132627D01*
X153753596Y-100132620D01*
X153703354Y-99997913D01*
X153703350Y-99997906D01*
X153617190Y-99882812D01*
X153617187Y-99882809D01*
X153502093Y-99796649D01*
X153502086Y-99796645D01*
X153367379Y-99746403D01*
X153367372Y-99746401D01*
X153307844Y-99740000D01*
X152750000Y-99740000D01*
X152750000Y-100677243D01*
X152748676Y-100675919D01*
X152656324Y-100622600D01*
X152553319Y-100595000D01*
X152446681Y-100595000D01*
X152343676Y-100622600D01*
X152251324Y-100675919D01*
X152250000Y-100677243D01*
X152250000Y-99740000D01*
X151692155Y-99740000D01*
X151632627Y-99746401D01*
X151632620Y-99746403D01*
X151497913Y-99796645D01*
X151497906Y-99796649D01*
X151382812Y-99882809D01*
X151382809Y-99882812D01*
X151296649Y-99997906D01*
X151296645Y-99997913D01*
X151246403Y-100132620D01*
X151246401Y-100132627D01*
X151240000Y-100192155D01*
X138650500Y-100192155D01*
X138650500Y-99004935D01*
X138670185Y-98937896D01*
X138671366Y-98936090D01*
X138709394Y-98879179D01*
X138769737Y-98733497D01*
X138800500Y-98578842D01*
X138800500Y-98421158D01*
X138800500Y-98421155D01*
X138800499Y-98421153D01*
X138786246Y-98349500D01*
X138769737Y-98266503D01*
X138769735Y-98266498D01*
X138709397Y-98120827D01*
X138709390Y-98120814D01*
X138633948Y-98007908D01*
X138624461Y-97977612D01*
X138613366Y-97947862D01*
X138614095Y-97944507D01*
X138613070Y-97941231D01*
X138621468Y-97910616D01*
X138628218Y-97879589D01*
X138630999Y-97875874D01*
X138631554Y-97873851D01*
X138649360Y-97851345D01*
X138813889Y-97686816D01*
X138875212Y-97653334D01*
X138901569Y-97650500D01*
X142995065Y-97650500D01*
X143062104Y-97670185D01*
X143063909Y-97671366D01*
X143120821Y-97709394D01*
X143120823Y-97709395D01*
X143120827Y-97709397D01*
X143266435Y-97769709D01*
X143266503Y-97769737D01*
X143421153Y-97800499D01*
X143421156Y-97800500D01*
X143421158Y-97800500D01*
X143578844Y-97800500D01*
X143578845Y-97800499D01*
X143733497Y-97769737D01*
X143879179Y-97709394D01*
X144010289Y-97621789D01*
X144121789Y-97510289D01*
X144209394Y-97379179D01*
X144269737Y-97233497D01*
X144275325Y-97205405D01*
X144296231Y-97100308D01*
X144328616Y-97038397D01*
X144389332Y-97003823D01*
X144417848Y-97000500D01*
X158414071Y-97000500D01*
X158498615Y-96983682D01*
X158539744Y-96975501D01*
X158658127Y-96926465D01*
X158764669Y-96855277D01*
X160544446Y-95075500D01*
X162339157Y-93280790D01*
X163939500Y-93280790D01*
X163939500Y-93479209D01*
X163962082Y-93621786D01*
X163970537Y-93675168D01*
X164001265Y-93769737D01*
X164031850Y-93863868D01*
X164073121Y-93944866D01*
X164121923Y-94040646D01*
X164238544Y-94201161D01*
X164378839Y-94341456D01*
X164539354Y-94458077D01*
X164652800Y-94515880D01*
X164716131Y-94548149D01*
X164716133Y-94548149D01*
X164716136Y-94548151D01*
X164904832Y-94609463D01*
X165002814Y-94624981D01*
X165100791Y-94640500D01*
X165100796Y-94640500D01*
X165299209Y-94640500D01*
X165388278Y-94626392D01*
X165495168Y-94609463D01*
X165683864Y-94548151D01*
X165860646Y-94458077D01*
X166021161Y-94341456D01*
X166161456Y-94201161D01*
X166278077Y-94040646D01*
X166368151Y-93863864D01*
X166429463Y-93675168D01*
X166446392Y-93568278D01*
X166460500Y-93479209D01*
X166460500Y-93280790D01*
X166441615Y-93161561D01*
X166429463Y-93084832D01*
X166368151Y-92896136D01*
X166368149Y-92896133D01*
X166368149Y-92896131D01*
X166335880Y-92832800D01*
X166278077Y-92719354D01*
X166161456Y-92558839D01*
X166021161Y-92418544D01*
X165860646Y-92301923D01*
X165803922Y-92273021D01*
X165683868Y-92211850D01*
X165638596Y-92197140D01*
X165495168Y-92150537D01*
X165495162Y-92150536D01*
X165299209Y-92119500D01*
X165299204Y-92119500D01*
X165100796Y-92119500D01*
X165100791Y-92119500D01*
X164904837Y-92150536D01*
X164904835Y-92150536D01*
X164904832Y-92150537D01*
X164810484Y-92181193D01*
X164716131Y-92211850D01*
X164539352Y-92301924D01*
X164539349Y-92301926D01*
X164453255Y-92364477D01*
X164378839Y-92418544D01*
X164378837Y-92418546D01*
X164378836Y-92418546D01*
X164238546Y-92558836D01*
X164238546Y-92558837D01*
X164238544Y-92558839D01*
X164193507Y-92620827D01*
X164121926Y-92719349D01*
X164121924Y-92719352D01*
X164031850Y-92896131D01*
X164001193Y-92990484D01*
X163970537Y-93084832D01*
X163970536Y-93084835D01*
X163970536Y-93084837D01*
X163939500Y-93280790D01*
X162339157Y-93280790D01*
X162431704Y-93188243D01*
X164005272Y-91614674D01*
X164005273Y-91614673D01*
X164005277Y-91614669D01*
X164076465Y-91508127D01*
X164125501Y-91389744D01*
X164137422Y-91329815D01*
X164150500Y-91264071D01*
X164150500Y-89413389D01*
X177399500Y-89413389D01*
X177399500Y-89586610D01*
X177408019Y-89640401D01*
X177426598Y-89757701D01*
X177480127Y-89922445D01*
X177558768Y-90076788D01*
X177660586Y-90216928D01*
X177783072Y-90339414D01*
X177923212Y-90441232D01*
X178077555Y-90519873D01*
X178242299Y-90573402D01*
X178413389Y-90600500D01*
X178413390Y-90600500D01*
X178586610Y-90600500D01*
X178586611Y-90600500D01*
X178757701Y-90573402D01*
X178922445Y-90519873D01*
X179076788Y-90441232D01*
X179216928Y-90339414D01*
X179339414Y-90216928D01*
X179441232Y-90076788D01*
X179519873Y-89922445D01*
X179573402Y-89757701D01*
X179600500Y-89586611D01*
X179600500Y-89413389D01*
X184399500Y-89413389D01*
X184399500Y-89586610D01*
X184408019Y-89640401D01*
X184426598Y-89757701D01*
X184480127Y-89922445D01*
X184558768Y-90076788D01*
X184660586Y-90216928D01*
X184783072Y-90339414D01*
X184923212Y-90441232D01*
X185077555Y-90519873D01*
X185242299Y-90573402D01*
X185413389Y-90600500D01*
X185413390Y-90600500D01*
X185586610Y-90600500D01*
X185586611Y-90600500D01*
X185757701Y-90573402D01*
X185922445Y-90519873D01*
X186076788Y-90441232D01*
X186216928Y-90339414D01*
X186339414Y-90216928D01*
X186441232Y-90076788D01*
X186519873Y-89922445D01*
X186573402Y-89757701D01*
X186600500Y-89586611D01*
X186600500Y-89413389D01*
X186573402Y-89242299D01*
X186519873Y-89077555D01*
X186441232Y-88923212D01*
X186339414Y-88783072D01*
X186216928Y-88660586D01*
X186076788Y-88558768D01*
X185922445Y-88480127D01*
X185757701Y-88426598D01*
X185757699Y-88426597D01*
X185757698Y-88426597D01*
X185626271Y-88405781D01*
X185586611Y-88399500D01*
X185413389Y-88399500D01*
X185373728Y-88405781D01*
X185242302Y-88426597D01*
X185077552Y-88480128D01*
X184923211Y-88558768D01*
X184843256Y-88616859D01*
X184783072Y-88660586D01*
X184783070Y-88660588D01*
X184783069Y-88660588D01*
X184660588Y-88783069D01*
X184660588Y-88783070D01*
X184660586Y-88783072D01*
X184616859Y-88843256D01*
X184558768Y-88923211D01*
X184480128Y-89077552D01*
X184426597Y-89242302D01*
X184399500Y-89413389D01*
X179600500Y-89413389D01*
X179573402Y-89242299D01*
X179519873Y-89077555D01*
X179441232Y-88923212D01*
X179339414Y-88783072D01*
X179216928Y-88660586D01*
X179076788Y-88558768D01*
X178922445Y-88480127D01*
X178757701Y-88426598D01*
X178757699Y-88426597D01*
X178757698Y-88426597D01*
X178626271Y-88405781D01*
X178586611Y-88399500D01*
X178413389Y-88399500D01*
X178373728Y-88405781D01*
X178242302Y-88426597D01*
X178077552Y-88480128D01*
X177923211Y-88558768D01*
X177843256Y-88616859D01*
X177783072Y-88660586D01*
X177783070Y-88660588D01*
X177783069Y-88660588D01*
X177660588Y-88783069D01*
X177660588Y-88783070D01*
X177660586Y-88783072D01*
X177616859Y-88843256D01*
X177558768Y-88923211D01*
X177480128Y-89077552D01*
X177426597Y-89242302D01*
X177399500Y-89413389D01*
X164150500Y-89413389D01*
X164150500Y-86101982D01*
X164170185Y-86034943D01*
X164222989Y-85989188D01*
X164235486Y-85984279D01*
X164369334Y-85939927D01*
X164518656Y-85847825D01*
X164642712Y-85723769D01*
X164734814Y-85574447D01*
X164789999Y-85407910D01*
X164800500Y-85305122D01*
X164800499Y-84105105D01*
X164797573Y-84076466D01*
X164789999Y-84002316D01*
X164789998Y-84002313D01*
X164787483Y-83994723D01*
X164734814Y-83835779D01*
X164642712Y-83686457D01*
X164518656Y-83562401D01*
X164369334Y-83470299D01*
X164325239Y-83455687D01*
X164267795Y-83415915D01*
X164240972Y-83351399D01*
X164253287Y-83282623D01*
X164291359Y-83237663D01*
X164347219Y-83197079D01*
X164491966Y-83052332D01*
X164491968Y-83052328D01*
X164491971Y-83052326D01*
X164546766Y-82976905D01*
X164612287Y-82886723D01*
X164705220Y-82704332D01*
X164768477Y-82509647D01*
X164800500Y-82307465D01*
X164800500Y-82102761D01*
X164785854Y-82010289D01*
X164768477Y-81900578D01*
X164739962Y-81812819D01*
X164737967Y-81742977D01*
X164774047Y-81683144D01*
X164836748Y-81652316D01*
X164857893Y-81650500D01*
X167454192Y-81650500D01*
X167483632Y-81659144D01*
X167513619Y-81665668D01*
X167518634Y-81669422D01*
X167521231Y-81670185D01*
X167541873Y-81686819D01*
X167638181Y-81783127D01*
X167671666Y-81844450D01*
X167674500Y-81870808D01*
X167674500Y-83147870D01*
X167674501Y-83147876D01*
X167680908Y-83207483D01*
X167731202Y-83342328D01*
X167731206Y-83342335D01*
X167817452Y-83457544D01*
X167817455Y-83457547D01*
X167932664Y-83543793D01*
X167932671Y-83543797D01*
X168064082Y-83592810D01*
X168120016Y-83634681D01*
X168144433Y-83700145D01*
X168129582Y-83768418D01*
X168108431Y-83796673D01*
X167994889Y-83910215D01*
X167869951Y-84082179D01*
X167773444Y-84271585D01*
X167707753Y-84473760D01*
X167674500Y-84683713D01*
X167674500Y-84896286D01*
X167699545Y-85054417D01*
X167707754Y-85106243D01*
X167772377Y-85305132D01*
X167773444Y-85308414D01*
X167869951Y-85497820D01*
X167994890Y-85669786D01*
X168145213Y-85820109D01*
X168317179Y-85945048D01*
X168317181Y-85945049D01*
X168317184Y-85945051D01*
X168506588Y-86041557D01*
X168708757Y-86107246D01*
X168918713Y-86140500D01*
X168918714Y-86140500D01*
X169131286Y-86140500D01*
X169131287Y-86140500D01*
X169341243Y-86107246D01*
X169543412Y-86041557D01*
X169732816Y-85945051D01*
X169784443Y-85907542D01*
X169904786Y-85820109D01*
X169904788Y-85820106D01*
X169904792Y-85820104D01*
X170055104Y-85669792D01*
X170055106Y-85669788D01*
X170055109Y-85669786D01*
X170180048Y-85497820D01*
X170180047Y-85497820D01*
X170180051Y-85497816D01*
X170276557Y-85308412D01*
X170342246Y-85106243D01*
X170375500Y-84896287D01*
X170375500Y-84683713D01*
X170369793Y-84647682D01*
X170341484Y-84468945D01*
X170343123Y-84468685D01*
X170346257Y-84406126D01*
X170375655Y-84359289D01*
X171548127Y-83186819D01*
X171609450Y-83153334D01*
X171635808Y-83150500D01*
X180564071Y-83150500D01*
X180648615Y-83133682D01*
X180689744Y-83125501D01*
X180808127Y-83076465D01*
X180914669Y-83005276D01*
X181005276Y-82914669D01*
X181076465Y-82808127D01*
X181125501Y-82689744D01*
X181133682Y-82648615D01*
X181150500Y-82564071D01*
X181150500Y-77913389D01*
X184399500Y-77913389D01*
X184399500Y-78086610D01*
X184425247Y-78249175D01*
X184426598Y-78257701D01*
X184480127Y-78422445D01*
X184558768Y-78576788D01*
X184660586Y-78716928D01*
X184783072Y-78839414D01*
X184923212Y-78941232D01*
X185077555Y-79019873D01*
X185242299Y-79073402D01*
X185413389Y-79100500D01*
X185413390Y-79100500D01*
X185586610Y-79100500D01*
X185586611Y-79100500D01*
X185757701Y-79073402D01*
X185922445Y-79019873D01*
X186076788Y-78941232D01*
X186216928Y-78839414D01*
X186339414Y-78716928D01*
X186441232Y-78576788D01*
X186519873Y-78422445D01*
X186573402Y-78257701D01*
X186600500Y-78086611D01*
X186600500Y-77913389D01*
X186573402Y-77742299D01*
X186519873Y-77577555D01*
X186441232Y-77423212D01*
X186339414Y-77283072D01*
X186216928Y-77160586D01*
X186076788Y-77058768D01*
X185922445Y-76980127D01*
X185757701Y-76926598D01*
X185757699Y-76926597D01*
X185757698Y-76926597D01*
X185626271Y-76905781D01*
X185586611Y-76899500D01*
X185413389Y-76899500D01*
X185373728Y-76905781D01*
X185242302Y-76926597D01*
X185077552Y-76980128D01*
X184923211Y-77058768D01*
X184862428Y-77102930D01*
X184783072Y-77160586D01*
X184783070Y-77160588D01*
X184783069Y-77160588D01*
X184660588Y-77283069D01*
X184660588Y-77283070D01*
X184660586Y-77283072D01*
X184616859Y-77343256D01*
X184558768Y-77423211D01*
X184480128Y-77577552D01*
X184426597Y-77742302D01*
X184399500Y-77913389D01*
X181150500Y-77913389D01*
X181150500Y-66413389D01*
X184399500Y-66413389D01*
X184399500Y-66586611D01*
X184426598Y-66757701D01*
X184480127Y-66922445D01*
X184558768Y-67076788D01*
X184660586Y-67216928D01*
X184783072Y-67339414D01*
X184923212Y-67441232D01*
X185077555Y-67519873D01*
X185242299Y-67573402D01*
X185413389Y-67600500D01*
X185413390Y-67600500D01*
X185586610Y-67600500D01*
X185586611Y-67600500D01*
X185757701Y-67573402D01*
X185922445Y-67519873D01*
X186076788Y-67441232D01*
X186216928Y-67339414D01*
X186339414Y-67216928D01*
X186441232Y-67076788D01*
X186519873Y-66922445D01*
X186573402Y-66757701D01*
X186600500Y-66586611D01*
X186600500Y-66413389D01*
X186573402Y-66242299D01*
X186519873Y-66077555D01*
X186441232Y-65923212D01*
X186339414Y-65783072D01*
X186216928Y-65660586D01*
X186076788Y-65558768D01*
X185922445Y-65480127D01*
X185757701Y-65426598D01*
X185757699Y-65426597D01*
X185757698Y-65426597D01*
X185626271Y-65405781D01*
X185586611Y-65399500D01*
X185413389Y-65399500D01*
X185373728Y-65405781D01*
X185242302Y-65426597D01*
X185077552Y-65480128D01*
X184923211Y-65558768D01*
X184879129Y-65590796D01*
X184783072Y-65660586D01*
X184783070Y-65660588D01*
X184783069Y-65660588D01*
X184660588Y-65783069D01*
X184660588Y-65783070D01*
X184660586Y-65783072D01*
X184616859Y-65843256D01*
X184558768Y-65923211D01*
X184480128Y-66077552D01*
X184426597Y-66242302D01*
X184409437Y-66350647D01*
X184399500Y-66413389D01*
X181150500Y-66413389D01*
X181150500Y-64320807D01*
X181170185Y-64253768D01*
X181186815Y-64233130D01*
X182102931Y-63317013D01*
X182164252Y-63283530D01*
X182166317Y-63283099D01*
X182233497Y-63269737D01*
X182379179Y-63209394D01*
X182510289Y-63121789D01*
X182621789Y-63010289D01*
X182709394Y-62879179D01*
X182769737Y-62733497D01*
X182800500Y-62578842D01*
X182800500Y-62421158D01*
X182800500Y-62421155D01*
X182800499Y-62421153D01*
X182769738Y-62266510D01*
X182769738Y-62266508D01*
X182769737Y-62266503D01*
X182769735Y-62266498D01*
X182709397Y-62120827D01*
X182709390Y-62120814D01*
X182621789Y-61989711D01*
X182621786Y-61989707D01*
X182510292Y-61878213D01*
X182510288Y-61878210D01*
X182379185Y-61790609D01*
X182379172Y-61790602D01*
X182233501Y-61730264D01*
X182233489Y-61730261D01*
X182078845Y-61699500D01*
X182078842Y-61699500D01*
X181921158Y-61699500D01*
X181921155Y-61699500D01*
X181766510Y-61730261D01*
X181766498Y-61730264D01*
X181620827Y-61790602D01*
X181620814Y-61790609D01*
X181489711Y-61878210D01*
X181489707Y-61878213D01*
X181378213Y-61989707D01*
X181378210Y-61989711D01*
X181290609Y-62120814D01*
X181290602Y-62120827D01*
X181230264Y-62266498D01*
X181230261Y-62266508D01*
X181216920Y-62333579D01*
X181184535Y-62395490D01*
X181182984Y-62397068D01*
X179994725Y-63585328D01*
X179994724Y-63585329D01*
X179924969Y-63689728D01*
X179924959Y-63689743D01*
X179923534Y-63691873D01*
X179874499Y-63810255D01*
X179874497Y-63810261D01*
X179849500Y-63935928D01*
X179849500Y-81725500D01*
X179829815Y-81792539D01*
X179777011Y-81838294D01*
X179725500Y-81849500D01*
X171250929Y-81849500D01*
X171125261Y-81874497D01*
X171125255Y-81874499D01*
X171006874Y-81923534D01*
X170900326Y-81994726D01*
X170900325Y-81994727D01*
X170587180Y-82307873D01*
X170525857Y-82341358D01*
X170456165Y-82336374D01*
X170400232Y-82294502D01*
X170375815Y-82229038D01*
X170375499Y-82220192D01*
X170375499Y-81352129D01*
X170375498Y-81352123D01*
X170369091Y-81292516D01*
X170318797Y-81157671D01*
X170318793Y-81157664D01*
X170232547Y-81042455D01*
X170232544Y-81042452D01*
X170117335Y-80956206D01*
X170117328Y-80956202D01*
X169982482Y-80905908D01*
X169982483Y-80905908D01*
X169922883Y-80899501D01*
X169922881Y-80899500D01*
X169922873Y-80899500D01*
X169922865Y-80899500D01*
X168645808Y-80899500D01*
X168578769Y-80879815D01*
X168558127Y-80863181D01*
X168189674Y-80494727D01*
X168189673Y-80494726D01*
X168189669Y-80494723D01*
X168083127Y-80423535D01*
X167964744Y-80374499D01*
X167964738Y-80374497D01*
X167839071Y-80349500D01*
X167839069Y-80349500D01*
X162435931Y-80349500D01*
X162435929Y-80349500D01*
X162310261Y-80374497D01*
X162310255Y-80374499D01*
X162191874Y-80423534D01*
X162085326Y-80494726D01*
X162085325Y-80494727D01*
X159766873Y-82813181D01*
X159705550Y-82846666D01*
X159679192Y-82849500D01*
X153828723Y-82849500D01*
X153761684Y-82829815D01*
X153715929Y-82777011D01*
X153705985Y-82707853D01*
X153710790Y-82687188D01*
X153768477Y-82509647D01*
X153800500Y-82307465D01*
X153800500Y-82102761D01*
X153785854Y-82010289D01*
X153768477Y-81900578D01*
X153733373Y-81792539D01*
X153705220Y-81705894D01*
X153705218Y-81705891D01*
X153705218Y-81705889D01*
X153661873Y-81620821D01*
X153612287Y-81523503D01*
X153604556Y-81512862D01*
X153491971Y-81357899D01*
X153347213Y-81213141D01*
X153181613Y-81092828D01*
X153181612Y-81092827D01*
X153181610Y-81092826D01*
X153124653Y-81063804D01*
X152999223Y-80999894D01*
X152804534Y-80936635D01*
X152610534Y-80905909D01*
X152602352Y-80904613D01*
X152397648Y-80904613D01*
X152389472Y-80905908D01*
X152195465Y-80936635D01*
X152000776Y-80999894D01*
X151818386Y-81092828D01*
X151652786Y-81213141D01*
X151508028Y-81357899D01*
X151387715Y-81523499D01*
X151294781Y-81705889D01*
X151231522Y-81900578D01*
X151199500Y-82102761D01*
X151199500Y-82307464D01*
X151231522Y-82509647D01*
X151294781Y-82704336D01*
X151365687Y-82843495D01*
X151378583Y-82912164D01*
X151352307Y-82976905D01*
X151339152Y-82990273D01*
X151339295Y-82990416D01*
X149516530Y-84813181D01*
X149455207Y-84846666D01*
X149428849Y-84849500D01*
X145274500Y-84849500D01*
X145207461Y-84829815D01*
X145161706Y-84777011D01*
X145150500Y-84725500D01*
X145150500Y-82397757D01*
X145170185Y-82330718D01*
X145222989Y-82284963D01*
X145292147Y-82275019D01*
X145298692Y-82276140D01*
X145421155Y-82300500D01*
X145421158Y-82300500D01*
X145578844Y-82300500D01*
X145578845Y-82300499D01*
X145733497Y-82269737D01*
X145879179Y-82209394D01*
X145936044Y-82171397D01*
X146002721Y-82150520D01*
X146004935Y-82150500D01*
X146679192Y-82150500D01*
X146746231Y-82170185D01*
X146766873Y-82186819D01*
X148182983Y-83602929D01*
X148216468Y-83664252D01*
X148216919Y-83666418D01*
X148230261Y-83733491D01*
X148230263Y-83733499D01*
X148290602Y-83879172D01*
X148290609Y-83879185D01*
X148378210Y-84010288D01*
X148378213Y-84010292D01*
X148489707Y-84121786D01*
X148489711Y-84121789D01*
X148620814Y-84209390D01*
X148620827Y-84209397D01*
X148721190Y-84250968D01*
X148766503Y-84269737D01*
X148921153Y-84300499D01*
X148921156Y-84300500D01*
X148921158Y-84300500D01*
X149078844Y-84300500D01*
X149078845Y-84300499D01*
X149233497Y-84269737D01*
X149379179Y-84209394D01*
X149510289Y-84121789D01*
X149621789Y-84010289D01*
X149709394Y-83879179D01*
X149769737Y-83733497D01*
X149800500Y-83578842D01*
X149800500Y-83421158D01*
X149800500Y-83421155D01*
X149800499Y-83421153D01*
X149784820Y-83342331D01*
X149769737Y-83266503D01*
X149761502Y-83246621D01*
X149709397Y-83120827D01*
X149709390Y-83120814D01*
X149621789Y-82989711D01*
X149621786Y-82989707D01*
X149510292Y-82878213D01*
X149510288Y-82878210D01*
X149379185Y-82790609D01*
X149379172Y-82790602D01*
X149233499Y-82730263D01*
X149233491Y-82730261D01*
X149166418Y-82716919D01*
X149104507Y-82684534D01*
X149102929Y-82682983D01*
X147414674Y-80994727D01*
X147414673Y-80994726D01*
X147414669Y-80994723D01*
X147308127Y-80923535D01*
X147262445Y-80904613D01*
X147189744Y-80874499D01*
X147189738Y-80874497D01*
X147064071Y-80849500D01*
X147064069Y-80849500D01*
X146004935Y-80849500D01*
X145937896Y-80829815D01*
X145936090Y-80828633D01*
X145879179Y-80790606D01*
X145879172Y-80790602D01*
X145733501Y-80730264D01*
X145733489Y-80730261D01*
X145578845Y-80699500D01*
X145578842Y-80699500D01*
X145421158Y-80699500D01*
X145421155Y-80699500D01*
X145266510Y-80730261D01*
X145266498Y-80730264D01*
X145120827Y-80790602D01*
X145120814Y-80790609D01*
X144989711Y-80878210D01*
X144989707Y-80878213D01*
X144878213Y-80989707D01*
X144853102Y-81027289D01*
X144799489Y-81072093D01*
X144730164Y-81080800D01*
X144667137Y-81050645D01*
X144646898Y-81027289D01*
X144628592Y-80999893D01*
X144621789Y-80989711D01*
X144621788Y-80989710D01*
X144621786Y-80989707D01*
X144510292Y-80878213D01*
X144510288Y-80878210D01*
X144379185Y-80790609D01*
X144379172Y-80790602D01*
X144233501Y-80730264D01*
X144233489Y-80730261D01*
X144078845Y-80699500D01*
X144078842Y-80699500D01*
X143921158Y-80699500D01*
X143921155Y-80699500D01*
X143766510Y-80730261D01*
X143766498Y-80730264D01*
X143620827Y-80790602D01*
X143620814Y-80790609D01*
X143489711Y-80878210D01*
X143489707Y-80878213D01*
X143378213Y-80989707D01*
X143378210Y-80989711D01*
X143290609Y-81120814D01*
X143290602Y-81120827D01*
X143230264Y-81266498D01*
X143230261Y-81266510D01*
X143199500Y-81421153D01*
X143199500Y-81578846D01*
X143230261Y-81733489D01*
X143230264Y-81733501D01*
X143290602Y-81879172D01*
X143290609Y-81879185D01*
X143378210Y-82010288D01*
X143378213Y-82010292D01*
X143489707Y-82121786D01*
X143489711Y-82121789D01*
X143620814Y-82209390D01*
X143620827Y-82209397D01*
X143713433Y-82247755D01*
X143766498Y-82269735D01*
X143772131Y-82272068D01*
X143771114Y-82274522D01*
X143819930Y-82306510D01*
X143848390Y-82370321D01*
X143849500Y-82386878D01*
X143849500Y-84995064D01*
X143829815Y-85062103D01*
X143828603Y-85063954D01*
X143790608Y-85120817D01*
X143790602Y-85120828D01*
X143730264Y-85266498D01*
X143730261Y-85266510D01*
X143699500Y-85421153D01*
X143699500Y-85578846D01*
X143730261Y-85733489D01*
X143730264Y-85733501D01*
X143790602Y-85879172D01*
X143790609Y-85879185D01*
X143878210Y-86010288D01*
X143878213Y-86010292D01*
X143989707Y-86121786D01*
X143989711Y-86121789D01*
X144120814Y-86209390D01*
X144120827Y-86209397D01*
X144246774Y-86261565D01*
X144266503Y-86269737D01*
X144421153Y-86300499D01*
X144421156Y-86300500D01*
X144421158Y-86300500D01*
X144578844Y-86300500D01*
X144578845Y-86300499D01*
X144733497Y-86269737D01*
X144879179Y-86209394D01*
X144936044Y-86171397D01*
X145002721Y-86150520D01*
X145004935Y-86150500D01*
X149813728Y-86150500D01*
X149898272Y-86133682D01*
X149939401Y-86125501D01*
X150057784Y-86076465D01*
X150085660Y-86057839D01*
X150164326Y-86005277D01*
X150987822Y-85181779D01*
X151049142Y-85148296D01*
X151118833Y-85153280D01*
X151174767Y-85195151D01*
X151199184Y-85260616D01*
X151199500Y-85269459D01*
X151199500Y-85305112D01*
X151199501Y-85305132D01*
X151210000Y-85407909D01*
X151210001Y-85407912D01*
X151265185Y-85574444D01*
X151265187Y-85574449D01*
X151279635Y-85597873D01*
X151357288Y-85723769D01*
X151481344Y-85847825D01*
X151630666Y-85939927D01*
X151764505Y-85984277D01*
X151821949Y-86024049D01*
X151848772Y-86088564D01*
X151849500Y-86101982D01*
X151849500Y-87602242D01*
X151829815Y-87669281D01*
X151777011Y-87715036D01*
X151707853Y-87724980D01*
X151701309Y-87723859D01*
X151578846Y-87699500D01*
X151578842Y-87699500D01*
X151421158Y-87699500D01*
X151421155Y-87699500D01*
X151266510Y-87730261D01*
X151266498Y-87730264D01*
X151120827Y-87790602D01*
X151120820Y-87790606D01*
X151091928Y-87809911D01*
X151063955Y-87828602D01*
X150997279Y-87849480D01*
X150995065Y-87849500D01*
X149504935Y-87849500D01*
X149437896Y-87829815D01*
X149436090Y-87828633D01*
X149379179Y-87790606D01*
X149379172Y-87790602D01*
X149233501Y-87730264D01*
X149233489Y-87730261D01*
X149078845Y-87699500D01*
X149078842Y-87699500D01*
X148921158Y-87699500D01*
X148921155Y-87699500D01*
X148766510Y-87730261D01*
X148766498Y-87730264D01*
X148620827Y-87790602D01*
X148620814Y-87790609D01*
X148489711Y-87878210D01*
X148489707Y-87878213D01*
X148378213Y-87989707D01*
X148378210Y-87989711D01*
X148290609Y-88120814D01*
X148290602Y-88120827D01*
X148230264Y-88266498D01*
X148230261Y-88266510D01*
X148199500Y-88421153D01*
X148199500Y-88578846D01*
X148230261Y-88733489D01*
X148230264Y-88733501D01*
X148290602Y-88879172D01*
X148290609Y-88879185D01*
X148378210Y-89010288D01*
X148378213Y-89010292D01*
X148489707Y-89121786D01*
X148489711Y-89121789D01*
X148620814Y-89209390D01*
X148620827Y-89209397D01*
X148766498Y-89269735D01*
X148766503Y-89269737D01*
X148921153Y-89300499D01*
X148921156Y-89300500D01*
X148921158Y-89300500D01*
X149078844Y-89300500D01*
X149078845Y-89300499D01*
X149233497Y-89269737D01*
X149379179Y-89209394D01*
X149436044Y-89171397D01*
X149502721Y-89150520D01*
X149504935Y-89150500D01*
X150995065Y-89150500D01*
X151062104Y-89170185D01*
X151063909Y-89171366D01*
X151120821Y-89209394D01*
X151120823Y-89209395D01*
X151120827Y-89209397D01*
X151266498Y-89269735D01*
X151266503Y-89269737D01*
X151421153Y-89300499D01*
X151421156Y-89300500D01*
X151421158Y-89300500D01*
X151578844Y-89300500D01*
X151701308Y-89276140D01*
X151770900Y-89282367D01*
X151826077Y-89325230D01*
X151849322Y-89391120D01*
X151849500Y-89397757D01*
X151849500Y-90679192D01*
X151829815Y-90746231D01*
X151813181Y-90766873D01*
X147416873Y-95163181D01*
X147355550Y-95196666D01*
X147329192Y-95199500D01*
X138924500Y-95199500D01*
X138857461Y-95179815D01*
X138811706Y-95127011D01*
X138800500Y-95075500D01*
X138800500Y-94921155D01*
X138800499Y-94921153D01*
X138769738Y-94766510D01*
X138769737Y-94766503D01*
X138769735Y-94766498D01*
X138709397Y-94620827D01*
X138709390Y-94620814D01*
X138621789Y-94489711D01*
X138621786Y-94489707D01*
X138510292Y-94378213D01*
X138510288Y-94378210D01*
X138379185Y-94290609D01*
X138379172Y-94290602D01*
X138233501Y-94230264D01*
X138233489Y-94230261D01*
X138166420Y-94216920D01*
X138104509Y-94184535D01*
X138102930Y-94182984D01*
X135414674Y-91494727D01*
X135414673Y-91494726D01*
X135414669Y-91494723D01*
X135308127Y-91423535D01*
X135286732Y-91414673D01*
X135189744Y-91374499D01*
X135189738Y-91374497D01*
X135064071Y-91349500D01*
X135064069Y-91349500D01*
X130501182Y-91349500D01*
X130434143Y-91329815D01*
X130388388Y-91277011D01*
X130378444Y-91207853D01*
X130407469Y-91144297D01*
X130413501Y-91137819D01*
X135655273Y-85896047D01*
X135655277Y-85896043D01*
X135726465Y-85789501D01*
X135775501Y-85671118D01*
X135778213Y-85657483D01*
X135800500Y-85545443D01*
X135800500Y-82085931D01*
X135800500Y-82085928D01*
X135775502Y-81960261D01*
X135775501Y-81960260D01*
X135775501Y-81960256D01*
X135726465Y-81841873D01*
X135705340Y-81810257D01*
X135693501Y-81792539D01*
X135655278Y-81735332D01*
X135655272Y-81735325D01*
X135414673Y-81494726D01*
X135414669Y-81494723D01*
X135308127Y-81423535D01*
X135302388Y-81421158D01*
X135189744Y-81374499D01*
X135189738Y-81374497D01*
X135064071Y-81349500D01*
X135064069Y-81349500D01*
X133967435Y-81349500D01*
X133900396Y-81329815D01*
X133898590Y-81328633D01*
X133841679Y-81290606D01*
X133841672Y-81290602D01*
X133696001Y-81230264D01*
X133695989Y-81230261D01*
X133541345Y-81199500D01*
X133541342Y-81199500D01*
X133383658Y-81199500D01*
X133383655Y-81199500D01*
X133229010Y-81230261D01*
X133228998Y-81230264D01*
X133083327Y-81290602D01*
X133083314Y-81290609D01*
X132952211Y-81378210D01*
X132952207Y-81378213D01*
X132840713Y-81489707D01*
X132840710Y-81489711D01*
X132753109Y-81620814D01*
X132753102Y-81620827D01*
X132692764Y-81766498D01*
X132692761Y-81766510D01*
X132662000Y-81921153D01*
X132662000Y-82078846D01*
X132692761Y-82233489D01*
X132692764Y-82233501D01*
X132753102Y-82379172D01*
X132753109Y-82379185D01*
X132840710Y-82510288D01*
X132840713Y-82510292D01*
X132952207Y-82621786D01*
X132952211Y-82621789D01*
X133083314Y-82709390D01*
X133083327Y-82709397D01*
X133228998Y-82769735D01*
X133229003Y-82769737D01*
X133383653Y-82800499D01*
X133383656Y-82800500D01*
X133383658Y-82800500D01*
X133541344Y-82800500D01*
X133541345Y-82800499D01*
X133695997Y-82769737D01*
X133841679Y-82709394D01*
X133898544Y-82671397D01*
X133965221Y-82650520D01*
X133967435Y-82650500D01*
X134375500Y-82650500D01*
X134442539Y-82670185D01*
X134488294Y-82722989D01*
X134499500Y-82774500D01*
X134499500Y-83582152D01*
X134479815Y-83649191D01*
X134427011Y-83694946D01*
X134399692Y-83703769D01*
X134266508Y-83730261D01*
X134266498Y-83730264D01*
X134120827Y-83790602D01*
X134120820Y-83790606D01*
X134091928Y-83809911D01*
X134063955Y-83828602D01*
X133997279Y-83849480D01*
X133995065Y-83849500D01*
X132435929Y-83849500D01*
X132310261Y-83874497D01*
X132310255Y-83874499D01*
X132191875Y-83923533D01*
X132191866Y-83923538D01*
X132085331Y-83994723D01*
X132085327Y-83994726D01*
X131994726Y-84085327D01*
X131994723Y-84085331D01*
X131923538Y-84191866D01*
X131923533Y-84191875D01*
X131874499Y-84310255D01*
X131874497Y-84310261D01*
X131849500Y-84435928D01*
X131849500Y-86679191D01*
X131829815Y-86746230D01*
X131813181Y-86766872D01*
X126397068Y-92182984D01*
X126335745Y-92216469D01*
X126333579Y-92216920D01*
X126266508Y-92230261D01*
X126266498Y-92230264D01*
X126120827Y-92290602D01*
X126120814Y-92290609D01*
X125989711Y-92378210D01*
X125989707Y-92378213D01*
X125878213Y-92489707D01*
X125878210Y-92489711D01*
X125790609Y-92620814D01*
X125790602Y-92620827D01*
X125730264Y-92766498D01*
X125730261Y-92766510D01*
X125699500Y-92921153D01*
X110000500Y-92921153D01*
X110000500Y-91124808D01*
X110020185Y-91057769D01*
X110036819Y-91037127D01*
X110955412Y-90118533D01*
X111050329Y-90249175D01*
X111178325Y-90377171D01*
X111308966Y-90472086D01*
X110345241Y-91435810D01*
X110345241Y-91435811D01*
X110478543Y-91542115D01*
X110716299Y-91691507D01*
X110969282Y-91813337D01*
X111234319Y-91906077D01*
X111234321Y-91906078D01*
X111508075Y-91968560D01*
X111508087Y-91968562D01*
X111787098Y-91999999D01*
X111787100Y-92000000D01*
X112067900Y-92000000D01*
X112067901Y-91999999D01*
X112346912Y-91968562D01*
X112346924Y-91968560D01*
X112620678Y-91906078D01*
X112620680Y-91906077D01*
X112885717Y-91813337D01*
X113138700Y-91691507D01*
X113376456Y-91542116D01*
X113509757Y-91435810D01*
X112546033Y-90472086D01*
X112676675Y-90377171D01*
X112804671Y-90249175D01*
X112899586Y-90118533D01*
X113863310Y-91082257D01*
X113969616Y-90948956D01*
X114119007Y-90711200D01*
X114240837Y-90458217D01*
X114333577Y-90193180D01*
X114333578Y-90193178D01*
X114396060Y-89919424D01*
X114396062Y-89919412D01*
X114427499Y-89640401D01*
X114427500Y-89640399D01*
X114427500Y-89359600D01*
X114427499Y-89359598D01*
X114396062Y-89080587D01*
X114396060Y-89080575D01*
X114333578Y-88806821D01*
X114333577Y-88806819D01*
X114240837Y-88541782D01*
X114119007Y-88288799D01*
X113969615Y-88051043D01*
X113863310Y-87917741D01*
X112899586Y-88881465D01*
X112804671Y-88750825D01*
X112676675Y-88622829D01*
X112546033Y-88527912D01*
X113509757Y-87564187D01*
X113376456Y-87457884D01*
X113138700Y-87308492D01*
X112885717Y-87186662D01*
X112620680Y-87093922D01*
X112620678Y-87093921D01*
X112346924Y-87031439D01*
X112346912Y-87031437D01*
X112067901Y-87000000D01*
X111787098Y-87000000D01*
X111508087Y-87031437D01*
X111508075Y-87031439D01*
X111234321Y-87093921D01*
X111234319Y-87093922D01*
X110969282Y-87186662D01*
X110716299Y-87308492D01*
X110478543Y-87457884D01*
X110345241Y-87564187D01*
X111308966Y-88527912D01*
X111178325Y-88622829D01*
X111050329Y-88750825D01*
X110955412Y-88881466D01*
X110036819Y-87962873D01*
X110003334Y-87901550D01*
X110000500Y-87875192D01*
X110000500Y-82147648D01*
X113487000Y-82147648D01*
X113487000Y-82352351D01*
X113519022Y-82554534D01*
X113582281Y-82749223D01*
X113630316Y-82843495D01*
X113652343Y-82886726D01*
X113675215Y-82931613D01*
X113795528Y-83097213D01*
X113940286Y-83241971D01*
X114105885Y-83362284D01*
X114105887Y-83362285D01*
X114105890Y-83362287D01*
X114159878Y-83389795D01*
X114210674Y-83437769D01*
X114227469Y-83505590D01*
X114204932Y-83571725D01*
X114159878Y-83610765D01*
X114106144Y-83638143D01*
X114061577Y-83670523D01*
X114061577Y-83670524D01*
X114678502Y-84287449D01*
X114604157Y-84307370D01*
X114495843Y-84369905D01*
X114407405Y-84458343D01*
X114344870Y-84566657D01*
X114324949Y-84641002D01*
X113708024Y-84024077D01*
X113708023Y-84024077D01*
X113675643Y-84068644D01*
X113582744Y-84250968D01*
X113519509Y-84445582D01*
X113487500Y-84647682D01*
X113487500Y-84852317D01*
X113519509Y-85054417D01*
X113582744Y-85249031D01*
X113675641Y-85431350D01*
X113675647Y-85431359D01*
X113708023Y-85475921D01*
X113708024Y-85475922D01*
X114324949Y-84858997D01*
X114344870Y-84933343D01*
X114407405Y-85041657D01*
X114495843Y-85130095D01*
X114604157Y-85192630D01*
X114678501Y-85212550D01*
X114061576Y-85829474D01*
X114106150Y-85861859D01*
X114288468Y-85954755D01*
X114483082Y-86017990D01*
X114685183Y-86050000D01*
X114889817Y-86050000D01*
X115091917Y-86017990D01*
X115286531Y-85954755D01*
X115467706Y-85862441D01*
X115536375Y-85849545D01*
X115601115Y-85875821D01*
X115623267Y-85898614D01*
X115629950Y-85907542D01*
X115629952Y-85907544D01*
X115629954Y-85907546D01*
X115629957Y-85907548D01*
X115745164Y-85993793D01*
X115745171Y-85993797D01*
X115880017Y-86044091D01*
X115880016Y-86044091D01*
X115886944Y-86044835D01*
X115939627Y-86050500D01*
X117635372Y-86050499D01*
X117694983Y-86044091D01*
X117829831Y-85993796D01*
X117945046Y-85907546D01*
X118031296Y-85792331D01*
X118081591Y-85657483D01*
X118081591Y-85657482D01*
X118081592Y-85657480D01*
X118081592Y-85657479D01*
X118084034Y-85634755D01*
X118088000Y-85597873D01*
X118087999Y-83902128D01*
X118081591Y-83842517D01*
X118064492Y-83796673D01*
X118031297Y-83707671D01*
X118031293Y-83707664D01*
X117945047Y-83592455D01*
X117945044Y-83592452D01*
X117829835Y-83506206D01*
X117829828Y-83506202D01*
X117694979Y-83455907D01*
X117689459Y-83454603D01*
X117628744Y-83420029D01*
X117596359Y-83358118D01*
X117602586Y-83288527D01*
X117632484Y-83246621D01*
X117631274Y-83245411D01*
X117699819Y-83176866D01*
X117779466Y-83097219D01*
X117779468Y-83097215D01*
X117779471Y-83097213D01*
X117857577Y-82989707D01*
X117899787Y-82931610D01*
X117992720Y-82749219D01*
X118055977Y-82554534D01*
X118088000Y-82352352D01*
X118088000Y-82147648D01*
X118083904Y-82121786D01*
X118055977Y-81945465D01*
X118021155Y-81838294D01*
X117992720Y-81750781D01*
X117992718Y-81750778D01*
X117992718Y-81750776D01*
X117949353Y-81665668D01*
X117899787Y-81568390D01*
X117867172Y-81523499D01*
X117779471Y-81402786D01*
X117634713Y-81258028D01*
X117469113Y-81137715D01*
X117469112Y-81137714D01*
X117469110Y-81137713D01*
X117412153Y-81108691D01*
X117286723Y-81044781D01*
X117092034Y-80981522D01*
X116917495Y-80953878D01*
X116889852Y-80949500D01*
X116685148Y-80949500D01*
X116660829Y-80953351D01*
X116482965Y-80981522D01*
X116288276Y-81044781D01*
X116105886Y-81137715D01*
X115940286Y-81258028D01*
X115940282Y-81258032D01*
X115875181Y-81323134D01*
X115813858Y-81356619D01*
X115744166Y-81351635D01*
X115699819Y-81323134D01*
X115634713Y-81258028D01*
X115469113Y-81137715D01*
X115469112Y-81137714D01*
X115469110Y-81137713D01*
X115412153Y-81108691D01*
X115286723Y-81044781D01*
X115092034Y-80981522D01*
X114917495Y-80953878D01*
X114889852Y-80949500D01*
X114685148Y-80949500D01*
X114660829Y-80953351D01*
X114482965Y-80981522D01*
X114288276Y-81044781D01*
X114105886Y-81137715D01*
X113940286Y-81258028D01*
X113795528Y-81402786D01*
X113675215Y-81568386D01*
X113582281Y-81750776D01*
X113519022Y-81945465D01*
X113487000Y-82147648D01*
X110000500Y-82147648D01*
X110000500Y-79124808D01*
X110020185Y-79057769D01*
X110036819Y-79037127D01*
X110955412Y-78118533D01*
X111050329Y-78249175D01*
X111178325Y-78377171D01*
X111308966Y-78472086D01*
X110345241Y-79435810D01*
X110345241Y-79435811D01*
X110478543Y-79542115D01*
X110716299Y-79691507D01*
X110969282Y-79813337D01*
X111234319Y-79906077D01*
X111234321Y-79906078D01*
X111508075Y-79968560D01*
X111508087Y-79968562D01*
X111787098Y-79999999D01*
X111787100Y-80000000D01*
X112067900Y-80000000D01*
X112067901Y-79999999D01*
X112346912Y-79968562D01*
X112346924Y-79968560D01*
X112620678Y-79906078D01*
X112620680Y-79906077D01*
X112885717Y-79813337D01*
X113138700Y-79691507D01*
X113376456Y-79542116D01*
X113509757Y-79435810D01*
X112546033Y-78472086D01*
X112676675Y-78377171D01*
X112804671Y-78249175D01*
X112899586Y-78118533D01*
X113863310Y-79082257D01*
X113969616Y-78948956D01*
X114119007Y-78711200D01*
X114240837Y-78458217D01*
X114333577Y-78193180D01*
X114333578Y-78193178D01*
X114395665Y-77921153D01*
X122699500Y-77921153D01*
X122699500Y-78078846D01*
X122730261Y-78233489D01*
X122730264Y-78233501D01*
X122790602Y-78379172D01*
X122790609Y-78379185D01*
X122878210Y-78510288D01*
X122878213Y-78510292D01*
X122989707Y-78621786D01*
X122989711Y-78621789D01*
X123120814Y-78709390D01*
X123120827Y-78709397D01*
X123208230Y-78745599D01*
X123266503Y-78769737D01*
X123333580Y-78783079D01*
X123395490Y-78815463D01*
X123397069Y-78817015D01*
X127250681Y-82670627D01*
X127284166Y-82731950D01*
X127287000Y-82758308D01*
X127287000Y-83995064D01*
X127267315Y-84062103D01*
X127266103Y-84063954D01*
X127228108Y-84120817D01*
X127228102Y-84120828D01*
X127167764Y-84266498D01*
X127167761Y-84266510D01*
X127137000Y-84421153D01*
X127137000Y-84578846D01*
X127167761Y-84733489D01*
X127167764Y-84733501D01*
X127228102Y-84879172D01*
X127228109Y-84879185D01*
X127315710Y-85010288D01*
X127315713Y-85010292D01*
X127427207Y-85121786D01*
X127427211Y-85121789D01*
X127558314Y-85209390D01*
X127558327Y-85209397D01*
X127696183Y-85266498D01*
X127704003Y-85269737D01*
X127825327Y-85293870D01*
X127858653Y-85300499D01*
X127858656Y-85300500D01*
X127858658Y-85300500D01*
X128016344Y-85300500D01*
X128016345Y-85300499D01*
X128170997Y-85269737D01*
X128316679Y-85209394D01*
X128447789Y-85121789D01*
X128559289Y-85010289D01*
X128646894Y-84879179D01*
X128707237Y-84733497D01*
X128738000Y-84578842D01*
X128738000Y-84421158D01*
X128738000Y-84421155D01*
X128737999Y-84421153D01*
X128708927Y-84275000D01*
X128707237Y-84266503D01*
X128676325Y-84191875D01*
X128646897Y-84120828D01*
X128646896Y-84120827D01*
X128646894Y-84120821D01*
X128608896Y-84063953D01*
X128588020Y-83997276D01*
X128588000Y-83995064D01*
X128588000Y-82373428D01*
X128563002Y-82247761D01*
X128563001Y-82247760D01*
X128563001Y-82247756D01*
X128513965Y-82129373D01*
X128508898Y-82121789D01*
X128442777Y-82022831D01*
X128442775Y-82022828D01*
X124317015Y-77897068D01*
X124283530Y-77835745D01*
X124283079Y-77833578D01*
X124270380Y-77769735D01*
X124269737Y-77766503D01*
X124229841Y-77670185D01*
X124209397Y-77620827D01*
X124209390Y-77620814D01*
X124121789Y-77489711D01*
X124121786Y-77489707D01*
X124010292Y-77378213D01*
X124010288Y-77378210D01*
X123879185Y-77290609D01*
X123879172Y-77290602D01*
X123733501Y-77230264D01*
X123733489Y-77230261D01*
X123578845Y-77199500D01*
X123578842Y-77199500D01*
X123421158Y-77199500D01*
X123421155Y-77199500D01*
X123266510Y-77230261D01*
X123266498Y-77230264D01*
X123120827Y-77290602D01*
X123120814Y-77290609D01*
X122989711Y-77378210D01*
X122989707Y-77378213D01*
X122878213Y-77489707D01*
X122878210Y-77489711D01*
X122790609Y-77620814D01*
X122790602Y-77620827D01*
X122730264Y-77766498D01*
X122730261Y-77766510D01*
X122699500Y-77921153D01*
X114395665Y-77921153D01*
X114396060Y-77919424D01*
X114396062Y-77919412D01*
X114398117Y-77901182D01*
X114427499Y-77640401D01*
X114427500Y-77640399D01*
X114427500Y-77359600D01*
X114427499Y-77359598D01*
X114396062Y-77080587D01*
X114396060Y-77080575D01*
X114333578Y-76806821D01*
X114333577Y-76806819D01*
X114240837Y-76541782D01*
X114119007Y-76288799D01*
X113969615Y-76051043D01*
X113863310Y-75917741D01*
X112899586Y-76881465D01*
X112804671Y-76750825D01*
X112676675Y-76622829D01*
X112546033Y-76527912D01*
X113509757Y-75564187D01*
X113376456Y-75457884D01*
X113138700Y-75308492D01*
X112885717Y-75186662D01*
X112620680Y-75093922D01*
X112620678Y-75093921D01*
X112346924Y-75031439D01*
X112346912Y-75031437D01*
X112067901Y-75000000D01*
X111787098Y-75000000D01*
X111508087Y-75031437D01*
X111508075Y-75031439D01*
X111234321Y-75093921D01*
X111234319Y-75093922D01*
X110969282Y-75186662D01*
X110716299Y-75308492D01*
X110478543Y-75457884D01*
X110345241Y-75564187D01*
X111308966Y-76527912D01*
X111178325Y-76622829D01*
X111050329Y-76750825D01*
X110955412Y-76881466D01*
X110036819Y-75962873D01*
X110003334Y-75901550D01*
X110000500Y-75875192D01*
X110000500Y-69851577D01*
X111249500Y-69851577D01*
X111249500Y-70048422D01*
X111280290Y-70242826D01*
X111341117Y-70430029D01*
X111430476Y-70605405D01*
X111546172Y-70764646D01*
X111685354Y-70903828D01*
X111844595Y-71019524D01*
X111927455Y-71061743D01*
X112019970Y-71108882D01*
X112019972Y-71108882D01*
X112019975Y-71108884D01*
X112120317Y-71141487D01*
X112207173Y-71169709D01*
X112401578Y-71200500D01*
X112401583Y-71200500D01*
X112598422Y-71200500D01*
X112792826Y-71169709D01*
X112980025Y-71108884D01*
X113155405Y-71019524D01*
X113314646Y-70903828D01*
X113453828Y-70764646D01*
X113569524Y-70605405D01*
X113658884Y-70430025D01*
X113719709Y-70242826D01*
X113739032Y-70120827D01*
X113750500Y-70048422D01*
X113750500Y-69851577D01*
X113719709Y-69657173D01*
X113658882Y-69469970D01*
X113580947Y-69317015D01*
X113569524Y-69294595D01*
X113453828Y-69135354D01*
X113314646Y-68996172D01*
X113155405Y-68880476D01*
X113152871Y-68879185D01*
X112980029Y-68791117D01*
X112792826Y-68730290D01*
X112598422Y-68699500D01*
X112598417Y-68699500D01*
X112401583Y-68699500D01*
X112401578Y-68699500D01*
X112207173Y-68730290D01*
X112019970Y-68791117D01*
X111844594Y-68880476D01*
X111753741Y-68946485D01*
X111685354Y-68996172D01*
X111685352Y-68996174D01*
X111685351Y-68996174D01*
X111546174Y-69135351D01*
X111546174Y-69135352D01*
X111546172Y-69135354D01*
X111496485Y-69203741D01*
X111430476Y-69294594D01*
X111341117Y-69469970D01*
X111280290Y-69657173D01*
X111249500Y-69851577D01*
X110000500Y-69851577D01*
X110000500Y-66921153D01*
X130699500Y-66921153D01*
X130699500Y-67078846D01*
X130730261Y-67233489D01*
X130730264Y-67233501D01*
X130790602Y-67379172D01*
X130790609Y-67379185D01*
X130878210Y-67510288D01*
X130878213Y-67510292D01*
X130989707Y-67621786D01*
X131027289Y-67646898D01*
X131072093Y-67700511D01*
X131080800Y-67769836D01*
X131050645Y-67832863D01*
X131027289Y-67853102D01*
X130989707Y-67878213D01*
X130878213Y-67989707D01*
X130878210Y-67989711D01*
X130790609Y-68120814D01*
X130790602Y-68120827D01*
X130730264Y-68266498D01*
X130730261Y-68266510D01*
X130699500Y-68421153D01*
X130699500Y-68578846D01*
X130730261Y-68733489D01*
X130730264Y-68733501D01*
X130790602Y-68879172D01*
X130790609Y-68879185D01*
X130878210Y-69010288D01*
X130878213Y-69010292D01*
X130989707Y-69121786D01*
X130989711Y-69121789D01*
X131120814Y-69209390D01*
X131120827Y-69209397D01*
X131208230Y-69245599D01*
X131266503Y-69269737D01*
X131333580Y-69283079D01*
X131395490Y-69315463D01*
X131397069Y-69317015D01*
X131886306Y-69806252D01*
X131919791Y-69867575D01*
X131914807Y-69937267D01*
X131886310Y-69981611D01*
X131878210Y-69989710D01*
X131878210Y-69989711D01*
X131790609Y-70120814D01*
X131790602Y-70120827D01*
X131730264Y-70266498D01*
X131730261Y-70266510D01*
X131699500Y-70421153D01*
X131699500Y-70578846D01*
X131730261Y-70733489D01*
X131730264Y-70733501D01*
X131790602Y-70879172D01*
X131790606Y-70879179D01*
X131828602Y-70936044D01*
X131834253Y-70954091D01*
X131844477Y-70970000D01*
X131848928Y-71000959D01*
X131849480Y-71002721D01*
X131849500Y-71004935D01*
X131849500Y-71082152D01*
X131829815Y-71149191D01*
X131777011Y-71194946D01*
X131749692Y-71203769D01*
X131616508Y-71230261D01*
X131616498Y-71230264D01*
X131470827Y-71290602D01*
X131470814Y-71290609D01*
X131339711Y-71378210D01*
X131339707Y-71378213D01*
X131228213Y-71489707D01*
X131228210Y-71489711D01*
X131140609Y-71620814D01*
X131140602Y-71620827D01*
X131080264Y-71766498D01*
X131080261Y-71766510D01*
X131049500Y-71921153D01*
X131049500Y-72078846D01*
X131080261Y-72233489D01*
X131080264Y-72233501D01*
X131140602Y-72379172D01*
X131140606Y-72379179D01*
X131178602Y-72436044D01*
X131199480Y-72502721D01*
X131199500Y-72504935D01*
X131199500Y-76414071D01*
X131214547Y-76489711D01*
X131214547Y-76489713D01*
X131224497Y-76539737D01*
X131224499Y-76539744D01*
X131273535Y-76658127D01*
X131307790Y-76709394D01*
X131344726Y-76764673D01*
X131344727Y-76764674D01*
X134182984Y-79602930D01*
X134216469Y-79664253D01*
X134216920Y-79666420D01*
X134230261Y-79733489D01*
X134230264Y-79733501D01*
X134290602Y-79879172D01*
X134290609Y-79879185D01*
X134378210Y-80010288D01*
X134378213Y-80010292D01*
X134489707Y-80121786D01*
X134489711Y-80121789D01*
X134620814Y-80209390D01*
X134620827Y-80209397D01*
X134766498Y-80269735D01*
X134766503Y-80269737D01*
X134921153Y-80300499D01*
X134921156Y-80300500D01*
X134921158Y-80300500D01*
X135078844Y-80300500D01*
X135078845Y-80300499D01*
X135233497Y-80269737D01*
X135379179Y-80209394D01*
X135510289Y-80121789D01*
X135621789Y-80010289D01*
X135709394Y-79879179D01*
X135769737Y-79733497D01*
X135800500Y-79578842D01*
X135800500Y-79421158D01*
X135800500Y-79421155D01*
X135800499Y-79421153D01*
X135792148Y-79379172D01*
X135769737Y-79266503D01*
X135737940Y-79189738D01*
X135709397Y-79120827D01*
X135709390Y-79120814D01*
X135621789Y-78989711D01*
X135621786Y-78989707D01*
X135510292Y-78878213D01*
X135510288Y-78878210D01*
X135379185Y-78790609D01*
X135379172Y-78790602D01*
X135233501Y-78730264D01*
X135233489Y-78730261D01*
X135166420Y-78716920D01*
X135104509Y-78684535D01*
X135102930Y-78682984D01*
X132536819Y-76116873D01*
X132503334Y-76055550D01*
X132500500Y-76029192D01*
X132500500Y-75719808D01*
X132520185Y-75652769D01*
X132572989Y-75607014D01*
X132642147Y-75597070D01*
X132705703Y-75626095D01*
X132712181Y-75632127D01*
X134182984Y-77102930D01*
X134216469Y-77164253D01*
X134216920Y-77166420D01*
X134230261Y-77233489D01*
X134230264Y-77233501D01*
X134290602Y-77379172D01*
X134290609Y-77379185D01*
X134378210Y-77510288D01*
X134378213Y-77510292D01*
X134489707Y-77621786D01*
X134489711Y-77621789D01*
X134620814Y-77709390D01*
X134620827Y-77709397D01*
X134766498Y-77769735D01*
X134766503Y-77769737D01*
X134921153Y-77800499D01*
X134921156Y-77800500D01*
X134921158Y-77800500D01*
X135078844Y-77800500D01*
X135078845Y-77800499D01*
X135233497Y-77769737D01*
X135379179Y-77709394D01*
X135510289Y-77621789D01*
X135621789Y-77510289D01*
X135709394Y-77379179D01*
X135769737Y-77233497D01*
X135800500Y-77078842D01*
X135800500Y-76921158D01*
X135800500Y-76921155D01*
X135800499Y-76921153D01*
X135769738Y-76766510D01*
X135769737Y-76766503D01*
X135746082Y-76709394D01*
X135709397Y-76620827D01*
X135709390Y-76620814D01*
X135621789Y-76489711D01*
X135621786Y-76489707D01*
X135510292Y-76378213D01*
X135510288Y-76378210D01*
X135379185Y-76290609D01*
X135379172Y-76290602D01*
X135233501Y-76230264D01*
X135233489Y-76230261D01*
X135166420Y-76216920D01*
X135104509Y-76184535D01*
X135102930Y-76182984D01*
X133186819Y-74266873D01*
X133153334Y-74205550D01*
X133150500Y-74179192D01*
X133150500Y-71369808D01*
X133170185Y-71302769D01*
X133222989Y-71257014D01*
X133292147Y-71247070D01*
X133355703Y-71276095D01*
X133362181Y-71282127D01*
X138585325Y-76505272D01*
X138585326Y-76505273D01*
X138585329Y-76505275D01*
X138585331Y-76505277D01*
X138691873Y-76576465D01*
X138810256Y-76625501D01*
X138810260Y-76625501D01*
X138810261Y-76625502D01*
X138935928Y-76650500D01*
X138935931Y-76650500D01*
X138995065Y-76650500D01*
X139062104Y-76670185D01*
X139063909Y-76671366D01*
X139120821Y-76709394D01*
X139120823Y-76709395D01*
X139120827Y-76709397D01*
X139258683Y-76766498D01*
X139266503Y-76769737D01*
X139421153Y-76800499D01*
X139421156Y-76800500D01*
X139421158Y-76800500D01*
X139578844Y-76800500D01*
X139578845Y-76800499D01*
X139733497Y-76769737D01*
X139879179Y-76709394D01*
X140010289Y-76621789D01*
X140121789Y-76510289D01*
X140209394Y-76379179D01*
X140269737Y-76233497D01*
X140300500Y-76078842D01*
X140300500Y-75921158D01*
X140300500Y-75921155D01*
X140300499Y-75921153D01*
X140269738Y-75766510D01*
X140269737Y-75766503D01*
X140269735Y-75766498D01*
X140209397Y-75620827D01*
X140209390Y-75620814D01*
X140121789Y-75489711D01*
X140121786Y-75489707D01*
X140010292Y-75378213D01*
X140010288Y-75378210D01*
X139879185Y-75290609D01*
X139879172Y-75290602D01*
X139733501Y-75230264D01*
X139733489Y-75230261D01*
X139578845Y-75199500D01*
X139578842Y-75199500D01*
X139421158Y-75199500D01*
X139421155Y-75199500D01*
X139266505Y-75230261D01*
X139266498Y-75230264D01*
X139260810Y-75232620D01*
X139191340Y-75240084D01*
X139128863Y-75208806D01*
X139125683Y-75205737D01*
X138282127Y-74362181D01*
X138248642Y-74300858D01*
X138253626Y-74231166D01*
X138295498Y-74175233D01*
X138360962Y-74150816D01*
X138369808Y-74150500D01*
X138995065Y-74150500D01*
X139062104Y-74170185D01*
X139063909Y-74171366D01*
X139120821Y-74209394D01*
X139120823Y-74209395D01*
X139120827Y-74209397D01*
X139266498Y-74269735D01*
X139266503Y-74269737D01*
X139421153Y-74300499D01*
X139421156Y-74300500D01*
X139421158Y-74300500D01*
X139578844Y-74300500D01*
X139578845Y-74300499D01*
X139733497Y-74269737D01*
X139879179Y-74209394D01*
X140010289Y-74121789D01*
X140121789Y-74010289D01*
X140209394Y-73879179D01*
X140269737Y-73733497D01*
X140300500Y-73578842D01*
X140300500Y-73421158D01*
X140300500Y-73421155D01*
X140300499Y-73421153D01*
X141199500Y-73421153D01*
X141199500Y-73578846D01*
X141230261Y-73733489D01*
X141230264Y-73733501D01*
X141290602Y-73879172D01*
X141290609Y-73879185D01*
X141378210Y-74010288D01*
X141378213Y-74010292D01*
X141489707Y-74121786D01*
X141489711Y-74121789D01*
X141620814Y-74209390D01*
X141620827Y-74209397D01*
X141766498Y-74269735D01*
X141766503Y-74269737D01*
X141921153Y-74300499D01*
X141921156Y-74300500D01*
X141921158Y-74300500D01*
X142078844Y-74300500D01*
X142078845Y-74300499D01*
X142233497Y-74269737D01*
X142379179Y-74209394D01*
X142510289Y-74121789D01*
X142621789Y-74010289D01*
X142709394Y-73879179D01*
X142769737Y-73733497D01*
X142783079Y-73666417D01*
X142815462Y-73604508D01*
X142816956Y-73602987D01*
X144233126Y-72186819D01*
X144294449Y-72153334D01*
X144320807Y-72150500D01*
X144630192Y-72150500D01*
X144697231Y-72170185D01*
X144742986Y-72222989D01*
X144752930Y-72292147D01*
X144723905Y-72355703D01*
X144717873Y-72362181D01*
X141897068Y-75182984D01*
X141835745Y-75216469D01*
X141833579Y-75216920D01*
X141766508Y-75230261D01*
X141766498Y-75230264D01*
X141620827Y-75290602D01*
X141620814Y-75290609D01*
X141489711Y-75378210D01*
X141489707Y-75378213D01*
X141378213Y-75489707D01*
X141378210Y-75489711D01*
X141290609Y-75620814D01*
X141290602Y-75620827D01*
X141230264Y-75766498D01*
X141230261Y-75766510D01*
X141199500Y-75921153D01*
X141199500Y-76078846D01*
X141230261Y-76233489D01*
X141230264Y-76233501D01*
X141290602Y-76379172D01*
X141290609Y-76379185D01*
X141378210Y-76510288D01*
X141378213Y-76510292D01*
X141489707Y-76621786D01*
X141489711Y-76621789D01*
X141620814Y-76709390D01*
X141620827Y-76709397D01*
X141758683Y-76766498D01*
X141766503Y-76769737D01*
X141921153Y-76800499D01*
X141921156Y-76800500D01*
X141921158Y-76800500D01*
X142078844Y-76800500D01*
X142078845Y-76800499D01*
X142233497Y-76769737D01*
X142379179Y-76709394D01*
X142510289Y-76621789D01*
X142621789Y-76510289D01*
X142709394Y-76379179D01*
X142769737Y-76233497D01*
X142783079Y-76166416D01*
X142815463Y-76104509D01*
X142816959Y-76102985D01*
X146033127Y-72886819D01*
X146094450Y-72853334D01*
X146120808Y-72850500D01*
X149930192Y-72850500D01*
X149945161Y-72854895D01*
X149960752Y-72854325D01*
X149978000Y-72864538D01*
X149997231Y-72870185D01*
X150007446Y-72881974D01*
X150020872Y-72889924D01*
X150029860Y-72907841D01*
X150042986Y-72922989D01*
X150045206Y-72938431D01*
X150052202Y-72952376D01*
X150050077Y-72972306D01*
X150052930Y-72992147D01*
X150046347Y-73007286D01*
X150044795Y-73021851D01*
X150031089Y-73042382D01*
X150026812Y-73052221D01*
X150022613Y-73057440D01*
X149994723Y-73085331D01*
X149971010Y-73120821D01*
X149967968Y-73125372D01*
X149967966Y-73125376D01*
X149923534Y-73191874D01*
X149874499Y-73310255D01*
X149874497Y-73310261D01*
X149849500Y-73435928D01*
X149849500Y-78225500D01*
X149829815Y-78292539D01*
X149777011Y-78338294D01*
X149725500Y-78349500D01*
X146004935Y-78349500D01*
X145937896Y-78329815D01*
X145936090Y-78328633D01*
X145879179Y-78290606D01*
X145879172Y-78290602D01*
X145733501Y-78230264D01*
X145733489Y-78230261D01*
X145578845Y-78199500D01*
X145578842Y-78199500D01*
X145421158Y-78199500D01*
X145421155Y-78199500D01*
X145266510Y-78230261D01*
X145266498Y-78230264D01*
X145120827Y-78290602D01*
X145120814Y-78290609D01*
X144989711Y-78378210D01*
X144989707Y-78378213D01*
X144878213Y-78489707D01*
X144878210Y-78489711D01*
X144790609Y-78620814D01*
X144790602Y-78620827D01*
X144730264Y-78766498D01*
X144730261Y-78766510D01*
X144699500Y-78921153D01*
X144699500Y-79078846D01*
X144730261Y-79233489D01*
X144730264Y-79233501D01*
X144790602Y-79379172D01*
X144790609Y-79379185D01*
X144878210Y-79510288D01*
X144878213Y-79510292D01*
X144989707Y-79621786D01*
X144989711Y-79621789D01*
X145120814Y-79709390D01*
X145120827Y-79709397D01*
X145266498Y-79769735D01*
X145266503Y-79769737D01*
X145421153Y-79800499D01*
X145421156Y-79800500D01*
X145421158Y-79800500D01*
X145578844Y-79800500D01*
X145578845Y-79800499D01*
X145733497Y-79769737D01*
X145879179Y-79709394D01*
X145936044Y-79671397D01*
X146002721Y-79650520D01*
X146004935Y-79650500D01*
X150564071Y-79650500D01*
X150669499Y-79629528D01*
X150689744Y-79625501D01*
X150808127Y-79576465D01*
X150914669Y-79505276D01*
X151005276Y-79414669D01*
X151076465Y-79308127D01*
X151125501Y-79189744D01*
X151139211Y-79120821D01*
X151150500Y-79064071D01*
X151150500Y-77913389D01*
X177399500Y-77913389D01*
X177399500Y-78086610D01*
X177425247Y-78249175D01*
X177426598Y-78257701D01*
X177480127Y-78422445D01*
X177558768Y-78576788D01*
X177660586Y-78716928D01*
X177783072Y-78839414D01*
X177923212Y-78941232D01*
X178077555Y-79019873D01*
X178242299Y-79073402D01*
X178413389Y-79100500D01*
X178413390Y-79100500D01*
X178586610Y-79100500D01*
X178586611Y-79100500D01*
X178757701Y-79073402D01*
X178922445Y-79019873D01*
X179076788Y-78941232D01*
X179216928Y-78839414D01*
X179339414Y-78716928D01*
X179441232Y-78576788D01*
X179519873Y-78422445D01*
X179573402Y-78257701D01*
X179600500Y-78086611D01*
X179600500Y-77913389D01*
X179573402Y-77742299D01*
X179519873Y-77577555D01*
X179441232Y-77423212D01*
X179339414Y-77283072D01*
X179216928Y-77160586D01*
X179076788Y-77058768D01*
X178922445Y-76980127D01*
X178757701Y-76926598D01*
X178757699Y-76926597D01*
X178757698Y-76926597D01*
X178626271Y-76905781D01*
X178586611Y-76899500D01*
X178413389Y-76899500D01*
X178373728Y-76905781D01*
X178242302Y-76926597D01*
X178077552Y-76980128D01*
X177923211Y-77058768D01*
X177862428Y-77102930D01*
X177783072Y-77160586D01*
X177783070Y-77160588D01*
X177783069Y-77160588D01*
X177660588Y-77283069D01*
X177660588Y-77283070D01*
X177660586Y-77283072D01*
X177616859Y-77343256D01*
X177558768Y-77423211D01*
X177480128Y-77577552D01*
X177426597Y-77742302D01*
X177399500Y-77913389D01*
X151150500Y-77913389D01*
X151150500Y-74200704D01*
X151170185Y-74133665D01*
X151222989Y-74087910D01*
X151292147Y-74077966D01*
X151355703Y-74106991D01*
X151393477Y-74165769D01*
X151395178Y-74172195D01*
X151396402Y-74177377D01*
X151446645Y-74312086D01*
X151446649Y-74312093D01*
X151532809Y-74427187D01*
X151532812Y-74427190D01*
X151647906Y-74513350D01*
X151647913Y-74513354D01*
X151782620Y-74563596D01*
X151782627Y-74563598D01*
X151842155Y-74569999D01*
X151842172Y-74570000D01*
X152400000Y-74570000D01*
X152400000Y-73632757D01*
X152401324Y-73634081D01*
X152493676Y-73687400D01*
X152596681Y-73715000D01*
X152703319Y-73715000D01*
X152806324Y-73687400D01*
X152898676Y-73634081D01*
X152900000Y-73632757D01*
X152900000Y-74570000D01*
X153457828Y-74570000D01*
X153457844Y-74569999D01*
X153517372Y-74563598D01*
X153517379Y-74563596D01*
X153652086Y-74513354D01*
X153652093Y-74513350D01*
X153767187Y-74427190D01*
X153767190Y-74427187D01*
X153853350Y-74312093D01*
X153853354Y-74312086D01*
X153903596Y-74177379D01*
X153903598Y-74177372D01*
X153909999Y-74117844D01*
X153910000Y-74117827D01*
X153910000Y-73560000D01*
X152972757Y-73560000D01*
X152974081Y-73558676D01*
X153027400Y-73466324D01*
X153055000Y-73363319D01*
X153055000Y-73256681D01*
X153027400Y-73153676D01*
X152974081Y-73061324D01*
X152972757Y-73060000D01*
X153910000Y-73060000D01*
X153910000Y-72974500D01*
X153929685Y-72907461D01*
X153982489Y-72861706D01*
X154034000Y-72850500D01*
X164003261Y-72850500D01*
X164070300Y-72870185D01*
X164116055Y-72922989D01*
X164125999Y-72992147D01*
X164121193Y-73012812D01*
X164120728Y-73014241D01*
X164120535Y-73014837D01*
X164089500Y-73210790D01*
X164089500Y-73409209D01*
X164113383Y-73560000D01*
X164120537Y-73605168D01*
X164154403Y-73709394D01*
X164181850Y-73793868D01*
X164243021Y-73913922D01*
X164271923Y-73970646D01*
X164388544Y-74131161D01*
X164528839Y-74271456D01*
X164689354Y-74388077D01*
X164802800Y-74445880D01*
X164866131Y-74478149D01*
X164866133Y-74478149D01*
X164866136Y-74478151D01*
X165054832Y-74539463D01*
X165152814Y-74554981D01*
X165250791Y-74570500D01*
X165250796Y-74570500D01*
X165449208Y-74570500D01*
X165509208Y-74560996D01*
X165595153Y-74547384D01*
X165664444Y-74556338D01*
X165702230Y-74582176D01*
X168625325Y-77505272D01*
X168625326Y-77505273D01*
X168625329Y-77505275D01*
X168625331Y-77505277D01*
X168731873Y-77576465D01*
X168850256Y-77625501D01*
X168850260Y-77625501D01*
X168850261Y-77625502D01*
X168975928Y-77650500D01*
X168975931Y-77650500D01*
X168995065Y-77650500D01*
X169062104Y-77670185D01*
X169063909Y-77671366D01*
X169120821Y-77709394D01*
X169120823Y-77709395D01*
X169120827Y-77709397D01*
X169266498Y-77769735D01*
X169266503Y-77769737D01*
X169421153Y-77800499D01*
X169421156Y-77800500D01*
X169421158Y-77800500D01*
X169578844Y-77800500D01*
X169647215Y-77786900D01*
X169647215Y-77786899D01*
X169733497Y-77769737D01*
X169879179Y-77709394D01*
X170010289Y-77621789D01*
X170121789Y-77510289D01*
X170209394Y-77379179D01*
X170269737Y-77233497D01*
X170300500Y-77078842D01*
X170300500Y-76921158D01*
X170300500Y-76921155D01*
X170300499Y-76921153D01*
X170269738Y-76766510D01*
X170269737Y-76766503D01*
X170246082Y-76709394D01*
X170209397Y-76620827D01*
X170209390Y-76620814D01*
X170121789Y-76489711D01*
X170121786Y-76489707D01*
X170010292Y-76378213D01*
X170010288Y-76378210D01*
X169879185Y-76290609D01*
X169879172Y-76290602D01*
X169733501Y-76230264D01*
X169733489Y-76230261D01*
X169578845Y-76199500D01*
X169578842Y-76199500D01*
X169421158Y-76199500D01*
X169421155Y-76199500D01*
X169267872Y-76229990D01*
X169198281Y-76223763D01*
X169156000Y-76196054D01*
X166622176Y-73662230D01*
X166588691Y-73600907D01*
X166587384Y-73555154D01*
X166606267Y-73435931D01*
X166610500Y-73409208D01*
X166610500Y-73329808D01*
X166630185Y-73262769D01*
X166682989Y-73217014D01*
X166752147Y-73207070D01*
X166815703Y-73236095D01*
X166822181Y-73242127D01*
X167682984Y-74102930D01*
X167716469Y-74164253D01*
X167716920Y-74166420D01*
X167730261Y-74233489D01*
X167730264Y-74233501D01*
X167790602Y-74379172D01*
X167790609Y-74379185D01*
X167878210Y-74510288D01*
X167878213Y-74510292D01*
X167989707Y-74621786D01*
X167989711Y-74621789D01*
X168120814Y-74709390D01*
X168120827Y-74709397D01*
X168266498Y-74769735D01*
X168266503Y-74769737D01*
X168421153Y-74800499D01*
X168421156Y-74800500D01*
X168421158Y-74800500D01*
X168578844Y-74800500D01*
X168578845Y-74800499D01*
X168733497Y-74769737D01*
X168879179Y-74709394D01*
X169010289Y-74621789D01*
X169121789Y-74510289D01*
X169209394Y-74379179D01*
X169269737Y-74233497D01*
X169300500Y-74078842D01*
X169300500Y-73921158D01*
X169300500Y-73921155D01*
X169300499Y-73921153D01*
X169269738Y-73766510D01*
X169269737Y-73766503D01*
X169226546Y-73662230D01*
X169209397Y-73620827D01*
X169209390Y-73620814D01*
X169121789Y-73489711D01*
X169121786Y-73489707D01*
X169010292Y-73378213D01*
X169010288Y-73378210D01*
X168879185Y-73290609D01*
X168879172Y-73290602D01*
X168733501Y-73230264D01*
X168733489Y-73230261D01*
X168666420Y-73216920D01*
X168604509Y-73184535D01*
X168602930Y-73182984D01*
X168333740Y-72913794D01*
X168300255Y-72852471D01*
X168305239Y-72782779D01*
X168347111Y-72726846D01*
X168373967Y-72711552D01*
X168379179Y-72709394D01*
X168510289Y-72621789D01*
X168621789Y-72510289D01*
X168709394Y-72379179D01*
X168769737Y-72233497D01*
X168800500Y-72078842D01*
X168800500Y-71921158D01*
X168800500Y-71921155D01*
X168800499Y-71921153D01*
X168769738Y-71766510D01*
X168769737Y-71766503D01*
X168769735Y-71766498D01*
X168709397Y-71620827D01*
X168709390Y-71620814D01*
X168621789Y-71489711D01*
X168621786Y-71489707D01*
X168510292Y-71378213D01*
X168510288Y-71378210D01*
X168379185Y-71290609D01*
X168379172Y-71290602D01*
X168233501Y-71230264D01*
X168233489Y-71230261D01*
X168166420Y-71216920D01*
X168104509Y-71184535D01*
X168102930Y-71182984D01*
X167914674Y-70994727D01*
X167914673Y-70994726D01*
X167914669Y-70994723D01*
X167808127Y-70923535D01*
X167808122Y-70923533D01*
X167689744Y-70874499D01*
X167689738Y-70874497D01*
X167564071Y-70849500D01*
X167564069Y-70849500D01*
X143935931Y-70849500D01*
X143935929Y-70849500D01*
X143810261Y-70874497D01*
X143810255Y-70874499D01*
X143691875Y-70923533D01*
X143691866Y-70923538D01*
X143585331Y-70994723D01*
X143585327Y-70994726D01*
X141897069Y-72682984D01*
X141835746Y-72716469D01*
X141833580Y-72716920D01*
X141766508Y-72730261D01*
X141766498Y-72730264D01*
X141620827Y-72790602D01*
X141620814Y-72790609D01*
X141489711Y-72878210D01*
X141489707Y-72878213D01*
X141378213Y-72989707D01*
X141378210Y-72989711D01*
X141290609Y-73120814D01*
X141290602Y-73120827D01*
X141230264Y-73266498D01*
X141230261Y-73266510D01*
X141199500Y-73421153D01*
X140300499Y-73421153D01*
X140274531Y-73290606D01*
X140269737Y-73266503D01*
X140256066Y-73233497D01*
X140209397Y-73120827D01*
X140209390Y-73120814D01*
X140121789Y-72989711D01*
X140121786Y-72989707D01*
X140010292Y-72878213D01*
X140010288Y-72878210D01*
X139879185Y-72790609D01*
X139879172Y-72790602D01*
X139733501Y-72730264D01*
X139733489Y-72730261D01*
X139578845Y-72699500D01*
X139578842Y-72699500D01*
X139421158Y-72699500D01*
X139421155Y-72699500D01*
X139266510Y-72730261D01*
X139266498Y-72730264D01*
X139120827Y-72790602D01*
X139120820Y-72790606D01*
X139091928Y-72809911D01*
X139063955Y-72828602D01*
X138997279Y-72849480D01*
X138995065Y-72849500D01*
X138320807Y-72849500D01*
X138253768Y-72829815D01*
X138233126Y-72813181D01*
X132317015Y-66897069D01*
X132283530Y-66835746D01*
X132283093Y-66833652D01*
X132269737Y-66766503D01*
X132245599Y-66708230D01*
X132209397Y-66620827D01*
X132209390Y-66620814D01*
X132121789Y-66489711D01*
X132121786Y-66489707D01*
X132010292Y-66378213D01*
X132010288Y-66378210D01*
X131879185Y-66290609D01*
X131879172Y-66290602D01*
X131733501Y-66230264D01*
X131733489Y-66230261D01*
X131578845Y-66199500D01*
X131578842Y-66199500D01*
X131421158Y-66199500D01*
X131421155Y-66199500D01*
X131266510Y-66230261D01*
X131266498Y-66230264D01*
X131120827Y-66290602D01*
X131120814Y-66290609D01*
X130989711Y-66378210D01*
X130989707Y-66378213D01*
X130878213Y-66489707D01*
X130878210Y-66489711D01*
X130790609Y-66620814D01*
X130790602Y-66620827D01*
X130730264Y-66766498D01*
X130730261Y-66766510D01*
X130699500Y-66921153D01*
X110000500Y-66921153D01*
X110000500Y-64951577D01*
X111249500Y-64951577D01*
X111249500Y-65148422D01*
X111280290Y-65342826D01*
X111341117Y-65530029D01*
X111430476Y-65705405D01*
X111546172Y-65864646D01*
X111685354Y-66003828D01*
X111844595Y-66119524D01*
X111927455Y-66161743D01*
X112019970Y-66208882D01*
X112019972Y-66208882D01*
X112019975Y-66208884D01*
X112120317Y-66241487D01*
X112207173Y-66269709D01*
X112401578Y-66300500D01*
X112401583Y-66300500D01*
X112598422Y-66300500D01*
X112792826Y-66269709D01*
X112980025Y-66208884D01*
X113155405Y-66119524D01*
X113314646Y-66003828D01*
X113453828Y-65864646D01*
X113569524Y-65705405D01*
X113658884Y-65530025D01*
X113694259Y-65421153D01*
X138199500Y-65421153D01*
X138199500Y-65578846D01*
X138230261Y-65733489D01*
X138230264Y-65733501D01*
X138290602Y-65879172D01*
X138290609Y-65879185D01*
X138378210Y-66010288D01*
X138378213Y-66010292D01*
X138489707Y-66121786D01*
X138489711Y-66121789D01*
X138620814Y-66209390D01*
X138620827Y-66209397D01*
X138766435Y-66269709D01*
X138766503Y-66269737D01*
X138921153Y-66300499D01*
X138921156Y-66300500D01*
X138921158Y-66300500D01*
X139078844Y-66300500D01*
X139078845Y-66300499D01*
X139233497Y-66269737D01*
X139379179Y-66209394D01*
X139436044Y-66171397D01*
X139502721Y-66150520D01*
X139504935Y-66150500D01*
X139564071Y-66150500D01*
X139648615Y-66133682D01*
X139689744Y-66125501D01*
X139808127Y-66076465D01*
X139914669Y-66005277D01*
X140329156Y-65590790D01*
X151389500Y-65590790D01*
X151389500Y-65789209D01*
X151403749Y-65879172D01*
X151420537Y-65985168D01*
X151450202Y-66076465D01*
X151481850Y-66173868D01*
X151530684Y-66269709D01*
X151571923Y-66350646D01*
X151688544Y-66511161D01*
X151828839Y-66651456D01*
X151989354Y-66768077D01*
X152102800Y-66825880D01*
X152166131Y-66858149D01*
X152166133Y-66858149D01*
X152166136Y-66858151D01*
X152354832Y-66919463D01*
X152452814Y-66934981D01*
X152550791Y-66950500D01*
X152550796Y-66950500D01*
X152749209Y-66950500D01*
X152838278Y-66936392D01*
X152945168Y-66919463D01*
X153133864Y-66858151D01*
X153310646Y-66768077D01*
X153471161Y-66651456D01*
X153611456Y-66511161D01*
X153728077Y-66350646D01*
X153818151Y-66173864D01*
X153879463Y-65985168D01*
X153898551Y-65864647D01*
X153910500Y-65789209D01*
X153910500Y-65590790D01*
X164089500Y-65590790D01*
X164089500Y-65789209D01*
X164103749Y-65879172D01*
X164120537Y-65985168D01*
X164150202Y-66076465D01*
X164181850Y-66173868D01*
X164230684Y-66269709D01*
X164271923Y-66350646D01*
X164388544Y-66511161D01*
X164528839Y-66651456D01*
X164689354Y-66768077D01*
X164802800Y-66825880D01*
X164866131Y-66858149D01*
X164866133Y-66858149D01*
X164866136Y-66858151D01*
X165054832Y-66919463D01*
X165152814Y-66934981D01*
X165250791Y-66950500D01*
X165250796Y-66950500D01*
X165449209Y-66950500D01*
X165538278Y-66936392D01*
X165645168Y-66919463D01*
X165833864Y-66858151D01*
X166010646Y-66768077D01*
X166171161Y-66651456D01*
X166311456Y-66511161D01*
X166382492Y-66413389D01*
X177399500Y-66413389D01*
X177399500Y-66586611D01*
X177426598Y-66757701D01*
X177480127Y-66922445D01*
X177558768Y-67076788D01*
X177660586Y-67216928D01*
X177783072Y-67339414D01*
X177923212Y-67441232D01*
X178077555Y-67519873D01*
X178242299Y-67573402D01*
X178413389Y-67600500D01*
X178413390Y-67600500D01*
X178586610Y-67600500D01*
X178586611Y-67600500D01*
X178757701Y-67573402D01*
X178922445Y-67519873D01*
X179076788Y-67441232D01*
X179216928Y-67339414D01*
X179339414Y-67216928D01*
X179441232Y-67076788D01*
X179519873Y-66922445D01*
X179573402Y-66757701D01*
X179600500Y-66586611D01*
X179600500Y-66413389D01*
X179573402Y-66242299D01*
X179519873Y-66077555D01*
X179441232Y-65923212D01*
X179339414Y-65783072D01*
X179216928Y-65660586D01*
X179076788Y-65558768D01*
X178922445Y-65480127D01*
X178757701Y-65426598D01*
X178757699Y-65426597D01*
X178757698Y-65426597D01*
X178626271Y-65405781D01*
X178586611Y-65399500D01*
X178413389Y-65399500D01*
X178373728Y-65405781D01*
X178242302Y-65426597D01*
X178077552Y-65480128D01*
X177923211Y-65558768D01*
X177879129Y-65590796D01*
X177783072Y-65660586D01*
X177783070Y-65660588D01*
X177783069Y-65660588D01*
X177660588Y-65783069D01*
X177660588Y-65783070D01*
X177660586Y-65783072D01*
X177616859Y-65843256D01*
X177558768Y-65923211D01*
X177480128Y-66077552D01*
X177426597Y-66242302D01*
X177409437Y-66350647D01*
X177399500Y-66413389D01*
X166382492Y-66413389D01*
X166428077Y-66350646D01*
X166518151Y-66173864D01*
X166579463Y-65985168D01*
X166598551Y-65864647D01*
X166610500Y-65789209D01*
X166610500Y-65590790D01*
X166584494Y-65426598D01*
X166579463Y-65394832D01*
X166518151Y-65206136D01*
X166518149Y-65206133D01*
X166518149Y-65206131D01*
X166474678Y-65120814D01*
X166428077Y-65029354D01*
X166311456Y-64868839D01*
X166171161Y-64728544D01*
X166010646Y-64611923D01*
X165928308Y-64569970D01*
X165833868Y-64521850D01*
X165788596Y-64507140D01*
X165645168Y-64460537D01*
X165645162Y-64460536D01*
X165449209Y-64429500D01*
X165449204Y-64429500D01*
X165250796Y-64429500D01*
X165250791Y-64429500D01*
X165054837Y-64460536D01*
X165054835Y-64460536D01*
X165054832Y-64460537D01*
X164960484Y-64491193D01*
X164866131Y-64521850D01*
X164689352Y-64611924D01*
X164689349Y-64611926D01*
X164603255Y-64674477D01*
X164528839Y-64728544D01*
X164528837Y-64728546D01*
X164528836Y-64728546D01*
X164388546Y-64868836D01*
X164388546Y-64868837D01*
X164388544Y-64868839D01*
X164334477Y-64943255D01*
X164271926Y-65029349D01*
X164271924Y-65029352D01*
X164181850Y-65206131D01*
X164162236Y-65266498D01*
X164120537Y-65394832D01*
X164120536Y-65394835D01*
X164120536Y-65394837D01*
X164089500Y-65590790D01*
X153910500Y-65590790D01*
X153884494Y-65426598D01*
X153879463Y-65394832D01*
X153818151Y-65206136D01*
X153818149Y-65206133D01*
X153818149Y-65206131D01*
X153774678Y-65120814D01*
X153728077Y-65029354D01*
X153611456Y-64868839D01*
X153471161Y-64728544D01*
X153310646Y-64611923D01*
X153228308Y-64569970D01*
X153133868Y-64521850D01*
X153088596Y-64507140D01*
X152945168Y-64460537D01*
X152945162Y-64460536D01*
X152749209Y-64429500D01*
X152749204Y-64429500D01*
X152550796Y-64429500D01*
X152550791Y-64429500D01*
X152354837Y-64460536D01*
X152354835Y-64460536D01*
X152354832Y-64460537D01*
X152260484Y-64491193D01*
X152166131Y-64521850D01*
X151989352Y-64611924D01*
X151989349Y-64611926D01*
X151903255Y-64674477D01*
X151828839Y-64728544D01*
X151828837Y-64728546D01*
X151828836Y-64728546D01*
X151688546Y-64868836D01*
X151688546Y-64868837D01*
X151688544Y-64868839D01*
X151634477Y-64943255D01*
X151571926Y-65029349D01*
X151571924Y-65029352D01*
X151481850Y-65206131D01*
X151462236Y-65266498D01*
X151420537Y-65394832D01*
X151420536Y-65394835D01*
X151420536Y-65394837D01*
X151389500Y-65590790D01*
X140329156Y-65590790D01*
X141602931Y-64317013D01*
X141664252Y-64283530D01*
X141666284Y-64283106D01*
X141733497Y-64269737D01*
X141879179Y-64209394D01*
X142010289Y-64121789D01*
X142121789Y-64010289D01*
X142209394Y-63879179D01*
X142269737Y-63733497D01*
X142300500Y-63578842D01*
X142300500Y-63421158D01*
X142300500Y-63421155D01*
X142300499Y-63421153D01*
X142283080Y-63333581D01*
X142269737Y-63266503D01*
X142209794Y-63121786D01*
X142209397Y-63120827D01*
X142209390Y-63120814D01*
X142121789Y-62989711D01*
X142121786Y-62989707D01*
X142010292Y-62878213D01*
X142010288Y-62878210D01*
X141879185Y-62790609D01*
X141879172Y-62790602D01*
X141733501Y-62730264D01*
X141733489Y-62730261D01*
X141578845Y-62699500D01*
X141578842Y-62699500D01*
X141421158Y-62699500D01*
X141421155Y-62699500D01*
X141266510Y-62730261D01*
X141266498Y-62730264D01*
X141120827Y-62790602D01*
X141120814Y-62790609D01*
X140989711Y-62878210D01*
X140989707Y-62878213D01*
X140878213Y-62989707D01*
X140878210Y-62989711D01*
X140790609Y-63120814D01*
X140790602Y-63120827D01*
X140730263Y-63266500D01*
X140730261Y-63266506D01*
X140716919Y-63333581D01*
X140684533Y-63395491D01*
X140682983Y-63397069D01*
X139374315Y-64705737D01*
X139312992Y-64739222D01*
X139243300Y-64734238D01*
X139239190Y-64732621D01*
X139238311Y-64732257D01*
X139233497Y-64730263D01*
X139233494Y-64730262D01*
X139233488Y-64730260D01*
X139078845Y-64699500D01*
X139078842Y-64699500D01*
X138921158Y-64699500D01*
X138921155Y-64699500D01*
X138766510Y-64730261D01*
X138766498Y-64730264D01*
X138620827Y-64790602D01*
X138620814Y-64790609D01*
X138489711Y-64878210D01*
X138489707Y-64878213D01*
X138378213Y-64989707D01*
X138378210Y-64989711D01*
X138290609Y-65120814D01*
X138290602Y-65120827D01*
X138230264Y-65266498D01*
X138230261Y-65266510D01*
X138199500Y-65421153D01*
X113694259Y-65421153D01*
X113719709Y-65342826D01*
X113735572Y-65242666D01*
X113750500Y-65148422D01*
X113750500Y-64951577D01*
X113719709Y-64757173D01*
X113658882Y-64569970D01*
X113569523Y-64394594D01*
X113453828Y-64235354D01*
X113314646Y-64096172D01*
X113155405Y-63980476D01*
X112980029Y-63891117D01*
X112792826Y-63830290D01*
X112598422Y-63799500D01*
X112598417Y-63799500D01*
X112401583Y-63799500D01*
X112401578Y-63799500D01*
X112207173Y-63830290D01*
X112019970Y-63891117D01*
X111844594Y-63980476D01*
X111753741Y-64046485D01*
X111685354Y-64096172D01*
X111685352Y-64096174D01*
X111685351Y-64096174D01*
X111546174Y-64235351D01*
X111546174Y-64235352D01*
X111546172Y-64235354D01*
X111496485Y-64303741D01*
X111430476Y-64394594D01*
X111341117Y-64569970D01*
X111280290Y-64757173D01*
X111249500Y-64951577D01*
X110000500Y-64951577D01*
X110000500Y-60624500D01*
X110020185Y-60557461D01*
X110072989Y-60511706D01*
X110124500Y-60500500D01*
X188875500Y-60500500D01*
X188942539Y-60520185D01*
G37*
%TD.AperFunction*%
%TD*%
M02*
