%TF.GenerationSoftware,KiCad,Pcbnew,10.0.2*%
%TF.CreationDate,2026-05-14T17:44:34+08:00*%
%TF.ProjectId,usb_audio_cat,7573625f-6175-4646-996f-5f6361742e6b,rev?*%
%TF.SameCoordinates,Original*%
%TF.FileFunction,Legend,Bot*%
%TF.FilePolarity,Positive*%
%FSLAX46Y46*%
G04 Gerber Fmt 4.6, Leading zero omitted, Abs format (unit mm)*
G04 Created by KiCad (PCBNEW 10.0.2) date 2026-05-14 17:44:34*
%MOMM*%
%LPD*%
G01*
G04 APERTURE LIST*
%ADD10C,0.000000*%
G04 APERTURE END LIST*
D10*
%TO.C,G\u002A\u002A\u002A*%
G36*
X125986174Y-91131270D02*
G01*
X126156507Y-91162842D01*
X126350303Y-91238535D01*
X126548967Y-91366457D01*
X126670902Y-91457733D01*
X126670902Y-91305750D01*
X126670902Y-91153766D01*
X126989809Y-91153766D01*
X127308716Y-91153766D01*
X127308716Y-92729542D01*
X127308716Y-94305317D01*
X126989809Y-94305317D01*
X126670902Y-94305317D01*
X126670902Y-93272355D01*
X126670877Y-93185482D01*
X126669871Y-92870060D01*
X126666342Y-92618551D01*
X126658858Y-92421998D01*
X126645987Y-92271447D01*
X126626298Y-92157942D01*
X126598358Y-92072528D01*
X126560735Y-92006249D01*
X126511998Y-91950150D01*
X126450714Y-91895276D01*
X126410002Y-91864024D01*
X126230894Y-91782407D01*
X126032002Y-91769434D01*
X125824300Y-91826311D01*
X125754293Y-91854309D01*
X125665480Y-91879286D01*
X125620908Y-91876835D01*
X125615045Y-91869756D01*
X125568869Y-91814780D01*
X125491287Y-91722851D01*
X125395388Y-91609486D01*
X125193532Y-91371114D01*
X125285024Y-91299842D01*
X125389448Y-91236550D01*
X125577359Y-91168390D01*
X125786334Y-91130876D01*
X125986174Y-91131270D01*
G37*
G36*
X139480479Y-96083995D02*
G01*
X139734400Y-96159819D01*
X139961818Y-96297052D01*
X140102512Y-96409887D01*
X140102512Y-96258045D01*
X140102512Y-96106204D01*
X140421419Y-96106204D01*
X140740326Y-96106204D01*
X140740326Y-97683496D01*
X140740326Y-99260789D01*
X140430799Y-99249892D01*
X140121271Y-99238995D01*
X140102512Y-98169719D01*
X140098026Y-97926589D01*
X140090960Y-97634948D01*
X140081419Y-97404051D01*
X140067457Y-97225471D01*
X140047131Y-97090781D01*
X140018495Y-96991554D01*
X139979605Y-96919364D01*
X139928515Y-96865782D01*
X139863281Y-96822383D01*
X139781959Y-96780739D01*
X139623351Y-96724155D01*
X139421880Y-96715503D01*
X139221941Y-96780969D01*
X139180785Y-96801520D01*
X139104245Y-96836740D01*
X139072200Y-96846626D01*
X139066573Y-96839129D01*
X139023719Y-96787456D01*
X138948201Y-96698366D01*
X138851299Y-96585205D01*
X138809240Y-96534953D01*
X138724100Y-96422593D01*
X138671238Y-96336316D01*
X138660038Y-96290581D01*
X138686898Y-96266018D01*
X138767937Y-96215414D01*
X138878380Y-96158992D01*
X138961116Y-96125237D01*
X139217051Y-96071746D01*
X139480479Y-96083995D01*
G37*
G36*
X127033036Y-96143103D02*
G01*
X127280577Y-96278857D01*
X127458790Y-96406227D01*
X127458790Y-96256215D01*
X127458790Y-96106204D01*
X127777697Y-96106204D01*
X128096604Y-96106204D01*
X128096604Y-97656967D01*
X128096479Y-97811895D01*
X128095380Y-98136220D01*
X128093252Y-98433399D01*
X128090220Y-98695450D01*
X128086411Y-98914392D01*
X128081952Y-99082242D01*
X128076970Y-99191020D01*
X128071591Y-99232742D01*
X128067282Y-99235402D01*
X128007097Y-99246761D01*
X127896228Y-99254741D01*
X127754797Y-99257755D01*
X127463016Y-99257755D01*
X127451523Y-98172387D01*
X127448698Y-97919024D01*
X127445026Y-97656759D01*
X127440653Y-97453721D01*
X127434920Y-97301057D01*
X127427163Y-97189914D01*
X127416722Y-97111439D01*
X127402935Y-97056779D01*
X127385140Y-97017082D01*
X127362675Y-96983494D01*
X127353992Y-96972077D01*
X127195005Y-96818655D01*
X127011836Y-96731176D01*
X126814619Y-96712586D01*
X126613493Y-96765828D01*
X126574050Y-96783372D01*
X126487405Y-96819814D01*
X126442558Y-96835435D01*
X126439484Y-96835212D01*
X126395665Y-96802862D01*
X126324957Y-96727980D01*
X126240177Y-96626979D01*
X126154140Y-96516271D01*
X126079663Y-96412269D01*
X126029563Y-96331385D01*
X126016655Y-96290032D01*
X126043412Y-96265666D01*
X126124300Y-96215306D01*
X126234657Y-96158992D01*
X126253709Y-96150366D01*
X126508515Y-96077587D01*
X126771986Y-96075590D01*
X127033036Y-96143103D01*
G37*
G36*
X124056573Y-91141126D02*
G01*
X124345350Y-91206511D01*
X124612912Y-91330856D01*
X124847013Y-91514436D01*
X124866059Y-91533988D01*
X125035863Y-91763264D01*
X125163108Y-92041908D01*
X125244155Y-92356273D01*
X125275366Y-92692709D01*
X125253102Y-93037569D01*
X125229453Y-93171930D01*
X125128669Y-93503910D01*
X124975738Y-93783073D01*
X124771598Y-94008286D01*
X124517187Y-94178418D01*
X124213443Y-94292337D01*
X124140892Y-94308801D01*
X123840972Y-94331258D01*
X123534413Y-94286925D01*
X123238758Y-94177863D01*
X123233002Y-94174998D01*
X123085100Y-94092162D01*
X122948143Y-94000379D01*
X122851103Y-93918996D01*
X122726872Y-93790509D01*
X122959225Y-93580243D01*
X123191577Y-93369976D01*
X123336420Y-93493957D01*
X123498348Y-93603313D01*
X123712125Y-93678801D01*
X123931081Y-93692131D01*
X124141550Y-93644738D01*
X124329871Y-93538058D01*
X124482379Y-93373528D01*
X124509071Y-93329607D01*
X124585001Y-93134362D01*
X124627091Y-92900372D01*
X124634247Y-92650312D01*
X124605375Y-92406856D01*
X124539380Y-92192679D01*
X124481868Y-92086822D01*
X124336599Y-91925256D01*
X124154997Y-91816416D01*
X123950622Y-91762918D01*
X123737034Y-91767378D01*
X123527792Y-91832411D01*
X123336456Y-91960633D01*
X123196390Y-92087174D01*
X122961688Y-91878109D01*
X122726987Y-91669044D01*
X122831516Y-91559939D01*
X122934191Y-91463644D01*
X123185389Y-91295958D01*
X123464348Y-91186126D01*
X123758824Y-91134423D01*
X124056573Y-91141126D01*
G37*
G36*
X128628595Y-92194904D02*
G01*
X128631799Y-92460580D01*
X128635596Y-92711493D01*
X128640176Y-92904923D01*
X128646334Y-93050354D01*
X128654864Y-93157271D01*
X128666559Y-93235158D01*
X128682213Y-93293502D01*
X128702620Y-93341785D01*
X128728574Y-93389494D01*
X128739968Y-93408783D01*
X128870145Y-93563876D01*
X129035324Y-93654099D01*
X129242444Y-93683422D01*
X129291321Y-93682110D01*
X129494594Y-93639255D01*
X129655288Y-93534952D01*
X129775555Y-93367927D01*
X129793562Y-93331244D01*
X129814752Y-93279698D01*
X129830881Y-93221102D01*
X129842640Y-93145743D01*
X129850716Y-93043909D01*
X129855798Y-92905887D01*
X129858576Y-92721966D01*
X129859737Y-92482432D01*
X129859971Y-92177574D01*
X129859971Y-91153766D01*
X130178878Y-91153766D01*
X130497785Y-91153766D01*
X130497785Y-92312122D01*
X130497668Y-92491342D01*
X130496283Y-92811286D01*
X130492477Y-93069426D01*
X130485182Y-93274680D01*
X130473330Y-93435971D01*
X130455854Y-93562218D01*
X130431688Y-93662341D01*
X130399762Y-93745262D01*
X130359011Y-93819902D01*
X130308367Y-93895179D01*
X130208765Y-94009928D01*
X130010400Y-94161979D01*
X129772461Y-94275668D01*
X129756896Y-94281080D01*
X129496478Y-94331259D01*
X129232707Y-94312568D01*
X128981763Y-94228115D01*
X128759828Y-94081013D01*
X128621862Y-93959878D01*
X128621862Y-94132598D01*
X128621862Y-94305317D01*
X128302955Y-94305317D01*
X127984048Y-94305317D01*
X127984048Y-92729542D01*
X127984048Y-91153766D01*
X128300308Y-91153766D01*
X128616568Y-91153766D01*
X128628595Y-92194904D01*
G37*
G36*
X139692693Y-91166522D02*
G01*
X139921766Y-91255670D01*
X140111892Y-91397240D01*
X140215067Y-91501665D01*
X140215067Y-91327716D01*
X140215067Y-91153766D01*
X140533974Y-91153766D01*
X140852881Y-91153766D01*
X140852881Y-92729542D01*
X140852881Y-94305317D01*
X140533974Y-94305317D01*
X140215067Y-94305317D01*
X140215067Y-93281509D01*
X140214972Y-93063695D01*
X140214170Y-92804929D01*
X140211963Y-92604772D01*
X140207662Y-92453505D01*
X140200580Y-92341406D01*
X140190026Y-92258756D01*
X140175313Y-92195835D01*
X140155751Y-92142922D01*
X140130651Y-92090298D01*
X140078671Y-92008503D01*
X139941294Y-91877181D01*
X139772621Y-91787444D01*
X139597443Y-91754886D01*
X139557766Y-91756928D01*
X139376212Y-91805041D01*
X139209296Y-91904912D01*
X139085932Y-92040400D01*
X139084130Y-92043301D01*
X139058129Y-92087351D01*
X139037684Y-92132100D01*
X139022008Y-92186839D01*
X139010318Y-92260861D01*
X139001829Y-92363457D01*
X138995757Y-92503919D01*
X138991316Y-92691539D01*
X138987724Y-92935609D01*
X138984195Y-93245421D01*
X138972672Y-94305317D01*
X138653526Y-94305317D01*
X138334379Y-94305317D01*
X138346141Y-93114106D01*
X138347179Y-93012064D01*
X138351044Y-92693090D01*
X138355533Y-92438247D01*
X138361135Y-92239017D01*
X138368342Y-92086880D01*
X138377645Y-91973318D01*
X138389533Y-91889811D01*
X138404498Y-91827842D01*
X138423029Y-91778892D01*
X138518353Y-91605692D01*
X138701512Y-91394088D01*
X138931639Y-91240170D01*
X138940175Y-91236029D01*
X139185058Y-91154461D01*
X139441510Y-91132039D01*
X139692693Y-91166522D01*
G37*
G36*
X133591144Y-93067822D02*
G01*
X133586331Y-93222719D01*
X133577107Y-93336536D01*
X133562119Y-93422854D01*
X133540012Y-93495252D01*
X133509432Y-93567310D01*
X133399378Y-93767502D01*
X133204520Y-94001845D01*
X132963992Y-94176943D01*
X132676507Y-94293917D01*
X132502347Y-94322735D01*
X132278545Y-94325029D01*
X132047081Y-94299401D01*
X131839288Y-94247584D01*
X131666170Y-94161560D01*
X131478871Y-94017681D01*
X131313315Y-93840913D01*
X131191645Y-93651629D01*
X131183533Y-93634550D01*
X131108807Y-93415700D01*
X131058942Y-93150065D01*
X131034010Y-92857215D01*
X131034027Y-92784306D01*
X131671434Y-92784306D01*
X131689142Y-93027124D01*
X131717815Y-93194971D01*
X131780003Y-93383273D01*
X131872309Y-93518604D01*
X132000835Y-93612421D01*
X132017664Y-93620817D01*
X132218776Y-93681655D01*
X132427126Y-93682384D01*
X132622410Y-93625561D01*
X132784325Y-93513744D01*
X132857334Y-93422761D01*
X132916815Y-93293712D01*
X132953570Y-93126241D01*
X132970030Y-92908678D01*
X132968628Y-92629352D01*
X132962392Y-92463095D01*
X132951721Y-92310985D01*
X132935196Y-92203402D01*
X132910016Y-92123444D01*
X132873383Y-92054210D01*
X132865641Y-92042039D01*
X132729506Y-91891814D01*
X132554647Y-91803920D01*
X132336190Y-91775834D01*
X132130441Y-91799546D01*
X131949149Y-91879638D01*
X131809508Y-92018690D01*
X131751744Y-92137377D01*
X131704938Y-92320979D01*
X131677434Y-92542773D01*
X131671434Y-92784306D01*
X131034027Y-92784306D01*
X131034080Y-92556725D01*
X131059224Y-92268166D01*
X131109510Y-92011110D01*
X131185010Y-91805132D01*
X131247455Y-91700453D01*
X131406310Y-91508826D01*
X131600288Y-91339815D01*
X131804341Y-91217199D01*
X131934534Y-91172212D01*
X132164448Y-91135297D01*
X132414210Y-91133431D01*
X132656290Y-91166200D01*
X132863161Y-91233187D01*
X132920963Y-91261298D01*
X133150339Y-91406403D01*
X133327618Y-91587676D01*
X133470353Y-91822140D01*
X133593059Y-92071391D01*
X133593059Y-92728753D01*
X133592902Y-92858264D01*
X133592479Y-92908678D01*
X133591144Y-93067822D01*
G37*
G36*
X150005133Y-92900498D02*
G01*
X149985899Y-93189689D01*
X149943594Y-93426375D01*
X149874094Y-93624237D01*
X149773273Y-93796958D01*
X149637008Y-93958217D01*
X149570433Y-94022068D01*
X149322017Y-94195729D01*
X149041869Y-94304369D01*
X149010871Y-94311170D01*
X148835043Y-94327342D01*
X148626272Y-94320589D01*
X148415409Y-94293098D01*
X148233307Y-94247056D01*
X148182401Y-94226568D01*
X148010555Y-94125262D01*
X147837270Y-93983502D01*
X147685736Y-93822042D01*
X147579142Y-93661634D01*
X147525982Y-93524732D01*
X147472828Y-93295654D01*
X147438966Y-93027682D01*
X147425156Y-92740067D01*
X147425412Y-92729542D01*
X148056426Y-92729542D01*
X148073018Y-93024623D01*
X148126437Y-93268727D01*
X148218644Y-93453999D01*
X148351575Y-93584285D01*
X148527168Y-93663427D01*
X148605327Y-93683858D01*
X148712458Y-93700040D01*
X148810411Y-93688776D01*
X148938110Y-93648669D01*
X149098454Y-93561690D01*
X149241589Y-93413119D01*
X149329529Y-93228661D01*
X149350491Y-93107820D01*
X149363624Y-92932497D01*
X149367868Y-92731505D01*
X149363270Y-92529782D01*
X149349874Y-92352265D01*
X149327725Y-92223888D01*
X149317801Y-92191470D01*
X149220821Y-92009181D01*
X149075294Y-91872826D01*
X148895214Y-91789323D01*
X148694578Y-91765588D01*
X148487382Y-91808539D01*
X148325700Y-91895894D01*
X148202927Y-92025412D01*
X148119331Y-92202809D01*
X148071601Y-92435161D01*
X148056426Y-92729542D01*
X147425412Y-92729542D01*
X147432156Y-92452059D01*
X147460729Y-92182911D01*
X147511633Y-91951871D01*
X147544713Y-91865800D01*
X147657271Y-91677062D01*
X147812869Y-91493807D01*
X147992703Y-91336529D01*
X148177969Y-91225719D01*
X148264116Y-91192971D01*
X148508846Y-91141271D01*
X148775736Y-91131194D01*
X149036429Y-91162499D01*
X149262569Y-91234945D01*
X149350572Y-91281612D01*
X149502465Y-91381872D01*
X149626817Y-91486048D01*
X149690787Y-91553908D01*
X149815388Y-91721804D01*
X149905364Y-91910296D01*
X149964700Y-92132404D01*
X149997379Y-92401146D01*
X150007386Y-92729542D01*
X150007360Y-92731505D01*
X150005133Y-92900498D01*
G37*
G36*
X138614310Y-97771171D02*
G01*
X138607438Y-98016743D01*
X138594808Y-98239009D01*
X138576548Y-98420789D01*
X138552786Y-98544904D01*
X138528248Y-98617296D01*
X138402108Y-98848795D01*
X138222187Y-99039321D01*
X138000549Y-99178216D01*
X137749255Y-99254824D01*
X137462397Y-99265007D01*
X137186808Y-99201562D01*
X136925101Y-99064504D01*
X136767926Y-98957138D01*
X136756268Y-99098067D01*
X136744610Y-99238995D01*
X136435082Y-99249892D01*
X136125555Y-99260789D01*
X136125555Y-97681979D01*
X136782128Y-97681979D01*
X136782338Y-97758345D01*
X136787729Y-97996891D01*
X136803125Y-98176192D01*
X136832149Y-98308522D01*
X136878421Y-98406154D01*
X136945564Y-98481363D01*
X137037199Y-98546423D01*
X137171668Y-98599902D01*
X137363664Y-98617422D01*
X137468340Y-98613825D01*
X137607678Y-98592744D01*
X137710131Y-98545760D01*
X137799309Y-98464590D01*
X137808675Y-98453880D01*
X137871725Y-98361824D01*
X137916098Y-98248402D01*
X137944474Y-98100300D01*
X137959535Y-97904207D01*
X137963960Y-97646812D01*
X137963904Y-97596954D01*
X137961624Y-97405443D01*
X137954330Y-97267861D01*
X137939740Y-97166861D01*
X137915572Y-97085095D01*
X137879543Y-97005217D01*
X137796966Y-96885460D01*
X137652854Y-96773892D01*
X137482582Y-96713720D01*
X137302109Y-96705159D01*
X137127392Y-96748429D01*
X136974389Y-96843745D01*
X136859059Y-96991325D01*
X136839910Y-97030411D01*
X136814688Y-97099997D01*
X136797956Y-97185063D01*
X136788058Y-97300493D01*
X136783334Y-97461171D01*
X136782128Y-97681979D01*
X136125555Y-97681979D01*
X136125555Y-97045683D01*
X136125555Y-94830576D01*
X136444462Y-94830576D01*
X136763369Y-94830576D01*
X136763369Y-95615926D01*
X136763369Y-96401277D01*
X136949875Y-96275768D01*
X137067929Y-96201562D01*
X137253217Y-96115358D01*
X137436796Y-96076804D01*
X137646216Y-96078081D01*
X137842501Y-96112409D01*
X138089043Y-96214414D01*
X138298952Y-96371986D01*
X138461439Y-96576431D01*
X138565713Y-96819054D01*
X138581636Y-96899401D01*
X138599086Y-97066407D01*
X138610262Y-97278823D01*
X138615294Y-97519471D01*
X138614796Y-97646812D01*
X138614310Y-97771171D01*
G37*
G36*
X125949271Y-97546473D02*
G01*
X125951002Y-97593437D01*
X125947160Y-97949318D01*
X125908537Y-98248791D01*
X125832096Y-98502352D01*
X125714799Y-98720493D01*
X125553610Y-98913709D01*
X125376197Y-99060877D01*
X125132264Y-99183890D01*
X124843157Y-99253326D01*
X124666842Y-99268492D01*
X124381797Y-99257205D01*
X124110861Y-99206237D01*
X123880865Y-99119325D01*
X123826834Y-99086278D01*
X123719969Y-99007043D01*
X123610016Y-98913196D01*
X123446632Y-98762595D01*
X123666698Y-98578712D01*
X123688361Y-98560697D01*
X123792727Y-98476466D01*
X123871245Y-98417218D01*
X123908312Y-98394830D01*
X123932562Y-98405666D01*
X124004209Y-98449731D01*
X124101973Y-98516146D01*
X124178554Y-98566779D01*
X124276295Y-98613386D01*
X124387897Y-98638136D01*
X124543912Y-98650302D01*
X124644255Y-98653620D01*
X124772736Y-98647779D01*
X124874810Y-98622963D01*
X124980592Y-98573906D01*
X125059009Y-98522765D01*
X125194144Y-98381959D01*
X125286216Y-98210575D01*
X125320237Y-98032503D01*
X125320237Y-97907090D01*
X124344757Y-97907090D01*
X123369277Y-97907090D01*
X123369561Y-97653840D01*
X123375542Y-97446308D01*
X123397850Y-97267781D01*
X124044610Y-97267781D01*
X124044610Y-97381831D01*
X124682423Y-97381831D01*
X125320237Y-97381831D01*
X125320237Y-97277226D01*
X125316553Y-97239412D01*
X125286414Y-97126556D01*
X125235821Y-97005217D01*
X125192105Y-96933175D01*
X125053297Y-96796404D01*
X124877989Y-96708079D01*
X124684107Y-96672613D01*
X124489578Y-96694419D01*
X124312331Y-96777910D01*
X124263116Y-96818578D01*
X124152864Y-96954371D01*
X124074458Y-97114298D01*
X124044610Y-97267781D01*
X123397850Y-97267781D01*
X123416569Y-97117969D01*
X123499034Y-96841674D01*
X123625910Y-96608839D01*
X123800171Y-96410881D01*
X123866831Y-96352494D01*
X124085849Y-96205633D01*
X124325646Y-96116853D01*
X124607386Y-96077410D01*
X124847735Y-96080636D01*
X125101172Y-96135960D01*
X125328689Y-96253409D01*
X125546308Y-96439158D01*
X125588356Y-96483071D01*
X125723744Y-96648621D01*
X125821431Y-96820975D01*
X125887514Y-97016894D01*
X125928094Y-97253140D01*
X125929833Y-97277226D01*
X125949271Y-97546473D01*
G37*
G36*
X143956439Y-92616986D02*
G01*
X143955829Y-92927861D01*
X143908392Y-93288610D01*
X143809165Y-93598851D01*
X143659165Y-93856940D01*
X143459410Y-94061232D01*
X143210915Y-94210084D01*
X142914697Y-94301852D01*
X142835387Y-94315684D01*
X142498804Y-94332664D01*
X142176584Y-94277206D01*
X141860610Y-94148128D01*
X141835128Y-94134261D01*
X141719572Y-94062109D01*
X141609346Y-93980998D01*
X141518978Y-93903187D01*
X141462991Y-93840938D01*
X141455912Y-93806512D01*
X141457722Y-93805114D01*
X141499311Y-93771022D01*
X141580593Y-93703471D01*
X141686030Y-93615370D01*
X141900123Y-93436076D01*
X142031384Y-93536193D01*
X142074031Y-93566901D01*
X142300499Y-93679210D01*
X142542013Y-93724447D01*
X142784700Y-93701577D01*
X143014691Y-93609566D01*
X143146418Y-93503835D01*
X143259013Y-93326972D01*
X143319564Y-93099410D01*
X143338980Y-92954653D01*
X142353839Y-92954653D01*
X141368698Y-92954653D01*
X141385313Y-92532570D01*
X141394933Y-92401255D01*
X142016163Y-92401255D01*
X142042627Y-92409158D01*
X142133052Y-92417240D01*
X142276178Y-92423649D01*
X142460003Y-92427872D01*
X142672527Y-92429394D01*
X142735815Y-92429391D01*
X142955349Y-92428965D01*
X143112680Y-92426881D01*
X143218149Y-92421806D01*
X143282100Y-92412410D01*
X143314876Y-92397361D01*
X143326820Y-92375327D01*
X143328276Y-92344978D01*
X143316507Y-92264304D01*
X143260920Y-92117470D01*
X143173985Y-91971946D01*
X143071631Y-91857958D01*
X143055372Y-91844868D01*
X142887619Y-91758716D01*
X142696629Y-91728813D01*
X142502760Y-91752938D01*
X142326373Y-91828868D01*
X142187826Y-91954383D01*
X142140447Y-92030925D01*
X142080378Y-92161899D01*
X142034656Y-92296519D01*
X142016163Y-92401255D01*
X141394933Y-92401255D01*
X141403443Y-92285101D01*
X141450673Y-92028398D01*
X141531172Y-91814806D01*
X141651321Y-91628392D01*
X141817500Y-91453224D01*
X142029037Y-91297154D01*
X142297033Y-91179365D01*
X142581791Y-91126291D01*
X142870943Y-91138637D01*
X143152121Y-91217106D01*
X143412956Y-91362404D01*
X143545908Y-91474015D01*
X143715336Y-91683650D01*
X143838553Y-91940143D01*
X143918080Y-92249315D01*
X143928060Y-92344978D01*
X143956439Y-92616986D01*
G37*
G36*
X135642798Y-91166477D02*
G01*
X135897320Y-91247414D01*
X136112356Y-91370758D01*
X136275820Y-91535169D01*
X136286159Y-91549777D01*
X136396145Y-91771312D01*
X136444287Y-92017013D01*
X136429136Y-92267760D01*
X136349244Y-92504431D01*
X136298595Y-92592393D01*
X136186022Y-92724993D01*
X136037797Y-92828231D01*
X135844282Y-92906651D01*
X135595842Y-92964797D01*
X135282840Y-93007211D01*
X135270613Y-93008483D01*
X135032960Y-93037143D01*
X134860220Y-93069083D01*
X134742714Y-93108939D01*
X134670763Y-93161347D01*
X134634690Y-93230940D01*
X134624816Y-93322354D01*
X134631483Y-93411260D01*
X134679556Y-93533935D01*
X134782308Y-93623028D01*
X134949468Y-93689547D01*
X135221982Y-93731192D01*
X135506011Y-93705424D01*
X135786201Y-93615036D01*
X136047950Y-93463037D01*
X136224942Y-93333113D01*
X136440908Y-93551357D01*
X136656874Y-93769600D01*
X136513150Y-93889464D01*
X136444010Y-93941922D01*
X136262257Y-94054065D01*
X136050982Y-94160704D01*
X135839362Y-94247809D01*
X135656574Y-94301350D01*
X135562652Y-94315825D01*
X135331678Y-94326967D01*
X135080027Y-94314093D01*
X134838951Y-94279531D01*
X134639702Y-94225609D01*
X134593607Y-94207107D01*
X134374838Y-94083741D01*
X134189897Y-93921349D01*
X134059322Y-93737215D01*
X134039380Y-93691047D01*
X133999618Y-93521806D01*
X133986974Y-93323578D01*
X134002007Y-93127030D01*
X134045270Y-92962827D01*
X134054676Y-92940948D01*
X134157840Y-92763727D01*
X134296641Y-92628124D01*
X134480152Y-92529076D01*
X134717447Y-92461522D01*
X135017599Y-92420400D01*
X135175338Y-92405329D01*
X135393524Y-92377955D01*
X135552899Y-92346163D01*
X135663727Y-92306908D01*
X135736271Y-92257141D01*
X135780795Y-92193814D01*
X135807417Y-92122117D01*
X135803740Y-92049595D01*
X135762319Y-91949944D01*
X135696467Y-91857624D01*
X135560423Y-91768638D01*
X135381557Y-91725611D01*
X135169958Y-91729211D01*
X134935715Y-91780104D01*
X134688917Y-91878959D01*
X134434110Y-92004526D01*
X134243912Y-91784978D01*
X134166245Y-91693195D01*
X134105640Y-91604334D01*
X134094226Y-91536706D01*
X134136616Y-91476883D01*
X134237423Y-91411437D01*
X134401260Y-91326939D01*
X134471598Y-91293665D01*
X134763190Y-91191542D01*
X135063645Y-91137198D01*
X135360877Y-91129291D01*
X135642798Y-91166477D01*
G37*
G36*
X122574311Y-92682264D02*
G01*
X122557993Y-93031866D01*
X122495869Y-93364999D01*
X122388213Y-93660279D01*
X122260257Y-93862480D01*
X122058069Y-94060646D01*
X121809434Y-94210961D01*
X121525930Y-94304772D01*
X121505298Y-94308822D01*
X121297516Y-94327188D01*
X121058059Y-94318128D01*
X120819960Y-94284403D01*
X120616252Y-94228773D01*
X120521195Y-94185630D01*
X120364135Y-94091927D01*
X120228218Y-93987331D01*
X120048893Y-93823978D01*
X120214795Y-93680083D01*
X120307983Y-93599446D01*
X120408980Y-93516630D01*
X120478212Y-93474028D01*
X120530882Y-93466622D01*
X120582192Y-93489395D01*
X120647348Y-93537329D01*
X120691532Y-93568799D01*
X120904186Y-93672853D01*
X121135482Y-93722077D01*
X121365122Y-93714077D01*
X121572807Y-93646460D01*
X121711027Y-93541441D01*
X121829458Y-93391143D01*
X121904406Y-93225496D01*
X121920607Y-93169722D01*
X121939645Y-93100891D01*
X121945348Y-93048477D01*
X121930004Y-93010257D01*
X121885903Y-92984012D01*
X121805334Y-92967519D01*
X121680584Y-92958558D01*
X121503943Y-92954908D01*
X121267700Y-92954346D01*
X120964144Y-92954653D01*
X119984712Y-92954653D01*
X119998928Y-92513811D01*
X120002279Y-92429394D01*
X120622078Y-92429394D01*
X121282827Y-92429394D01*
X121470974Y-92428118D01*
X121659785Y-92423869D01*
X121809467Y-92417177D01*
X121908054Y-92408597D01*
X121943576Y-92398685D01*
X121942845Y-92380385D01*
X121916031Y-92255491D01*
X121860610Y-92111732D01*
X121790295Y-91980058D01*
X121718801Y-91891416D01*
X121573516Y-91794385D01*
X121376647Y-91729341D01*
X121181274Y-91729151D01*
X120999072Y-91789468D01*
X120841714Y-91905945D01*
X120720875Y-92074237D01*
X120648230Y-92289996D01*
X120622078Y-92429394D01*
X120002279Y-92429394D01*
X120005248Y-92354578D01*
X120017112Y-92193999D01*
X120036135Y-92072730D01*
X120065801Y-91970394D01*
X120109594Y-91866617D01*
X120112307Y-91860857D01*
X120268574Y-91614365D01*
X120481863Y-91402158D01*
X120736844Y-91239559D01*
X120854873Y-91186987D01*
X120966308Y-91154523D01*
X121094673Y-91139156D01*
X121268911Y-91135208D01*
X121316321Y-91135327D01*
X121472008Y-91140590D01*
X121590713Y-91158452D01*
X121702880Y-91195482D01*
X121838952Y-91258252D01*
X121954492Y-91321103D01*
X122137436Y-91459828D01*
X122284116Y-91637756D01*
X122411188Y-91872774D01*
X122468429Y-92019195D01*
X122544548Y-92337579D01*
X122549824Y-92398685D01*
X122574311Y-92682264D01*
G37*
G36*
X143943989Y-98446945D02*
G01*
X143879511Y-98684832D01*
X143754432Y-98892084D01*
X143574625Y-99060883D01*
X143345966Y-99183412D01*
X143074327Y-99251853D01*
X142872023Y-99269154D01*
X142589716Y-99254930D01*
X142351485Y-99192184D01*
X142165074Y-99082362D01*
X142053472Y-98988455D01*
X142053472Y-99124622D01*
X142053472Y-99260789D01*
X141743945Y-99249892D01*
X141434418Y-99238995D01*
X141434418Y-98038404D01*
X141434433Y-97940525D01*
X141434503Y-97907090D01*
X142042621Y-97907090D01*
X142065877Y-98156127D01*
X142077785Y-98254376D01*
X142122782Y-98432964D01*
X142195941Y-98552427D01*
X142301747Y-98621615D01*
X142373150Y-98638961D01*
X142518182Y-98652863D01*
X142692670Y-98655367D01*
X142870681Y-98647116D01*
X143026280Y-98628757D01*
X143133532Y-98600934D01*
X143203018Y-98561005D01*
X143301204Y-98448317D01*
X143341284Y-98306993D01*
X143315187Y-98156771D01*
X143292536Y-98110995D01*
X143223264Y-98029634D01*
X143118894Y-97971546D01*
X142969658Y-97933748D01*
X142765787Y-97913257D01*
X142497509Y-97907090D01*
X142042621Y-97907090D01*
X141434503Y-97907090D01*
X141435150Y-97597577D01*
X141437925Y-97319005D01*
X141444105Y-97096299D01*
X141455038Y-96920949D01*
X141472071Y-96784446D01*
X141496551Y-96678279D01*
X141529825Y-96593938D01*
X141573240Y-96522915D01*
X141628144Y-96456699D01*
X141695883Y-96386781D01*
X141720344Y-96362919D01*
X141857988Y-96252364D01*
X142011317Y-96173808D01*
X142194793Y-96122982D01*
X142422882Y-96095617D01*
X142710045Y-96087444D01*
X142902675Y-96089063D01*
X143052380Y-96095960D01*
X143164409Y-96110741D01*
X143257976Y-96136006D01*
X143352296Y-96174355D01*
X143419508Y-96208535D01*
X143558972Y-96297874D01*
X143670332Y-96391271D01*
X143796339Y-96521278D01*
X143684655Y-96612933D01*
X143666137Y-96627955D01*
X143553021Y-96715739D01*
X143436532Y-96801492D01*
X143300094Y-96898397D01*
X143201508Y-96807031D01*
X143130923Y-96757563D01*
X142969788Y-96697704D01*
X142771893Y-96667664D01*
X142558248Y-96669913D01*
X142349865Y-96706919D01*
X142231530Y-96753037D01*
X142142624Y-96831425D01*
X142089947Y-96952735D01*
X142063237Y-97132194D01*
X142043834Y-97373920D01*
X142658328Y-97387739D01*
X142849134Y-97392308D01*
X143027930Y-97398474D01*
X143157800Y-97407304D01*
X143253158Y-97421016D01*
X143328415Y-97441829D01*
X143397985Y-97471961D01*
X143476281Y-97513630D01*
X143489798Y-97521190D01*
X143698852Y-97677676D01*
X143844956Y-97874601D01*
X143929461Y-98113756D01*
X143941992Y-98186240D01*
X143942917Y-98306993D01*
X143943989Y-98446945D01*
G37*
G36*
X131292649Y-98293139D02*
G01*
X131287893Y-98406224D01*
X131230326Y-98663763D01*
X131111202Y-98882417D01*
X130935133Y-99057046D01*
X130706730Y-99182512D01*
X130430605Y-99253676D01*
X130210769Y-99272022D01*
X129938288Y-99254586D01*
X129704598Y-99190634D01*
X129521352Y-99082362D01*
X129409750Y-98988455D01*
X129409750Y-99124622D01*
X129409750Y-99260789D01*
X129100223Y-99249892D01*
X128790695Y-99238995D01*
X128780755Y-98096833D01*
X128779354Y-97907090D01*
X129399667Y-97907090D01*
X129417851Y-98161235D01*
X129437453Y-98329426D01*
X129479307Y-98471236D01*
X129547646Y-98563496D01*
X129649066Y-98619271D01*
X129718341Y-98635864D01*
X129866287Y-98651234D01*
X130042696Y-98655102D01*
X130221843Y-98647975D01*
X130378003Y-98630360D01*
X130485452Y-98602766D01*
X130590628Y-98537445D01*
X130662992Y-98426169D01*
X130685378Y-98265982D01*
X130666953Y-98145319D01*
X130607299Y-98052541D01*
X130499936Y-97985056D01*
X130338384Y-97940159D01*
X130116162Y-97915143D01*
X129826791Y-97907299D01*
X129399667Y-97907090D01*
X128779354Y-97907090D01*
X128779001Y-97859198D01*
X128778550Y-97533610D01*
X128782074Y-97269097D01*
X128790791Y-97057071D01*
X128805915Y-96888949D01*
X128828663Y-96756145D01*
X128860252Y-96650074D01*
X128901897Y-96562151D01*
X128954815Y-96483789D01*
X129020221Y-96406405D01*
X129030922Y-96394723D01*
X129165232Y-96275148D01*
X129321220Y-96188768D01*
X129511716Y-96131622D01*
X129749554Y-96099747D01*
X130047564Y-96089182D01*
X130246626Y-96090051D01*
X130399759Y-96096045D01*
X130512443Y-96109350D01*
X130602383Y-96132104D01*
X130687284Y-96166445D01*
X130698760Y-96171890D01*
X130808613Y-96233985D01*
X130925002Y-96313243D01*
X131030148Y-96395821D01*
X131106273Y-96467874D01*
X131135599Y-96515557D01*
X131133014Y-96521275D01*
X131089589Y-96564668D01*
X131003684Y-96635787D01*
X130889741Y-96722474D01*
X130846055Y-96754360D01*
X130737622Y-96829450D01*
X130669624Y-96865453D01*
X130628071Y-96868192D01*
X130598973Y-96843489D01*
X130499179Y-96763404D01*
X130345949Y-96706335D01*
X130161110Y-96675427D01*
X129964450Y-96671081D01*
X129775758Y-96693693D01*
X129614823Y-96743663D01*
X129501434Y-96821389D01*
X129481624Y-96847892D01*
X129439057Y-96962252D01*
X129416402Y-97140085D01*
X129401008Y-97381831D01*
X129924675Y-97381831D01*
X130020635Y-97382452D01*
X130335587Y-97396714D01*
X130589531Y-97432578D01*
X130791997Y-97493697D01*
X130952513Y-97583723D01*
X131080612Y-97706306D01*
X131185822Y-97865101D01*
X131241343Y-97980053D01*
X131281069Y-98122015D01*
X131290811Y-98265982D01*
X131292649Y-98293139D01*
G37*
G36*
X132318465Y-97193300D02*
G01*
X132348296Y-97301772D01*
X132421342Y-97561758D01*
X132487963Y-97791089D01*
X132545583Y-97981395D01*
X132591628Y-98124302D01*
X132623523Y-98211440D01*
X132638692Y-98234438D01*
X132640796Y-98229502D01*
X132662749Y-98167445D01*
X132703645Y-98045535D01*
X132760404Y-97873171D01*
X132829944Y-97659751D01*
X132909185Y-97414675D01*
X132995046Y-97147341D01*
X133328354Y-96106204D01*
X133562957Y-96106204D01*
X133797559Y-96106204D01*
X134144117Y-97175017D01*
X134177075Y-97276181D01*
X134262606Y-97534124D01*
X134340583Y-97762834D01*
X134407981Y-97953850D01*
X134461776Y-98098715D01*
X134498943Y-98188969D01*
X134516456Y-98216155D01*
X134517446Y-98214708D01*
X134535704Y-98164374D01*
X134570114Y-98052192D01*
X134617948Y-97887687D01*
X134676476Y-97680383D01*
X134742967Y-97439806D01*
X134814692Y-97175480D01*
X134823540Y-97142615D01*
X134894781Y-96880516D01*
X134960438Y-96643203D01*
X135017782Y-96440225D01*
X135064086Y-96281132D01*
X135096620Y-96175472D01*
X135112655Y-96132795D01*
X135122332Y-96127684D01*
X135192155Y-96117222D01*
X135310843Y-96112330D01*
X135459410Y-96114036D01*
X135780656Y-96124963D01*
X135296036Y-97644461D01*
X135238583Y-97824552D01*
X135138614Y-98137686D01*
X135046732Y-98425199D01*
X134965385Y-98679447D01*
X134897022Y-98892782D01*
X134844093Y-99057559D01*
X134809046Y-99166133D01*
X134794330Y-99210856D01*
X134773137Y-99230227D01*
X134680367Y-99250899D01*
X134514758Y-99257755D01*
X134429508Y-99256813D01*
X134316301Y-99248396D01*
X134251661Y-99228091D01*
X134218426Y-99192097D01*
X134217839Y-99190903D01*
X134197475Y-99134695D01*
X134159369Y-99017052D01*
X134106608Y-98847978D01*
X134042281Y-98637476D01*
X133969475Y-98395549D01*
X133891277Y-98132201D01*
X133884446Y-98109059D01*
X133807391Y-97849814D01*
X133736659Y-97615021D01*
X133675190Y-97414196D01*
X133625923Y-97256857D01*
X133591798Y-97152518D01*
X133575754Y-97110695D01*
X133572147Y-97113027D01*
X133549154Y-97165336D01*
X133508927Y-97277956D01*
X133454257Y-97442371D01*
X133387936Y-97650064D01*
X133312754Y-97892516D01*
X133231502Y-98161212D01*
X132909470Y-99238995D01*
X132643766Y-99249975D01*
X132526829Y-99253138D01*
X132428439Y-99247967D01*
X132373015Y-99229266D01*
X132342693Y-99193697D01*
X132334215Y-99172424D01*
X132304107Y-99086100D01*
X132256378Y-98943732D01*
X132193948Y-98754418D01*
X132119735Y-98527259D01*
X132036660Y-98271352D01*
X131947641Y-97995798D01*
X131855598Y-97709695D01*
X131763450Y-97422143D01*
X131674117Y-97142240D01*
X131590518Y-96879087D01*
X131515572Y-96641781D01*
X131452199Y-96439423D01*
X131403318Y-96281112D01*
X131371849Y-96175946D01*
X131360710Y-96133025D01*
X131367975Y-96127434D01*
X131430768Y-96116556D01*
X131544084Y-96109021D01*
X131690997Y-96106204D01*
X132021284Y-96106204D01*
X132318465Y-97193300D01*
G37*
G36*
X146893354Y-95207278D02*
G01*
X146893354Y-99260789D01*
X146583827Y-99249892D01*
X146274299Y-99238995D01*
X146255540Y-98162997D01*
X146251565Y-97941450D01*
X146246055Y-97673728D01*
X146240279Y-97466075D01*
X146233511Y-97309597D01*
X146225026Y-97195398D01*
X146214100Y-97114583D01*
X146200008Y-97058255D01*
X146182025Y-97017521D01*
X146159426Y-96983484D01*
X146096019Y-96905120D01*
X145971093Y-96797001D01*
X145826214Y-96741145D01*
X145636485Y-96725258D01*
X145517444Y-96730836D01*
X145350500Y-96771933D01*
X145221416Y-96861744D01*
X145111227Y-97010569D01*
X145100742Y-97029145D01*
X145080768Y-97073214D01*
X145065109Y-97128151D01*
X145053094Y-97203122D01*
X145044052Y-97307294D01*
X145037311Y-97449834D01*
X145032201Y-97639909D01*
X145028051Y-97886687D01*
X145024188Y-98199333D01*
X145012186Y-99260704D01*
X144705281Y-99249850D01*
X144398376Y-99238995D01*
X144398376Y-98057164D01*
X144398376Y-96875332D01*
X144503469Y-96661323D01*
X144557661Y-96563540D01*
X144643937Y-96438041D01*
X144724210Y-96350003D01*
X144826454Y-96272608D01*
X145075269Y-96143530D01*
X145338118Y-96079257D01*
X145603139Y-96080382D01*
X145858473Y-96147504D01*
X146092257Y-96281219D01*
X146255540Y-96405856D01*
X146255540Y-95205513D01*
X146255328Y-95036132D01*
X146254000Y-94758117D01*
X146251590Y-94510737D01*
X146248255Y-94302872D01*
X146244154Y-94143402D01*
X146239442Y-94041208D01*
X146234278Y-94005170D01*
X146227523Y-94007012D01*
X146174258Y-94037810D01*
X146093583Y-94094537D01*
X145977967Y-94175679D01*
X145814200Y-94262470D01*
X145647830Y-94307366D01*
X145448893Y-94320888D01*
X145236468Y-94302571D01*
X144980892Y-94222007D01*
X144761071Y-94083141D01*
X144586415Y-93892339D01*
X144466333Y-93655969D01*
X144456303Y-93622074D01*
X144431026Y-93478883D01*
X144412334Y-93283904D01*
X144400228Y-93052953D01*
X144394711Y-92801846D01*
X144395094Y-92710783D01*
X145036777Y-92710783D01*
X145037383Y-92797107D01*
X145050016Y-93065029D01*
X145081145Y-93271068D01*
X145133584Y-93424354D01*
X145210145Y-93534018D01*
X145313644Y-93609191D01*
X145332377Y-93618156D01*
X145455724Y-93659856D01*
X145588941Y-93685427D01*
X145701664Y-93690355D01*
X145887355Y-93657626D01*
X146033564Y-93567722D01*
X146141499Y-93418643D01*
X146212372Y-93208388D01*
X146247393Y-92934956D01*
X146247772Y-92596348D01*
X146226727Y-92347372D01*
X146178358Y-92124141D01*
X146099712Y-91961217D01*
X145986227Y-91852454D01*
X145833339Y-91791705D01*
X145636485Y-91772821D01*
X145491447Y-91781313D01*
X145334785Y-91826837D01*
X145215103Y-91921221D01*
X145114026Y-92075096D01*
X145108281Y-92086263D01*
X145077211Y-92158822D01*
X145056503Y-92241278D01*
X145044180Y-92349908D01*
X145038264Y-92500984D01*
X145036777Y-92710783D01*
X144395094Y-92710783D01*
X144395785Y-92546400D01*
X144403454Y-92302433D01*
X144417718Y-92085761D01*
X144438581Y-91912202D01*
X144466046Y-91797571D01*
X144519710Y-91679837D01*
X144672299Y-91464355D01*
X144867846Y-91299328D01*
X145095167Y-91187887D01*
X145343075Y-91133164D01*
X145600387Y-91138290D01*
X145855917Y-91206395D01*
X146098480Y-91340611D01*
X146255540Y-91454385D01*
X146255540Y-91304076D01*
X146255540Y-91153766D01*
X146574447Y-91153766D01*
X146893354Y-91153766D01*
X146893354Y-92596348D01*
X146893354Y-95207278D01*
G37*
G36*
X135387078Y-67704946D02*
G01*
X135694288Y-67705784D01*
X135940879Y-67707541D01*
X136133954Y-67710516D01*
X136280618Y-67715007D01*
X136387974Y-67721314D01*
X136463126Y-67729736D01*
X136513178Y-67740572D01*
X136545234Y-67754122D01*
X136566397Y-67770683D01*
X136577339Y-67786566D01*
X136601698Y-67848045D01*
X136631947Y-67954901D01*
X136669127Y-68111911D01*
X136714281Y-68323856D01*
X136768450Y-68595513D01*
X136832677Y-68931662D01*
X136908004Y-69337079D01*
X136915808Y-69379491D01*
X136985187Y-69753955D01*
X137043380Y-70061871D01*
X137091897Y-70309936D01*
X137132250Y-70504843D01*
X137165949Y-70653287D01*
X137194506Y-70761963D01*
X137219431Y-70837566D01*
X137242235Y-70886791D01*
X137264429Y-70916331D01*
X137281557Y-70929105D01*
X137365927Y-70975159D01*
X137504375Y-71041175D01*
X137685745Y-71122585D01*
X137898879Y-71214821D01*
X138132620Y-71313314D01*
X138375810Y-71413496D01*
X138617293Y-71510800D01*
X138845909Y-71600656D01*
X139050503Y-71678496D01*
X139219917Y-71739752D01*
X139342994Y-71779856D01*
X139408576Y-71794239D01*
X139430645Y-71789326D01*
X139514108Y-71749840D01*
X139651224Y-71670090D01*
X139843338Y-71549220D01*
X140091796Y-71386372D01*
X140397943Y-71180689D01*
X140763126Y-70931314D01*
X140815483Y-70895383D01*
X141102411Y-70700106D01*
X141365401Y-70523838D01*
X141598209Y-70370601D01*
X141794593Y-70244416D01*
X141948310Y-70149305D01*
X142053115Y-70089289D01*
X142102767Y-70068390D01*
X142117079Y-70072877D01*
X142184708Y-70119055D01*
X142293334Y-70209700D01*
X142436135Y-70337948D01*
X142606293Y-70496939D01*
X142796988Y-70679810D01*
X143001399Y-70879701D01*
X143212707Y-71089749D01*
X143424093Y-71303093D01*
X143628735Y-71512871D01*
X143819815Y-71712221D01*
X143990513Y-71894282D01*
X144134008Y-72052192D01*
X144243482Y-72179089D01*
X144312114Y-72268112D01*
X144333084Y-72312399D01*
X144329697Y-72320504D01*
X144292492Y-72384536D01*
X144218741Y-72501055D01*
X144113108Y-72663012D01*
X143980259Y-72863357D01*
X143824858Y-73095040D01*
X143651569Y-73351012D01*
X143465058Y-73624222D01*
X143404719Y-73712431D01*
X143222824Y-73980594D01*
X143056434Y-74229226D01*
X142910096Y-74451309D01*
X142788361Y-74639826D01*
X142695776Y-74787759D01*
X142636889Y-74888091D01*
X142616249Y-74933804D01*
X142616367Y-74936137D01*
X142633682Y-74997813D01*
X142677203Y-75116323D01*
X142742375Y-75281155D01*
X142824642Y-75481794D01*
X142919449Y-75707728D01*
X143022240Y-75948443D01*
X143128460Y-76193426D01*
X143233554Y-76432164D01*
X143332966Y-76654143D01*
X143422141Y-76848850D01*
X143496523Y-77005773D01*
X143551557Y-77114397D01*
X143582688Y-77164209D01*
X143616374Y-77182152D01*
X143708574Y-77211481D01*
X143859431Y-77249216D01*
X144072034Y-77296030D01*
X144349475Y-77352599D01*
X144694842Y-77419596D01*
X145111227Y-77497696D01*
X145206170Y-77515339D01*
X145523381Y-77575187D01*
X145815895Y-77631729D01*
X146075522Y-77683293D01*
X146294071Y-77728204D01*
X146463351Y-77764788D01*
X146575173Y-77791372D01*
X146621345Y-77806283D01*
X146627850Y-77820946D01*
X146639479Y-77901624D01*
X146649357Y-78042781D01*
X146657490Y-78234743D01*
X146663879Y-78467836D01*
X146668530Y-78732383D01*
X146671445Y-79018712D01*
X146672629Y-79317146D01*
X146672084Y-79618011D01*
X146669814Y-79911632D01*
X146665823Y-80188335D01*
X146660114Y-80438444D01*
X146652691Y-80652285D01*
X146643558Y-80820183D01*
X146632718Y-80932462D01*
X146620175Y-80979450D01*
X146617039Y-80981297D01*
X146558181Y-80999129D01*
X146435321Y-81028382D01*
X146256793Y-81067318D01*
X146030927Y-81114203D01*
X145766056Y-81167300D01*
X145470511Y-81224874D01*
X145152624Y-81285189D01*
X145096938Y-81295635D01*
X144781498Y-81355444D01*
X144489225Y-81411909D01*
X144228559Y-81463326D01*
X144007938Y-81507991D01*
X143835801Y-81544201D01*
X143720586Y-81570250D01*
X143670733Y-81584435D01*
X143653160Y-81608960D01*
X143609011Y-81695565D01*
X143544895Y-81834649D01*
X143464902Y-82016234D01*
X143373119Y-82230342D01*
X143273636Y-82466994D01*
X143170543Y-82716213D01*
X143067928Y-82968020D01*
X142969881Y-83212436D01*
X142880492Y-83439484D01*
X142803848Y-83639186D01*
X142744040Y-83801563D01*
X142705156Y-83916637D01*
X142691286Y-83974430D01*
X142691878Y-83977600D01*
X142719165Y-84030736D01*
X142783796Y-84137235D01*
X142881131Y-84289984D01*
X143006529Y-84481871D01*
X143155350Y-84705783D01*
X143322954Y-84954608D01*
X143504700Y-85221232D01*
X143533783Y-85263688D01*
X143714363Y-85528892D01*
X143880669Y-85775794D01*
X144027957Y-85997164D01*
X144151487Y-86185771D01*
X144246514Y-86334386D01*
X144308299Y-86435778D01*
X144332097Y-86482718D01*
X144323838Y-86512918D01*
X144286334Y-86569807D01*
X144215765Y-86655868D01*
X144108614Y-86774895D01*
X143961365Y-86930679D01*
X143770501Y-87127015D01*
X143532505Y-87367695D01*
X143243861Y-87656512D01*
X143003105Y-87895972D01*
X142764432Y-88131659D01*
X142569748Y-88321398D01*
X142414482Y-88469362D01*
X142294062Y-88579724D01*
X142203917Y-88656658D01*
X142139476Y-88704336D01*
X142096167Y-88726932D01*
X142069418Y-88728619D01*
X142069213Y-88728542D01*
X142021872Y-88701326D01*
X141920226Y-88636507D01*
X141771666Y-88539006D01*
X141583583Y-88413747D01*
X141363367Y-88265649D01*
X141118410Y-88099636D01*
X140856103Y-87920630D01*
X140763868Y-87857605D01*
X140452093Y-87646803D01*
X140184608Y-87469655D01*
X139964701Y-87328247D01*
X139795660Y-87224660D01*
X139680772Y-87160980D01*
X139623325Y-87139291D01*
X139590141Y-87146213D01*
X139492138Y-87182818D01*
X139350200Y-87245559D01*
X139177750Y-87328389D01*
X138988215Y-87425264D01*
X138817354Y-87514369D01*
X138656602Y-87595007D01*
X138543676Y-87646002D01*
X138468789Y-87671217D01*
X138422151Y-87674513D01*
X138393976Y-87659754D01*
X138381762Y-87639493D01*
X138341319Y-87555065D01*
X138277516Y-87412436D01*
X138193115Y-87218310D01*
X138090879Y-86979390D01*
X137973567Y-86702379D01*
X137843942Y-86393981D01*
X137704764Y-86060898D01*
X137558796Y-85709835D01*
X137408798Y-85347494D01*
X137257532Y-84980578D01*
X137107760Y-84615791D01*
X136962243Y-84259836D01*
X136823742Y-83919417D01*
X136695018Y-83601236D01*
X136578834Y-83311997D01*
X136477950Y-83058403D01*
X136395128Y-82847158D01*
X136333129Y-82684964D01*
X136294715Y-82578525D01*
X136282647Y-82534544D01*
X136304765Y-82502336D01*
X136379242Y-82433694D01*
X136492901Y-82344810D01*
X136632125Y-82246893D01*
X136685534Y-82210334D01*
X136951610Y-82005928D01*
X137212536Y-81771831D01*
X137452804Y-81523822D01*
X137656906Y-81277678D01*
X137809334Y-81049179D01*
X137849883Y-80975575D01*
X138053068Y-80521549D01*
X138185210Y-80056202D01*
X138247282Y-79585993D01*
X138240259Y-79117384D01*
X138165113Y-78656837D01*
X138022819Y-78210812D01*
X137814351Y-77785772D01*
X137540681Y-77388177D01*
X137202785Y-77024488D01*
X136951288Y-76812791D01*
X136550685Y-76553573D01*
X136122161Y-76359305D01*
X135672767Y-76230765D01*
X135209558Y-76168728D01*
X134739585Y-76173971D01*
X134269900Y-76247272D01*
X133807557Y-76389408D01*
X133359607Y-76601154D01*
X133283996Y-76646426D01*
X133041002Y-76822014D01*
X132791452Y-77040959D01*
X132553992Y-77284605D01*
X132347269Y-77534299D01*
X132189928Y-77771386D01*
X131978676Y-78217041D01*
X131834203Y-78686826D01*
X131761602Y-79165614D01*
X131760875Y-79647293D01*
X131832020Y-80125748D01*
X131975038Y-80594868D01*
X132189928Y-81048541D01*
X132209822Y-81082698D01*
X132372133Y-81316146D01*
X132584299Y-81564622D01*
X132831115Y-81812673D01*
X133097376Y-82044845D01*
X133367877Y-82245686D01*
X133478158Y-82322814D01*
X133598532Y-82415002D01*
X133682792Y-82489321D01*
X133717355Y-82534544D01*
X133713018Y-82554475D01*
X133684107Y-82638427D01*
X133630580Y-82780632D01*
X133555197Y-82974388D01*
X133460720Y-83212991D01*
X133349911Y-83489737D01*
X133225531Y-83797925D01*
X133090342Y-84130849D01*
X132947106Y-84481808D01*
X132798583Y-84844098D01*
X132647536Y-85211015D01*
X132496727Y-85575857D01*
X132348916Y-85931920D01*
X132206865Y-86272501D01*
X132073337Y-86590897D01*
X131951092Y-86880405D01*
X131842892Y-87134321D01*
X131751499Y-87345942D01*
X131679675Y-87508565D01*
X131630180Y-87615487D01*
X131605777Y-87660004D01*
X131583418Y-87673555D01*
X131540932Y-87673858D01*
X131472142Y-87653066D01*
X131367239Y-87607317D01*
X131216413Y-87532753D01*
X131009855Y-87425513D01*
X130887648Y-87362491D01*
X130707304Y-87273882D01*
X130552665Y-87203127D01*
X130437121Y-87156254D01*
X130374060Y-87139291D01*
X130362148Y-87141589D01*
X130286491Y-87176939D01*
X130154907Y-87253166D01*
X129971079Y-87367933D01*
X129738691Y-87518904D01*
X129461425Y-87703743D01*
X129142965Y-87920114D01*
X129140573Y-87921752D01*
X128878496Y-88100632D01*
X128633835Y-88266496D01*
X128413985Y-88414417D01*
X128226341Y-88539466D01*
X128078296Y-88636716D01*
X127977245Y-88701237D01*
X127930584Y-88728103D01*
X127907815Y-88727850D01*
X127867173Y-88708464D01*
X127806276Y-88664781D01*
X127720527Y-88592602D01*
X127605330Y-88487730D01*
X127456088Y-88345968D01*
X127268205Y-88163117D01*
X127037085Y-87934981D01*
X126758132Y-87657361D01*
X126648326Y-87547497D01*
X126419000Y-87316087D01*
X126209665Y-87102219D01*
X126025892Y-86911749D01*
X125873257Y-86750534D01*
X125757332Y-86624434D01*
X125683689Y-86539305D01*
X125657903Y-86501004D01*
X125658408Y-86498203D01*
X125685244Y-86446259D01*
X125749560Y-86340921D01*
X125846696Y-86189296D01*
X125971994Y-85998489D01*
X126120795Y-85775608D01*
X126288438Y-85527757D01*
X126470264Y-85262045D01*
X126496530Y-85223847D01*
X126677491Y-84959136D01*
X126844288Y-84712519D01*
X126992145Y-84491249D01*
X127116282Y-84302580D01*
X127211921Y-84153764D01*
X127274285Y-84052053D01*
X127298594Y-84004702D01*
X127294857Y-83975146D01*
X127267535Y-83880516D01*
X127217864Y-83733886D01*
X127149867Y-83545432D01*
X127067570Y-83325332D01*
X126974998Y-83083763D01*
X126876175Y-82830903D01*
X126775126Y-82576929D01*
X126675877Y-82332019D01*
X126582450Y-82106350D01*
X126498873Y-81910099D01*
X126429168Y-81753444D01*
X126377362Y-81646562D01*
X126347479Y-81599631D01*
X126331822Y-81590741D01*
X126248113Y-81561387D01*
X126119029Y-81527709D01*
X125965311Y-81495367D01*
X125952426Y-81492956D01*
X125820810Y-81468389D01*
X125630183Y-81432877D01*
X125393511Y-81388832D01*
X125123762Y-81338667D01*
X124833899Y-81284793D01*
X124536890Y-81229622D01*
X124446986Y-81212818D01*
X124173233Y-81160258D01*
X123925233Y-81110600D01*
X123712606Y-81065906D01*
X123544977Y-81028241D01*
X123431966Y-80999667D01*
X123383197Y-80982247D01*
X123376596Y-80967928D01*
X123364281Y-80887473D01*
X123353686Y-80746415D01*
X123344823Y-80554439D01*
X123337706Y-80321234D01*
X123332350Y-80056485D01*
X123328768Y-79769881D01*
X123326975Y-79471107D01*
X123326983Y-79169850D01*
X123328807Y-78875798D01*
X123332460Y-78598637D01*
X123337957Y-78348055D01*
X123345312Y-78133737D01*
X123354537Y-77965371D01*
X123365648Y-77852644D01*
X123378657Y-77805243D01*
X123384749Y-77802175D01*
X123450684Y-77783525D01*
X123579914Y-77753725D01*
X123764247Y-77714452D01*
X123995491Y-77667384D01*
X124265455Y-77614196D01*
X124565947Y-77556565D01*
X124888775Y-77496167D01*
X125191876Y-77439643D01*
X125560713Y-77368973D01*
X125860075Y-77308966D01*
X126092689Y-77259031D01*
X126261283Y-77218573D01*
X126368582Y-77187001D01*
X126417314Y-77163721D01*
X126418957Y-77162000D01*
X126452291Y-77106825D01*
X126509150Y-76993729D01*
X126584977Y-76833227D01*
X126675214Y-76635835D01*
X126775303Y-76412066D01*
X126880686Y-76172437D01*
X126986806Y-75927461D01*
X127089104Y-75687653D01*
X127183024Y-75463529D01*
X127264006Y-75265602D01*
X127327493Y-75104389D01*
X127368928Y-74990404D01*
X127383753Y-74934161D01*
X127381627Y-74926034D01*
X127348370Y-74862326D01*
X127278308Y-74746223D01*
X127175990Y-74584739D01*
X127045966Y-74384893D01*
X126892783Y-74153699D01*
X126720992Y-73898174D01*
X126535142Y-73625335D01*
X126476296Y-73539382D01*
X126293378Y-73270757D01*
X126125121Y-73021522D01*
X125976192Y-72798733D01*
X125851259Y-72609445D01*
X125754991Y-72460716D01*
X125692054Y-72359600D01*
X125667116Y-72313154D01*
X125666466Y-72305432D01*
X125679866Y-72269170D01*
X125719567Y-72210721D01*
X125789506Y-72125790D01*
X125893621Y-72010084D01*
X126035850Y-71859311D01*
X126220129Y-71669177D01*
X126450398Y-71435388D01*
X126730594Y-71153651D01*
X127010558Y-70874386D01*
X127269150Y-70619754D01*
X127480428Y-70415916D01*
X127646545Y-70260865D01*
X127769652Y-70152597D01*
X127851903Y-70089107D01*
X127895450Y-70068390D01*
X127904694Y-70070626D01*
X127971437Y-70104356D01*
X128090632Y-70175190D01*
X128255430Y-70278711D01*
X128458980Y-70410501D01*
X128694432Y-70566143D01*
X128954937Y-70741220D01*
X129233643Y-70931314D01*
X129319212Y-70990014D01*
X129680240Y-71235558D01*
X129981412Y-71436560D01*
X130222655Y-71592976D01*
X130403897Y-71704758D01*
X130525067Y-71771861D01*
X130586092Y-71794239D01*
X130620181Y-71788005D01*
X130721841Y-71756486D01*
X130873770Y-71702352D01*
X131065027Y-71630097D01*
X131284671Y-71544212D01*
X131521760Y-71449190D01*
X131765352Y-71349522D01*
X132004505Y-71249702D01*
X132228279Y-71154220D01*
X132425731Y-71067570D01*
X132585920Y-70994243D01*
X132697904Y-70938731D01*
X132750742Y-70905527D01*
X132756938Y-70897259D01*
X132780832Y-70840889D01*
X132811155Y-70736148D01*
X132848839Y-70578755D01*
X132894814Y-70364425D01*
X132950012Y-70088876D01*
X133015365Y-69747824D01*
X133091802Y-69336987D01*
X133133568Y-69111211D01*
X133202865Y-68743469D01*
X133261613Y-68442436D01*
X133310853Y-68203332D01*
X133351629Y-68021375D01*
X133384984Y-67891787D01*
X133411962Y-67809785D01*
X133433605Y-67770591D01*
X133434016Y-67770180D01*
X133455380Y-67753712D01*
X133487855Y-67740246D01*
X133538544Y-67729482D01*
X133614550Y-67721122D01*
X133722977Y-67714868D01*
X133870925Y-67710421D01*
X134065500Y-67707481D01*
X134313802Y-67705752D01*
X134622935Y-67704933D01*
X135000001Y-67704727D01*
X135012144Y-67704727D01*
X135387078Y-67704946D01*
G37*
%TD*%
M02*
