%TF.GenerationSoftware,KiCad,Pcbnew,10.0.2*%
%TF.CreationDate,2026-05-14T17:44:34+08:00*%
%TF.ProjectId,usb_audio_cat,7573625f-6175-4646-996f-5f6361742e6b,rev?*%
%TF.SameCoordinates,Original*%
%TF.FileFunction,Legend,Top*%
%TF.FilePolarity,Positive*%
%FSLAX46Y46*%
G04 Gerber Fmt 4.6, Leading zero omitted, Abs format (unit mm)*
G04 Created by KiCad (PCBNEW 10.0.2) date 2026-05-14 17:44:34*
%MOMM*%
%LPD*%
G01*
G04 APERTURE LIST*
%ADD10C,0.100000*%
%ADD11C,0.120000*%
%ADD12C,0.140000*%
%ADD13C,0.150000*%
%ADD14C,0.000000*%
G04 APERTURE END LIST*
D10*
X129000000Y-81500000D02*
X129000000Y-76500000D01*
X129000000Y-84500000D02*
X129000000Y-85500000D01*
D11*
X124618346Y-61631925D02*
X124275489Y-61631925D01*
X124446918Y-61631925D02*
X124446918Y-61031925D01*
X124446918Y-61031925D02*
X124389775Y-61117639D01*
X124389775Y-61117639D02*
X124332632Y-61174782D01*
X124332632Y-61174782D02*
X124275489Y-61203354D01*
X124875490Y-61631925D02*
X124875490Y-61031925D01*
X124932633Y-61403354D02*
X125104061Y-61631925D01*
X125104061Y-61231925D02*
X124875490Y-61460496D01*
X131328570Y-61771331D02*
X130985713Y-61771331D01*
X131157142Y-61771331D02*
X131157142Y-61171331D01*
X131157142Y-61171331D02*
X131099999Y-61257045D01*
X131099999Y-61257045D02*
X131042856Y-61314188D01*
X131042856Y-61314188D02*
X130985713Y-61342760D01*
X131699999Y-61171331D02*
X131757142Y-61171331D01*
X131757142Y-61171331D02*
X131814285Y-61199902D01*
X131814285Y-61199902D02*
X131842857Y-61228474D01*
X131842857Y-61228474D02*
X131871428Y-61285617D01*
X131871428Y-61285617D02*
X131899999Y-61399902D01*
X131899999Y-61399902D02*
X131899999Y-61542760D01*
X131899999Y-61542760D02*
X131871428Y-61657045D01*
X131871428Y-61657045D02*
X131842857Y-61714188D01*
X131842857Y-61714188D02*
X131814285Y-61742760D01*
X131814285Y-61742760D02*
X131757142Y-61771331D01*
X131757142Y-61771331D02*
X131699999Y-61771331D01*
X131699999Y-61771331D02*
X131642857Y-61742760D01*
X131642857Y-61742760D02*
X131614285Y-61714188D01*
X131614285Y-61714188D02*
X131585714Y-61657045D01*
X131585714Y-61657045D02*
X131557142Y-61542760D01*
X131557142Y-61542760D02*
X131557142Y-61399902D01*
X131557142Y-61399902D02*
X131585714Y-61285617D01*
X131585714Y-61285617D02*
X131614285Y-61228474D01*
X131614285Y-61228474D02*
X131642857Y-61199902D01*
X131642857Y-61199902D02*
X131699999Y-61171331D01*
X132271428Y-61171331D02*
X132328571Y-61171331D01*
X132328571Y-61171331D02*
X132385714Y-61199902D01*
X132385714Y-61199902D02*
X132414286Y-61228474D01*
X132414286Y-61228474D02*
X132442857Y-61285617D01*
X132442857Y-61285617D02*
X132471428Y-61399902D01*
X132471428Y-61399902D02*
X132471428Y-61542760D01*
X132471428Y-61542760D02*
X132442857Y-61657045D01*
X132442857Y-61657045D02*
X132414286Y-61714188D01*
X132414286Y-61714188D02*
X132385714Y-61742760D01*
X132385714Y-61742760D02*
X132328571Y-61771331D01*
X132328571Y-61771331D02*
X132271428Y-61771331D01*
X132271428Y-61771331D02*
X132214286Y-61742760D01*
X132214286Y-61742760D02*
X132185714Y-61714188D01*
X132185714Y-61714188D02*
X132157143Y-61657045D01*
X132157143Y-61657045D02*
X132128571Y-61542760D01*
X132128571Y-61542760D02*
X132128571Y-61399902D01*
X132128571Y-61399902D02*
X132157143Y-61285617D01*
X132157143Y-61285617D02*
X132185714Y-61228474D01*
X132185714Y-61228474D02*
X132214286Y-61199902D01*
X132214286Y-61199902D02*
X132271428Y-61171331D01*
X132728572Y-61371331D02*
X132728572Y-61771331D01*
X132728572Y-61428474D02*
X132757143Y-61399902D01*
X132757143Y-61399902D02*
X132814286Y-61371331D01*
X132814286Y-61371331D02*
X132900000Y-61371331D01*
X132900000Y-61371331D02*
X132957143Y-61399902D01*
X132957143Y-61399902D02*
X132985715Y-61457045D01*
X132985715Y-61457045D02*
X132985715Y-61771331D01*
X134614285Y-104771331D02*
X134271428Y-104771331D01*
X134442857Y-104771331D02*
X134442857Y-104171331D01*
X134442857Y-104171331D02*
X134385714Y-104257045D01*
X134385714Y-104257045D02*
X134328571Y-104314188D01*
X134328571Y-104314188D02*
X134271428Y-104342760D01*
X134985714Y-104171331D02*
X135042857Y-104171331D01*
X135042857Y-104171331D02*
X135100000Y-104199902D01*
X135100000Y-104199902D02*
X135128572Y-104228474D01*
X135128572Y-104228474D02*
X135157143Y-104285617D01*
X135157143Y-104285617D02*
X135185714Y-104399902D01*
X135185714Y-104399902D02*
X135185714Y-104542760D01*
X135185714Y-104542760D02*
X135157143Y-104657045D01*
X135157143Y-104657045D02*
X135128572Y-104714188D01*
X135128572Y-104714188D02*
X135100000Y-104742760D01*
X135100000Y-104742760D02*
X135042857Y-104771331D01*
X135042857Y-104771331D02*
X134985714Y-104771331D01*
X134985714Y-104771331D02*
X134928572Y-104742760D01*
X134928572Y-104742760D02*
X134900000Y-104714188D01*
X134900000Y-104714188D02*
X134871429Y-104657045D01*
X134871429Y-104657045D02*
X134842857Y-104542760D01*
X134842857Y-104542760D02*
X134842857Y-104399902D01*
X134842857Y-104399902D02*
X134871429Y-104285617D01*
X134871429Y-104285617D02*
X134900000Y-104228474D01*
X134900000Y-104228474D02*
X134928572Y-104199902D01*
X134928572Y-104199902D02*
X134985714Y-104171331D01*
X135700001Y-104371331D02*
X135700001Y-104771331D01*
X135442858Y-104371331D02*
X135442858Y-104685617D01*
X135442858Y-104685617D02*
X135471429Y-104742760D01*
X135471429Y-104742760D02*
X135528572Y-104771331D01*
X135528572Y-104771331D02*
X135614286Y-104771331D01*
X135614286Y-104771331D02*
X135671429Y-104742760D01*
X135671429Y-104742760D02*
X135700001Y-104714188D01*
X137543020Y-61628176D02*
X137571592Y-61599604D01*
X137571592Y-61599604D02*
X137628735Y-61571033D01*
X137628735Y-61571033D02*
X137771592Y-61571033D01*
X137771592Y-61571033D02*
X137828735Y-61599604D01*
X137828735Y-61599604D02*
X137857306Y-61628176D01*
X137857306Y-61628176D02*
X137885877Y-61685319D01*
X137885877Y-61685319D02*
X137885877Y-61742462D01*
X137885877Y-61742462D02*
X137857306Y-61828176D01*
X137857306Y-61828176D02*
X137514449Y-62171033D01*
X137514449Y-62171033D02*
X137885877Y-62171033D01*
X138114449Y-61628176D02*
X138143021Y-61599604D01*
X138143021Y-61599604D02*
X138200164Y-61571033D01*
X138200164Y-61571033D02*
X138343021Y-61571033D01*
X138343021Y-61571033D02*
X138400164Y-61599604D01*
X138400164Y-61599604D02*
X138428735Y-61628176D01*
X138428735Y-61628176D02*
X138457306Y-61685319D01*
X138457306Y-61685319D02*
X138457306Y-61742462D01*
X138457306Y-61742462D02*
X138428735Y-61828176D01*
X138428735Y-61828176D02*
X138085878Y-62171033D01*
X138085878Y-62171033D02*
X138457306Y-62171033D01*
X138828735Y-61571033D02*
X138885878Y-61571033D01*
X138885878Y-61571033D02*
X138943021Y-61599604D01*
X138943021Y-61599604D02*
X138971593Y-61628176D01*
X138971593Y-61628176D02*
X139000164Y-61685319D01*
X139000164Y-61685319D02*
X139028735Y-61799604D01*
X139028735Y-61799604D02*
X139028735Y-61942462D01*
X139028735Y-61942462D02*
X139000164Y-62056747D01*
X139000164Y-62056747D02*
X138971593Y-62113890D01*
X138971593Y-62113890D02*
X138943021Y-62142462D01*
X138943021Y-62142462D02*
X138885878Y-62171033D01*
X138885878Y-62171033D02*
X138828735Y-62171033D01*
X138828735Y-62171033D02*
X138771593Y-62142462D01*
X138771593Y-62142462D02*
X138743021Y-62113890D01*
X138743021Y-62113890D02*
X138714450Y-62056747D01*
X138714450Y-62056747D02*
X138685878Y-61942462D01*
X138685878Y-61942462D02*
X138685878Y-61799604D01*
X138685878Y-61799604D02*
X138714450Y-61685319D01*
X138714450Y-61685319D02*
X138743021Y-61628176D01*
X138743021Y-61628176D02*
X138771593Y-61599604D01*
X138771593Y-61599604D02*
X138828735Y-61571033D01*
X137580961Y-72422474D02*
X137609533Y-72393902D01*
X137609533Y-72393902D02*
X137666676Y-72365331D01*
X137666676Y-72365331D02*
X137809533Y-72365331D01*
X137809533Y-72365331D02*
X137866676Y-72393902D01*
X137866676Y-72393902D02*
X137895247Y-72422474D01*
X137895247Y-72422474D02*
X137923818Y-72479617D01*
X137923818Y-72479617D02*
X137923818Y-72536760D01*
X137923818Y-72536760D02*
X137895247Y-72622474D01*
X137895247Y-72622474D02*
X137552390Y-72965331D01*
X137552390Y-72965331D02*
X137923818Y-72965331D01*
X138152390Y-72422474D02*
X138180962Y-72393902D01*
X138180962Y-72393902D02*
X138238105Y-72365331D01*
X138238105Y-72365331D02*
X138380962Y-72365331D01*
X138380962Y-72365331D02*
X138438105Y-72393902D01*
X138438105Y-72393902D02*
X138466676Y-72422474D01*
X138466676Y-72422474D02*
X138495247Y-72479617D01*
X138495247Y-72479617D02*
X138495247Y-72536760D01*
X138495247Y-72536760D02*
X138466676Y-72622474D01*
X138466676Y-72622474D02*
X138123819Y-72965331D01*
X138123819Y-72965331D02*
X138495247Y-72965331D01*
X138866676Y-72365331D02*
X138923819Y-72365331D01*
X138923819Y-72365331D02*
X138980962Y-72393902D01*
X138980962Y-72393902D02*
X139009534Y-72422474D01*
X139009534Y-72422474D02*
X139038105Y-72479617D01*
X139038105Y-72479617D02*
X139066676Y-72593902D01*
X139066676Y-72593902D02*
X139066676Y-72736760D01*
X139066676Y-72736760D02*
X139038105Y-72851045D01*
X139038105Y-72851045D02*
X139009534Y-72908188D01*
X139009534Y-72908188D02*
X138980962Y-72936760D01*
X138980962Y-72936760D02*
X138923819Y-72965331D01*
X138923819Y-72965331D02*
X138866676Y-72965331D01*
X138866676Y-72965331D02*
X138809534Y-72936760D01*
X138809534Y-72936760D02*
X138780962Y-72908188D01*
X138780962Y-72908188D02*
X138752391Y-72851045D01*
X138752391Y-72851045D02*
X138723819Y-72736760D01*
X138723819Y-72736760D02*
X138723819Y-72593902D01*
X138723819Y-72593902D02*
X138752391Y-72479617D01*
X138752391Y-72479617D02*
X138780962Y-72422474D01*
X138780962Y-72422474D02*
X138809534Y-72393902D01*
X138809534Y-72393902D02*
X138866676Y-72365331D01*
X140928571Y-91271331D02*
X140585714Y-91271331D01*
X140757143Y-91271331D02*
X140757143Y-90671331D01*
X140757143Y-90671331D02*
X140700000Y-90757045D01*
X140700000Y-90757045D02*
X140642857Y-90814188D01*
X140642857Y-90814188D02*
X140585714Y-90842760D01*
X141185715Y-91271331D02*
X141185715Y-90671331D01*
X141242858Y-91042760D02*
X141414286Y-91271331D01*
X141414286Y-90871331D02*
X141185715Y-91099902D01*
X140614285Y-105771331D02*
X140271428Y-105771331D01*
X140442857Y-105771331D02*
X140442857Y-105171331D01*
X140442857Y-105171331D02*
X140385714Y-105257045D01*
X140385714Y-105257045D02*
X140328571Y-105314188D01*
X140328571Y-105314188D02*
X140271428Y-105342760D01*
X140985714Y-105171331D02*
X141042857Y-105171331D01*
X141042857Y-105171331D02*
X141100000Y-105199902D01*
X141100000Y-105199902D02*
X141128572Y-105228474D01*
X141128572Y-105228474D02*
X141157143Y-105285617D01*
X141157143Y-105285617D02*
X141185714Y-105399902D01*
X141185714Y-105399902D02*
X141185714Y-105542760D01*
X141185714Y-105542760D02*
X141157143Y-105657045D01*
X141157143Y-105657045D02*
X141128572Y-105714188D01*
X141128572Y-105714188D02*
X141100000Y-105742760D01*
X141100000Y-105742760D02*
X141042857Y-105771331D01*
X141042857Y-105771331D02*
X140985714Y-105771331D01*
X140985714Y-105771331D02*
X140928572Y-105742760D01*
X140928572Y-105742760D02*
X140900000Y-105714188D01*
X140900000Y-105714188D02*
X140871429Y-105657045D01*
X140871429Y-105657045D02*
X140842857Y-105542760D01*
X140842857Y-105542760D02*
X140842857Y-105399902D01*
X140842857Y-105399902D02*
X140871429Y-105285617D01*
X140871429Y-105285617D02*
X140900000Y-105228474D01*
X140900000Y-105228474D02*
X140928572Y-105199902D01*
X140928572Y-105199902D02*
X140985714Y-105171331D01*
X141700001Y-105371331D02*
X141700001Y-105771331D01*
X141442858Y-105371331D02*
X141442858Y-105685617D01*
X141442858Y-105685617D02*
X141471429Y-105742760D01*
X141471429Y-105742760D02*
X141528572Y-105771331D01*
X141528572Y-105771331D02*
X141614286Y-105771331D01*
X141614286Y-105771331D02*
X141671429Y-105742760D01*
X141671429Y-105742760D02*
X141700001Y-105714188D01*
X141257142Y-71728474D02*
X141285714Y-71699902D01*
X141285714Y-71699902D02*
X141342857Y-71671331D01*
X141342857Y-71671331D02*
X141485714Y-71671331D01*
X141485714Y-71671331D02*
X141542857Y-71699902D01*
X141542857Y-71699902D02*
X141571428Y-71728474D01*
X141571428Y-71728474D02*
X141599999Y-71785617D01*
X141599999Y-71785617D02*
X141599999Y-71842760D01*
X141599999Y-71842760D02*
X141571428Y-71928474D01*
X141571428Y-71928474D02*
X141228571Y-72271331D01*
X141228571Y-72271331D02*
X141599999Y-72271331D01*
X141828571Y-71728474D02*
X141857143Y-71699902D01*
X141857143Y-71699902D02*
X141914286Y-71671331D01*
X141914286Y-71671331D02*
X142057143Y-71671331D01*
X142057143Y-71671331D02*
X142114286Y-71699902D01*
X142114286Y-71699902D02*
X142142857Y-71728474D01*
X142142857Y-71728474D02*
X142171428Y-71785617D01*
X142171428Y-71785617D02*
X142171428Y-71842760D01*
X142171428Y-71842760D02*
X142142857Y-71928474D01*
X142142857Y-71928474D02*
X141800000Y-72271331D01*
X141800000Y-72271331D02*
X142171428Y-72271331D01*
X142542857Y-71671331D02*
X142600000Y-71671331D01*
X142600000Y-71671331D02*
X142657143Y-71699902D01*
X142657143Y-71699902D02*
X142685715Y-71728474D01*
X142685715Y-71728474D02*
X142714286Y-71785617D01*
X142714286Y-71785617D02*
X142742857Y-71899902D01*
X142742857Y-71899902D02*
X142742857Y-72042760D01*
X142742857Y-72042760D02*
X142714286Y-72157045D01*
X142714286Y-72157045D02*
X142685715Y-72214188D01*
X142685715Y-72214188D02*
X142657143Y-72242760D01*
X142657143Y-72242760D02*
X142600000Y-72271331D01*
X142600000Y-72271331D02*
X142542857Y-72271331D01*
X142542857Y-72271331D02*
X142485715Y-72242760D01*
X142485715Y-72242760D02*
X142457143Y-72214188D01*
X142457143Y-72214188D02*
X142428572Y-72157045D01*
X142428572Y-72157045D02*
X142400000Y-72042760D01*
X142400000Y-72042760D02*
X142400000Y-71899902D01*
X142400000Y-71899902D02*
X142428572Y-71785617D01*
X142428572Y-71785617D02*
X142457143Y-71728474D01*
X142457143Y-71728474D02*
X142485715Y-71699902D01*
X142485715Y-71699902D02*
X142542857Y-71671331D01*
X141038009Y-62756775D02*
X141123723Y-62785347D01*
X141123723Y-62785347D02*
X141152294Y-62813918D01*
X141152294Y-62813918D02*
X141180866Y-62871061D01*
X141180866Y-62871061D02*
X141180866Y-62956775D01*
X141180866Y-62956775D02*
X141152294Y-63013918D01*
X141152294Y-63013918D02*
X141123723Y-63042490D01*
X141123723Y-63042490D02*
X141066580Y-63071061D01*
X141066580Y-63071061D02*
X140838009Y-63071061D01*
X140838009Y-63071061D02*
X140838009Y-62471061D01*
X140838009Y-62471061D02*
X141038009Y-62471061D01*
X141038009Y-62471061D02*
X141095152Y-62499632D01*
X141095152Y-62499632D02*
X141123723Y-62528204D01*
X141123723Y-62528204D02*
X141152294Y-62585347D01*
X141152294Y-62585347D02*
X141152294Y-62642490D01*
X141152294Y-62642490D02*
X141123723Y-62699632D01*
X141123723Y-62699632D02*
X141095152Y-62728204D01*
X141095152Y-62728204D02*
X141038009Y-62756775D01*
X141038009Y-62756775D02*
X140838009Y-62756775D01*
X141780866Y-63013918D02*
X141752294Y-63042490D01*
X141752294Y-63042490D02*
X141666580Y-63071061D01*
X141666580Y-63071061D02*
X141609437Y-63071061D01*
X141609437Y-63071061D02*
X141523723Y-63042490D01*
X141523723Y-63042490D02*
X141466580Y-62985347D01*
X141466580Y-62985347D02*
X141438009Y-62928204D01*
X141438009Y-62928204D02*
X141409437Y-62813918D01*
X141409437Y-62813918D02*
X141409437Y-62728204D01*
X141409437Y-62728204D02*
X141438009Y-62613918D01*
X141438009Y-62613918D02*
X141466580Y-62556775D01*
X141466580Y-62556775D02*
X141523723Y-62499632D01*
X141523723Y-62499632D02*
X141609437Y-62471061D01*
X141609437Y-62471061D02*
X141666580Y-62471061D01*
X141666580Y-62471061D02*
X141752294Y-62499632D01*
X141752294Y-62499632D02*
X141780866Y-62528204D01*
X142123723Y-62728204D02*
X142066580Y-62699632D01*
X142066580Y-62699632D02*
X142038009Y-62671061D01*
X142038009Y-62671061D02*
X142009437Y-62613918D01*
X142009437Y-62613918D02*
X142009437Y-62585347D01*
X142009437Y-62585347D02*
X142038009Y-62528204D01*
X142038009Y-62528204D02*
X142066580Y-62499632D01*
X142066580Y-62499632D02*
X142123723Y-62471061D01*
X142123723Y-62471061D02*
X142238009Y-62471061D01*
X142238009Y-62471061D02*
X142295152Y-62499632D01*
X142295152Y-62499632D02*
X142323723Y-62528204D01*
X142323723Y-62528204D02*
X142352294Y-62585347D01*
X142352294Y-62585347D02*
X142352294Y-62613918D01*
X142352294Y-62613918D02*
X142323723Y-62671061D01*
X142323723Y-62671061D02*
X142295152Y-62699632D01*
X142295152Y-62699632D02*
X142238009Y-62728204D01*
X142238009Y-62728204D02*
X142123723Y-62728204D01*
X142123723Y-62728204D02*
X142066580Y-62756775D01*
X142066580Y-62756775D02*
X142038009Y-62785347D01*
X142038009Y-62785347D02*
X142009437Y-62842490D01*
X142009437Y-62842490D02*
X142009437Y-62956775D01*
X142009437Y-62956775D02*
X142038009Y-63013918D01*
X142038009Y-63013918D02*
X142066580Y-63042490D01*
X142066580Y-63042490D02*
X142123723Y-63071061D01*
X142123723Y-63071061D02*
X142238009Y-63071061D01*
X142238009Y-63071061D02*
X142295152Y-63042490D01*
X142295152Y-63042490D02*
X142323723Y-63013918D01*
X142323723Y-63013918D02*
X142352294Y-62956775D01*
X142352294Y-62956775D02*
X142352294Y-62842490D01*
X142352294Y-62842490D02*
X142323723Y-62785347D01*
X142323723Y-62785347D02*
X142295152Y-62756775D01*
X142295152Y-62756775D02*
X142238009Y-62728204D01*
X142723723Y-62471061D02*
X142780866Y-62471061D01*
X142780866Y-62471061D02*
X142838009Y-62499632D01*
X142838009Y-62499632D02*
X142866581Y-62528204D01*
X142866581Y-62528204D02*
X142895152Y-62585347D01*
X142895152Y-62585347D02*
X142923723Y-62699632D01*
X142923723Y-62699632D02*
X142923723Y-62842490D01*
X142923723Y-62842490D02*
X142895152Y-62956775D01*
X142895152Y-62956775D02*
X142866581Y-63013918D01*
X142866581Y-63013918D02*
X142838009Y-63042490D01*
X142838009Y-63042490D02*
X142780866Y-63071061D01*
X142780866Y-63071061D02*
X142723723Y-63071061D01*
X142723723Y-63071061D02*
X142666581Y-63042490D01*
X142666581Y-63042490D02*
X142638009Y-63013918D01*
X142638009Y-63013918D02*
X142609438Y-62956775D01*
X142609438Y-62956775D02*
X142580866Y-62842490D01*
X142580866Y-62842490D02*
X142580866Y-62699632D01*
X142580866Y-62699632D02*
X142609438Y-62585347D01*
X142609438Y-62585347D02*
X142638009Y-62528204D01*
X142638009Y-62528204D02*
X142666581Y-62499632D01*
X142666581Y-62499632D02*
X142723723Y-62471061D01*
X143123724Y-62471061D02*
X143523724Y-62471061D01*
X143523724Y-62471061D02*
X143266581Y-63071061D01*
X145642856Y-91271331D02*
X145299999Y-91271331D01*
X145471428Y-91271331D02*
X145471428Y-90671331D01*
X145471428Y-90671331D02*
X145414285Y-90757045D01*
X145414285Y-90757045D02*
X145357142Y-90814188D01*
X145357142Y-90814188D02*
X145299999Y-90842760D01*
X146014285Y-90671331D02*
X146071428Y-90671331D01*
X146071428Y-90671331D02*
X146128571Y-90699902D01*
X146128571Y-90699902D02*
X146157143Y-90728474D01*
X146157143Y-90728474D02*
X146185714Y-90785617D01*
X146185714Y-90785617D02*
X146214285Y-90899902D01*
X146214285Y-90899902D02*
X146214285Y-91042760D01*
X146214285Y-91042760D02*
X146185714Y-91157045D01*
X146185714Y-91157045D02*
X146157143Y-91214188D01*
X146157143Y-91214188D02*
X146128571Y-91242760D01*
X146128571Y-91242760D02*
X146071428Y-91271331D01*
X146071428Y-91271331D02*
X146014285Y-91271331D01*
X146014285Y-91271331D02*
X145957143Y-91242760D01*
X145957143Y-91242760D02*
X145928571Y-91214188D01*
X145928571Y-91214188D02*
X145900000Y-91157045D01*
X145900000Y-91157045D02*
X145871428Y-91042760D01*
X145871428Y-91042760D02*
X145871428Y-90899902D01*
X145871428Y-90899902D02*
X145900000Y-90785617D01*
X145900000Y-90785617D02*
X145928571Y-90728474D01*
X145928571Y-90728474D02*
X145957143Y-90699902D01*
X145957143Y-90699902D02*
X146014285Y-90671331D01*
X146471429Y-91271331D02*
X146471429Y-90671331D01*
X146528572Y-91042760D02*
X146700000Y-91271331D01*
X146700000Y-90871331D02*
X146471429Y-91099902D01*
X146614285Y-72271331D02*
X146271428Y-72271331D01*
X146442857Y-72271331D02*
X146442857Y-71671331D01*
X146442857Y-71671331D02*
X146385714Y-71757045D01*
X146385714Y-71757045D02*
X146328571Y-71814188D01*
X146328571Y-71814188D02*
X146271428Y-71842760D01*
X146985714Y-71671331D02*
X147042857Y-71671331D01*
X147042857Y-71671331D02*
X147100000Y-71699902D01*
X147100000Y-71699902D02*
X147128572Y-71728474D01*
X147128572Y-71728474D02*
X147157143Y-71785617D01*
X147157143Y-71785617D02*
X147185714Y-71899902D01*
X147185714Y-71899902D02*
X147185714Y-72042760D01*
X147185714Y-72042760D02*
X147157143Y-72157045D01*
X147157143Y-72157045D02*
X147128572Y-72214188D01*
X147128572Y-72214188D02*
X147100000Y-72242760D01*
X147100000Y-72242760D02*
X147042857Y-72271331D01*
X147042857Y-72271331D02*
X146985714Y-72271331D01*
X146985714Y-72271331D02*
X146928572Y-72242760D01*
X146928572Y-72242760D02*
X146900000Y-72214188D01*
X146900000Y-72214188D02*
X146871429Y-72157045D01*
X146871429Y-72157045D02*
X146842857Y-72042760D01*
X146842857Y-72042760D02*
X146842857Y-71899902D01*
X146842857Y-71899902D02*
X146871429Y-71785617D01*
X146871429Y-71785617D02*
X146900000Y-71728474D01*
X146900000Y-71728474D02*
X146928572Y-71699902D01*
X146928572Y-71699902D02*
X146985714Y-71671331D01*
X147442858Y-71871331D02*
X147442858Y-72271331D01*
X147442858Y-71928474D02*
X147471429Y-71899902D01*
X147471429Y-71899902D02*
X147528572Y-71871331D01*
X147528572Y-71871331D02*
X147614286Y-71871331D01*
X147614286Y-71871331D02*
X147671429Y-71899902D01*
X147671429Y-71899902D02*
X147700001Y-71957045D01*
X147700001Y-71957045D02*
X147700001Y-72271331D01*
X135771331Y-92385714D02*
X135771331Y-92728571D01*
X135771331Y-92557142D02*
X135171331Y-92557142D01*
X135171331Y-92557142D02*
X135257045Y-92614285D01*
X135257045Y-92614285D02*
X135314188Y-92671428D01*
X135314188Y-92671428D02*
X135342760Y-92728571D01*
X135171331Y-92014285D02*
X135171331Y-91957142D01*
X135171331Y-91957142D02*
X135199902Y-91899999D01*
X135199902Y-91899999D02*
X135228474Y-91871428D01*
X135228474Y-91871428D02*
X135285617Y-91842856D01*
X135285617Y-91842856D02*
X135399902Y-91814285D01*
X135399902Y-91814285D02*
X135542760Y-91814285D01*
X135542760Y-91814285D02*
X135657045Y-91842856D01*
X135657045Y-91842856D02*
X135714188Y-91871428D01*
X135714188Y-91871428D02*
X135742760Y-91899999D01*
X135742760Y-91899999D02*
X135771331Y-91957142D01*
X135771331Y-91957142D02*
X135771331Y-92014285D01*
X135771331Y-92014285D02*
X135742760Y-92071428D01*
X135742760Y-92071428D02*
X135714188Y-92099999D01*
X135714188Y-92099999D02*
X135657045Y-92128570D01*
X135657045Y-92128570D02*
X135542760Y-92157142D01*
X135542760Y-92157142D02*
X135399902Y-92157142D01*
X135399902Y-92157142D02*
X135285617Y-92128570D01*
X135285617Y-92128570D02*
X135228474Y-92099999D01*
X135228474Y-92099999D02*
X135199902Y-92071428D01*
X135199902Y-92071428D02*
X135171331Y-92014285D01*
X135371331Y-91299999D02*
X135771331Y-91299999D01*
X135371331Y-91557141D02*
X135685617Y-91557141D01*
X135685617Y-91557141D02*
X135742760Y-91528570D01*
X135742760Y-91528570D02*
X135771331Y-91471427D01*
X135771331Y-91471427D02*
X135771331Y-91385713D01*
X135771331Y-91385713D02*
X135742760Y-91328570D01*
X135742760Y-91328570D02*
X135714188Y-91299999D01*
D12*
X169421428Y-70909077D02*
X169121428Y-70480505D01*
X168907142Y-70909077D02*
X168907142Y-70009077D01*
X168907142Y-70009077D02*
X169249999Y-70009077D01*
X169249999Y-70009077D02*
X169335714Y-70051934D01*
X169335714Y-70051934D02*
X169378571Y-70094791D01*
X169378571Y-70094791D02*
X169421428Y-70180505D01*
X169421428Y-70180505D02*
X169421428Y-70309077D01*
X169421428Y-70309077D02*
X169378571Y-70394791D01*
X169378571Y-70394791D02*
X169335714Y-70437648D01*
X169335714Y-70437648D02*
X169249999Y-70480505D01*
X169249999Y-70480505D02*
X168907142Y-70480505D01*
X170278571Y-70909077D02*
X169764285Y-70909077D01*
X170021428Y-70909077D02*
X170021428Y-70009077D01*
X170021428Y-70009077D02*
X169935714Y-70137648D01*
X169935714Y-70137648D02*
X169849999Y-70223362D01*
X169849999Y-70223362D02*
X169764285Y-70266220D01*
X170707142Y-70909077D02*
X170878571Y-70909077D01*
X170878571Y-70909077D02*
X170964285Y-70866220D01*
X170964285Y-70866220D02*
X171007142Y-70823362D01*
X171007142Y-70823362D02*
X171092857Y-70694791D01*
X171092857Y-70694791D02*
X171135714Y-70523362D01*
X171135714Y-70523362D02*
X171135714Y-70180505D01*
X171135714Y-70180505D02*
X171092857Y-70094791D01*
X171092857Y-70094791D02*
X171050000Y-70051934D01*
X171050000Y-70051934D02*
X170964285Y-70009077D01*
X170964285Y-70009077D02*
X170792857Y-70009077D01*
X170792857Y-70009077D02*
X170707142Y-70051934D01*
X170707142Y-70051934D02*
X170664285Y-70094791D01*
X170664285Y-70094791D02*
X170621428Y-70180505D01*
X170621428Y-70180505D02*
X170621428Y-70394791D01*
X170621428Y-70394791D02*
X170664285Y-70480505D01*
X170664285Y-70480505D02*
X170707142Y-70523362D01*
X170707142Y-70523362D02*
X170792857Y-70566220D01*
X170792857Y-70566220D02*
X170964285Y-70566220D01*
X170964285Y-70566220D02*
X171050000Y-70523362D01*
X171050000Y-70523362D02*
X171092857Y-70480505D01*
X171092857Y-70480505D02*
X171135714Y-70394791D01*
X168509077Y-106849999D02*
X169237648Y-106849999D01*
X169237648Y-106849999D02*
X169323362Y-106807142D01*
X169323362Y-106807142D02*
X169366220Y-106764285D01*
X169366220Y-106764285D02*
X169409077Y-106678570D01*
X169409077Y-106678570D02*
X169409077Y-106507142D01*
X169409077Y-106507142D02*
X169366220Y-106421427D01*
X169366220Y-106421427D02*
X169323362Y-106378570D01*
X169323362Y-106378570D02*
X169237648Y-106335713D01*
X169237648Y-106335713D02*
X168509077Y-106335713D01*
X169366220Y-105949999D02*
X169409077Y-105821428D01*
X169409077Y-105821428D02*
X169409077Y-105607142D01*
X169409077Y-105607142D02*
X169366220Y-105521428D01*
X169366220Y-105521428D02*
X169323362Y-105478570D01*
X169323362Y-105478570D02*
X169237648Y-105435713D01*
X169237648Y-105435713D02*
X169151934Y-105435713D01*
X169151934Y-105435713D02*
X169066220Y-105478570D01*
X169066220Y-105478570D02*
X169023362Y-105521428D01*
X169023362Y-105521428D02*
X168980505Y-105607142D01*
X168980505Y-105607142D02*
X168937648Y-105778570D01*
X168937648Y-105778570D02*
X168894791Y-105864285D01*
X168894791Y-105864285D02*
X168851934Y-105907142D01*
X168851934Y-105907142D02*
X168766220Y-105949999D01*
X168766220Y-105949999D02*
X168680505Y-105949999D01*
X168680505Y-105949999D02*
X168594791Y-105907142D01*
X168594791Y-105907142D02*
X168551934Y-105864285D01*
X168551934Y-105864285D02*
X168509077Y-105778570D01*
X168509077Y-105778570D02*
X168509077Y-105564285D01*
X168509077Y-105564285D02*
X168551934Y-105435713D01*
X168937648Y-104749999D02*
X168980505Y-104621427D01*
X168980505Y-104621427D02*
X169023362Y-104578570D01*
X169023362Y-104578570D02*
X169109077Y-104535713D01*
X169109077Y-104535713D02*
X169237648Y-104535713D01*
X169237648Y-104535713D02*
X169323362Y-104578570D01*
X169323362Y-104578570D02*
X169366220Y-104621427D01*
X169366220Y-104621427D02*
X169409077Y-104707142D01*
X169409077Y-104707142D02*
X169409077Y-105049999D01*
X169409077Y-105049999D02*
X168509077Y-105049999D01*
X168509077Y-105049999D02*
X168509077Y-104749999D01*
X168509077Y-104749999D02*
X168551934Y-104664285D01*
X168551934Y-104664285D02*
X168594791Y-104621427D01*
X168594791Y-104621427D02*
X168680505Y-104578570D01*
X168680505Y-104578570D02*
X168766220Y-104578570D01*
X168766220Y-104578570D02*
X168851934Y-104621427D01*
X168851934Y-104621427D02*
X168894791Y-104664285D01*
X168894791Y-104664285D02*
X168937648Y-104749999D01*
X168937648Y-104749999D02*
X168937648Y-105049999D01*
X169151934Y-103507142D02*
X169151934Y-103078571D01*
X169409077Y-103592856D02*
X168509077Y-103292856D01*
X168509077Y-103292856D02*
X169409077Y-102992856D01*
X168509077Y-102692856D02*
X169237648Y-102692856D01*
X169237648Y-102692856D02*
X169323362Y-102649999D01*
X169323362Y-102649999D02*
X169366220Y-102607142D01*
X169366220Y-102607142D02*
X169409077Y-102521427D01*
X169409077Y-102521427D02*
X169409077Y-102349999D01*
X169409077Y-102349999D02*
X169366220Y-102264284D01*
X169366220Y-102264284D02*
X169323362Y-102221427D01*
X169323362Y-102221427D02*
X169237648Y-102178570D01*
X169237648Y-102178570D02*
X168509077Y-102178570D01*
X169409077Y-101749999D02*
X168509077Y-101749999D01*
X168509077Y-101749999D02*
X168509077Y-101535713D01*
X168509077Y-101535713D02*
X168551934Y-101407142D01*
X168551934Y-101407142D02*
X168637648Y-101321427D01*
X168637648Y-101321427D02*
X168723362Y-101278570D01*
X168723362Y-101278570D02*
X168894791Y-101235713D01*
X168894791Y-101235713D02*
X169023362Y-101235713D01*
X169023362Y-101235713D02*
X169194791Y-101278570D01*
X169194791Y-101278570D02*
X169280505Y-101321427D01*
X169280505Y-101321427D02*
X169366220Y-101407142D01*
X169366220Y-101407142D02*
X169409077Y-101535713D01*
X169409077Y-101535713D02*
X169409077Y-101749999D01*
X169409077Y-100849999D02*
X168509077Y-100849999D01*
X168509077Y-100249999D02*
X168509077Y-100078571D01*
X168509077Y-100078571D02*
X168551934Y-99992856D01*
X168551934Y-99992856D02*
X168637648Y-99907142D01*
X168637648Y-99907142D02*
X168809077Y-99864285D01*
X168809077Y-99864285D02*
X169109077Y-99864285D01*
X169109077Y-99864285D02*
X169280505Y-99907142D01*
X169280505Y-99907142D02*
X169366220Y-99992856D01*
X169366220Y-99992856D02*
X169409077Y-100078571D01*
X169409077Y-100078571D02*
X169409077Y-100249999D01*
X169409077Y-100249999D02*
X169366220Y-100335714D01*
X169366220Y-100335714D02*
X169280505Y-100421428D01*
X169280505Y-100421428D02*
X169109077Y-100464285D01*
X169109077Y-100464285D02*
X168809077Y-100464285D01*
X168809077Y-100464285D02*
X168637648Y-100421428D01*
X168637648Y-100421428D02*
X168551934Y-100335714D01*
X168551934Y-100335714D02*
X168509077Y-100249999D01*
X169323362Y-98278571D02*
X169366220Y-98321428D01*
X169366220Y-98321428D02*
X169409077Y-98450000D01*
X169409077Y-98450000D02*
X169409077Y-98535714D01*
X169409077Y-98535714D02*
X169366220Y-98664285D01*
X169366220Y-98664285D02*
X169280505Y-98750000D01*
X169280505Y-98750000D02*
X169194791Y-98792857D01*
X169194791Y-98792857D02*
X169023362Y-98835714D01*
X169023362Y-98835714D02*
X168894791Y-98835714D01*
X168894791Y-98835714D02*
X168723362Y-98792857D01*
X168723362Y-98792857D02*
X168637648Y-98750000D01*
X168637648Y-98750000D02*
X168551934Y-98664285D01*
X168551934Y-98664285D02*
X168509077Y-98535714D01*
X168509077Y-98535714D02*
X168509077Y-98450000D01*
X168509077Y-98450000D02*
X168551934Y-98321428D01*
X168551934Y-98321428D02*
X168594791Y-98278571D01*
X169151934Y-97935714D02*
X169151934Y-97507143D01*
X169409077Y-98021428D02*
X168509077Y-97721428D01*
X168509077Y-97721428D02*
X169409077Y-97421428D01*
X168509077Y-97249999D02*
X168509077Y-96735714D01*
X169409077Y-96992856D02*
X168509077Y-96992856D01*
X169409077Y-95750000D02*
X168509077Y-95750000D01*
X169409077Y-95321429D02*
X168509077Y-95321429D01*
X168509077Y-95321429D02*
X169409077Y-94807143D01*
X169409077Y-94807143D02*
X168509077Y-94807143D01*
X168509077Y-94507143D02*
X168509077Y-93992858D01*
X169409077Y-94250000D02*
X168509077Y-94250000D01*
X168937648Y-93692858D02*
X168937648Y-93392858D01*
X169409077Y-93264286D02*
X169409077Y-93692858D01*
X169409077Y-93692858D02*
X168509077Y-93692858D01*
X168509077Y-93692858D02*
X168509077Y-93264286D01*
X169409077Y-92364286D02*
X168980505Y-92664286D01*
X169409077Y-92878572D02*
X168509077Y-92878572D01*
X168509077Y-92878572D02*
X168509077Y-92535715D01*
X168509077Y-92535715D02*
X168551934Y-92450000D01*
X168551934Y-92450000D02*
X168594791Y-92407143D01*
X168594791Y-92407143D02*
X168680505Y-92364286D01*
X168680505Y-92364286D02*
X168809077Y-92364286D01*
X168809077Y-92364286D02*
X168894791Y-92407143D01*
X168894791Y-92407143D02*
X168937648Y-92450000D01*
X168937648Y-92450000D02*
X168980505Y-92535715D01*
X168980505Y-92535715D02*
X168980505Y-92878572D01*
X168937648Y-91678572D02*
X168937648Y-91978572D01*
X169409077Y-91978572D02*
X168509077Y-91978572D01*
X168509077Y-91978572D02*
X168509077Y-91550000D01*
X169151934Y-91250000D02*
X169151934Y-90821429D01*
X169409077Y-91335714D02*
X168509077Y-91035714D01*
X168509077Y-91035714D02*
X169409077Y-90735714D01*
X169323362Y-89921428D02*
X169366220Y-89964285D01*
X169366220Y-89964285D02*
X169409077Y-90092857D01*
X169409077Y-90092857D02*
X169409077Y-90178571D01*
X169409077Y-90178571D02*
X169366220Y-90307142D01*
X169366220Y-90307142D02*
X169280505Y-90392857D01*
X169280505Y-90392857D02*
X169194791Y-90435714D01*
X169194791Y-90435714D02*
X169023362Y-90478571D01*
X169023362Y-90478571D02*
X168894791Y-90478571D01*
X168894791Y-90478571D02*
X168723362Y-90435714D01*
X168723362Y-90435714D02*
X168637648Y-90392857D01*
X168637648Y-90392857D02*
X168551934Y-90307142D01*
X168551934Y-90307142D02*
X168509077Y-90178571D01*
X168509077Y-90178571D02*
X168509077Y-90092857D01*
X168509077Y-90092857D02*
X168551934Y-89964285D01*
X168551934Y-89964285D02*
X168594791Y-89921428D01*
X168937648Y-89535714D02*
X168937648Y-89235714D01*
X169409077Y-89107142D02*
X169409077Y-89535714D01*
X169409077Y-89535714D02*
X168509077Y-89535714D01*
X168509077Y-89535714D02*
X168509077Y-89107142D01*
D13*
X121571428Y-106454819D02*
X121571428Y-105454819D01*
X121999999Y-106454819D02*
X121999999Y-105931009D01*
X121999999Y-105931009D02*
X121952380Y-105835771D01*
X121952380Y-105835771D02*
X121857142Y-105788152D01*
X121857142Y-105788152D02*
X121714285Y-105788152D01*
X121714285Y-105788152D02*
X121619047Y-105835771D01*
X121619047Y-105835771D02*
X121571428Y-105883390D01*
X122333333Y-105788152D02*
X122714285Y-105788152D01*
X122476190Y-105454819D02*
X122476190Y-106311961D01*
X122476190Y-106311961D02*
X122523809Y-106407200D01*
X122523809Y-106407200D02*
X122619047Y-106454819D01*
X122619047Y-106454819D02*
X122714285Y-106454819D01*
X122904762Y-105788152D02*
X123285714Y-105788152D01*
X123047619Y-105454819D02*
X123047619Y-106311961D01*
X123047619Y-106311961D02*
X123095238Y-106407200D01*
X123095238Y-106407200D02*
X123190476Y-106454819D01*
X123190476Y-106454819D02*
X123285714Y-106454819D01*
X123619048Y-105788152D02*
X123619048Y-106788152D01*
X123619048Y-105835771D02*
X123714286Y-105788152D01*
X123714286Y-105788152D02*
X123904762Y-105788152D01*
X123904762Y-105788152D02*
X124000000Y-105835771D01*
X124000000Y-105835771D02*
X124047619Y-105883390D01*
X124047619Y-105883390D02*
X124095238Y-105978628D01*
X124095238Y-105978628D02*
X124095238Y-106264342D01*
X124095238Y-106264342D02*
X124047619Y-106359580D01*
X124047619Y-106359580D02*
X124000000Y-106407200D01*
X124000000Y-106407200D02*
X123904762Y-106454819D01*
X123904762Y-106454819D02*
X123714286Y-106454819D01*
X123714286Y-106454819D02*
X123619048Y-106407200D01*
X124476191Y-106407200D02*
X124571429Y-106454819D01*
X124571429Y-106454819D02*
X124761905Y-106454819D01*
X124761905Y-106454819D02*
X124857143Y-106407200D01*
X124857143Y-106407200D02*
X124904762Y-106311961D01*
X124904762Y-106311961D02*
X124904762Y-106264342D01*
X124904762Y-106264342D02*
X124857143Y-106169104D01*
X124857143Y-106169104D02*
X124761905Y-106121485D01*
X124761905Y-106121485D02*
X124619048Y-106121485D01*
X124619048Y-106121485D02*
X124523810Y-106073866D01*
X124523810Y-106073866D02*
X124476191Y-105978628D01*
X124476191Y-105978628D02*
X124476191Y-105931009D01*
X124476191Y-105931009D02*
X124523810Y-105835771D01*
X124523810Y-105835771D02*
X124619048Y-105788152D01*
X124619048Y-105788152D02*
X124761905Y-105788152D01*
X124761905Y-105788152D02*
X124857143Y-105835771D01*
X125333334Y-106359580D02*
X125380953Y-106407200D01*
X125380953Y-106407200D02*
X125333334Y-106454819D01*
X125333334Y-106454819D02*
X125285715Y-106407200D01*
X125285715Y-106407200D02*
X125333334Y-106359580D01*
X125333334Y-106359580D02*
X125333334Y-106454819D01*
X125333334Y-105835771D02*
X125380953Y-105883390D01*
X125380953Y-105883390D02*
X125333334Y-105931009D01*
X125333334Y-105931009D02*
X125285715Y-105883390D01*
X125285715Y-105883390D02*
X125333334Y-105835771D01*
X125333334Y-105835771D02*
X125333334Y-105931009D01*
X126523809Y-105407200D02*
X125666667Y-106692914D01*
X127571428Y-105407200D02*
X126714286Y-106692914D01*
X127904762Y-106454819D02*
X127904762Y-105788152D01*
X127904762Y-105978628D02*
X127952381Y-105883390D01*
X127952381Y-105883390D02*
X128000000Y-105835771D01*
X128000000Y-105835771D02*
X128095238Y-105788152D01*
X128095238Y-105788152D02*
X128190476Y-105788152D01*
X128952381Y-106454819D02*
X128952381Y-105931009D01*
X128952381Y-105931009D02*
X128904762Y-105835771D01*
X128904762Y-105835771D02*
X128809524Y-105788152D01*
X128809524Y-105788152D02*
X128619048Y-105788152D01*
X128619048Y-105788152D02*
X128523810Y-105835771D01*
X128952381Y-106407200D02*
X128857143Y-106454819D01*
X128857143Y-106454819D02*
X128619048Y-106454819D01*
X128619048Y-106454819D02*
X128523810Y-106407200D01*
X128523810Y-106407200D02*
X128476191Y-106311961D01*
X128476191Y-106311961D02*
X128476191Y-106216723D01*
X128476191Y-106216723D02*
X128523810Y-106121485D01*
X128523810Y-106121485D02*
X128619048Y-106073866D01*
X128619048Y-106073866D02*
X128857143Y-106073866D01*
X128857143Y-106073866D02*
X128952381Y-106026247D01*
X129619048Y-105454819D02*
X129714286Y-105454819D01*
X129714286Y-105454819D02*
X129809524Y-105502438D01*
X129809524Y-105502438D02*
X129857143Y-105550057D01*
X129857143Y-105550057D02*
X129904762Y-105645295D01*
X129904762Y-105645295D02*
X129952381Y-105835771D01*
X129952381Y-105835771D02*
X129952381Y-106073866D01*
X129952381Y-106073866D02*
X129904762Y-106264342D01*
X129904762Y-106264342D02*
X129857143Y-106359580D01*
X129857143Y-106359580D02*
X129809524Y-106407200D01*
X129809524Y-106407200D02*
X129714286Y-106454819D01*
X129714286Y-106454819D02*
X129619048Y-106454819D01*
X129619048Y-106454819D02*
X129523810Y-106407200D01*
X129523810Y-106407200D02*
X129476191Y-106359580D01*
X129476191Y-106359580D02*
X129428572Y-106264342D01*
X129428572Y-106264342D02*
X129380953Y-106073866D01*
X129380953Y-106073866D02*
X129380953Y-105835771D01*
X129380953Y-105835771D02*
X129428572Y-105645295D01*
X129428572Y-105645295D02*
X129476191Y-105550057D01*
X129476191Y-105550057D02*
X129523810Y-105502438D01*
X129523810Y-105502438D02*
X129619048Y-105454819D01*
X130333334Y-106407200D02*
X130428572Y-106454819D01*
X130428572Y-106454819D02*
X130619048Y-106454819D01*
X130619048Y-106454819D02*
X130714286Y-106407200D01*
X130714286Y-106407200D02*
X130761905Y-106311961D01*
X130761905Y-106311961D02*
X130761905Y-106264342D01*
X130761905Y-106264342D02*
X130714286Y-106169104D01*
X130714286Y-106169104D02*
X130619048Y-106121485D01*
X130619048Y-106121485D02*
X130476191Y-106121485D01*
X130476191Y-106121485D02*
X130380953Y-106073866D01*
X130380953Y-106073866D02*
X130333334Y-105978628D01*
X130333334Y-105978628D02*
X130333334Y-105931009D01*
X130333334Y-105931009D02*
X130380953Y-105835771D01*
X130380953Y-105835771D02*
X130476191Y-105788152D01*
X130476191Y-105788152D02*
X130619048Y-105788152D01*
X130619048Y-105788152D02*
X130714286Y-105835771D01*
X131190477Y-106454819D02*
X131190477Y-105788152D01*
X131190477Y-105883390D02*
X131238096Y-105835771D01*
X131238096Y-105835771D02*
X131333334Y-105788152D01*
X131333334Y-105788152D02*
X131476191Y-105788152D01*
X131476191Y-105788152D02*
X131571429Y-105835771D01*
X131571429Y-105835771D02*
X131619048Y-105931009D01*
X131619048Y-105931009D02*
X131619048Y-106454819D01*
X131619048Y-105931009D02*
X131666667Y-105835771D01*
X131666667Y-105835771D02*
X131761905Y-105788152D01*
X131761905Y-105788152D02*
X131904762Y-105788152D01*
X131904762Y-105788152D02*
X132000001Y-105835771D01*
X132000001Y-105835771D02*
X132047620Y-105931009D01*
X132047620Y-105931009D02*
X132047620Y-106454819D01*
X132476191Y-106407200D02*
X132571429Y-106454819D01*
X132571429Y-106454819D02*
X132761905Y-106454819D01*
X132761905Y-106454819D02*
X132857143Y-106407200D01*
X132857143Y-106407200D02*
X132904762Y-106311961D01*
X132904762Y-106311961D02*
X132904762Y-106264342D01*
X132904762Y-106264342D02*
X132857143Y-106169104D01*
X132857143Y-106169104D02*
X132761905Y-106121485D01*
X132761905Y-106121485D02*
X132619048Y-106121485D01*
X132619048Y-106121485D02*
X132523810Y-106073866D01*
X132523810Y-106073866D02*
X132476191Y-105978628D01*
X132476191Y-105978628D02*
X132476191Y-105931009D01*
X132476191Y-105931009D02*
X132523810Y-105835771D01*
X132523810Y-105835771D02*
X132619048Y-105788152D01*
X132619048Y-105788152D02*
X132761905Y-105788152D01*
X132761905Y-105788152D02*
X132857143Y-105835771D01*
X133333334Y-106359580D02*
X133380953Y-106407200D01*
X133380953Y-106407200D02*
X133333334Y-106454819D01*
X133333334Y-106454819D02*
X133285715Y-106407200D01*
X133285715Y-106407200D02*
X133333334Y-106359580D01*
X133333334Y-106359580D02*
X133333334Y-106454819D01*
X134238095Y-106407200D02*
X134142857Y-106454819D01*
X134142857Y-106454819D02*
X133952381Y-106454819D01*
X133952381Y-106454819D02*
X133857143Y-106407200D01*
X133857143Y-106407200D02*
X133809524Y-106359580D01*
X133809524Y-106359580D02*
X133761905Y-106264342D01*
X133761905Y-106264342D02*
X133761905Y-105978628D01*
X133761905Y-105978628D02*
X133809524Y-105883390D01*
X133809524Y-105883390D02*
X133857143Y-105835771D01*
X133857143Y-105835771D02*
X133952381Y-105788152D01*
X133952381Y-105788152D02*
X134142857Y-105788152D01*
X134142857Y-105788152D02*
X134238095Y-105835771D01*
X134809524Y-106454819D02*
X134714286Y-106407200D01*
X134714286Y-106407200D02*
X134666667Y-106359580D01*
X134666667Y-106359580D02*
X134619048Y-106264342D01*
X134619048Y-106264342D02*
X134619048Y-105978628D01*
X134619048Y-105978628D02*
X134666667Y-105883390D01*
X134666667Y-105883390D02*
X134714286Y-105835771D01*
X134714286Y-105835771D02*
X134809524Y-105788152D01*
X134809524Y-105788152D02*
X134952381Y-105788152D01*
X134952381Y-105788152D02*
X135047619Y-105835771D01*
X135047619Y-105835771D02*
X135095238Y-105883390D01*
X135095238Y-105883390D02*
X135142857Y-105978628D01*
X135142857Y-105978628D02*
X135142857Y-106264342D01*
X135142857Y-106264342D02*
X135095238Y-106359580D01*
X135095238Y-106359580D02*
X135047619Y-106407200D01*
X135047619Y-106407200D02*
X134952381Y-106454819D01*
X134952381Y-106454819D02*
X134809524Y-106454819D01*
X135571429Y-106454819D02*
X135571429Y-105788152D01*
X135571429Y-105883390D02*
X135619048Y-105835771D01*
X135619048Y-105835771D02*
X135714286Y-105788152D01*
X135714286Y-105788152D02*
X135857143Y-105788152D01*
X135857143Y-105788152D02*
X135952381Y-105835771D01*
X135952381Y-105835771D02*
X136000000Y-105931009D01*
X136000000Y-105931009D02*
X136000000Y-106454819D01*
X136000000Y-105931009D02*
X136047619Y-105835771D01*
X136047619Y-105835771D02*
X136142857Y-105788152D01*
X136142857Y-105788152D02*
X136285714Y-105788152D01*
X136285714Y-105788152D02*
X136380953Y-105835771D01*
X136380953Y-105835771D02*
X136428572Y-105931009D01*
X136428572Y-105931009D02*
X136428572Y-106454819D01*
X168320048Y-86676245D02*
X168224810Y-86628626D01*
X168224810Y-86628626D02*
X168081953Y-86628626D01*
X168081953Y-86628626D02*
X167939096Y-86676245D01*
X167939096Y-86676245D02*
X167843858Y-86771483D01*
X167843858Y-86771483D02*
X167796239Y-86866721D01*
X167796239Y-86866721D02*
X167748620Y-87057197D01*
X167748620Y-87057197D02*
X167748620Y-87200054D01*
X167748620Y-87200054D02*
X167796239Y-87390530D01*
X167796239Y-87390530D02*
X167843858Y-87485768D01*
X167843858Y-87485768D02*
X167939096Y-87581007D01*
X167939096Y-87581007D02*
X168081953Y-87628626D01*
X168081953Y-87628626D02*
X168177191Y-87628626D01*
X168177191Y-87628626D02*
X168320048Y-87581007D01*
X168320048Y-87581007D02*
X168367667Y-87533387D01*
X168367667Y-87533387D02*
X168367667Y-87200054D01*
X168367667Y-87200054D02*
X168177191Y-87200054D01*
X168796239Y-87628626D02*
X168796239Y-86628626D01*
X168796239Y-86628626D02*
X169367667Y-87628626D01*
X169367667Y-87628626D02*
X169367667Y-86628626D01*
X169843858Y-87628626D02*
X169843858Y-86628626D01*
X169843858Y-86628626D02*
X170081953Y-86628626D01*
X170081953Y-86628626D02*
X170224810Y-86676245D01*
X170224810Y-86676245D02*
X170320048Y-86771483D01*
X170320048Y-86771483D02*
X170367667Y-86866721D01*
X170367667Y-86866721D02*
X170415286Y-87057197D01*
X170415286Y-87057197D02*
X170415286Y-87200054D01*
X170415286Y-87200054D02*
X170367667Y-87390530D01*
X170367667Y-87390530D02*
X170320048Y-87485768D01*
X170320048Y-87485768D02*
X170224810Y-87581007D01*
X170224810Y-87581007D02*
X170081953Y-87628626D01*
X170081953Y-87628626D02*
X169843858Y-87628626D01*
X118166667Y-61454819D02*
X118166667Y-60454819D01*
X118166667Y-60454819D02*
X118547619Y-60454819D01*
X118547619Y-60454819D02*
X118642857Y-60502438D01*
X118642857Y-60502438D02*
X118690476Y-60550057D01*
X118690476Y-60550057D02*
X118738095Y-60645295D01*
X118738095Y-60645295D02*
X118738095Y-60788152D01*
X118738095Y-60788152D02*
X118690476Y-60883390D01*
X118690476Y-60883390D02*
X118642857Y-60931009D01*
X118642857Y-60931009D02*
X118547619Y-60978628D01*
X118547619Y-60978628D02*
X118166667Y-60978628D01*
X119071429Y-60454819D02*
X119309524Y-61454819D01*
X119309524Y-61454819D02*
X119500000Y-60740533D01*
X119500000Y-60740533D02*
X119690476Y-61454819D01*
X119690476Y-61454819D02*
X119928572Y-60454819D01*
X120880952Y-61454819D02*
X120547619Y-60978628D01*
X120309524Y-61454819D02*
X120309524Y-60454819D01*
X120309524Y-60454819D02*
X120690476Y-60454819D01*
X120690476Y-60454819D02*
X120785714Y-60502438D01*
X120785714Y-60502438D02*
X120833333Y-60550057D01*
X120833333Y-60550057D02*
X120880952Y-60645295D01*
X120880952Y-60645295D02*
X120880952Y-60788152D01*
X120880952Y-60788152D02*
X120833333Y-60883390D01*
X120833333Y-60883390D02*
X120785714Y-60931009D01*
X120785714Y-60931009D02*
X120690476Y-60978628D01*
X120690476Y-60978628D02*
X120309524Y-60978628D01*
X157428571Y-83383390D02*
X157333333Y-83335771D01*
X157333333Y-83335771D02*
X157285714Y-83288152D01*
X157285714Y-83288152D02*
X157238095Y-83192914D01*
X157238095Y-83192914D02*
X157238095Y-83145295D01*
X157238095Y-83145295D02*
X157285714Y-83050057D01*
X157285714Y-83050057D02*
X157333333Y-83002438D01*
X157333333Y-83002438D02*
X157428571Y-82954819D01*
X157428571Y-82954819D02*
X157619047Y-82954819D01*
X157619047Y-82954819D02*
X157714285Y-83002438D01*
X157714285Y-83002438D02*
X157761904Y-83050057D01*
X157761904Y-83050057D02*
X157809523Y-83145295D01*
X157809523Y-83145295D02*
X157809523Y-83192914D01*
X157809523Y-83192914D02*
X157761904Y-83288152D01*
X157761904Y-83288152D02*
X157714285Y-83335771D01*
X157714285Y-83335771D02*
X157619047Y-83383390D01*
X157619047Y-83383390D02*
X157428571Y-83383390D01*
X157428571Y-83383390D02*
X157333333Y-83431009D01*
X157333333Y-83431009D02*
X157285714Y-83478628D01*
X157285714Y-83478628D02*
X157238095Y-83573866D01*
X157238095Y-83573866D02*
X157238095Y-83764342D01*
X157238095Y-83764342D02*
X157285714Y-83859580D01*
X157285714Y-83859580D02*
X157333333Y-83907200D01*
X157333333Y-83907200D02*
X157428571Y-83954819D01*
X157428571Y-83954819D02*
X157619047Y-83954819D01*
X157619047Y-83954819D02*
X157714285Y-83907200D01*
X157714285Y-83907200D02*
X157761904Y-83859580D01*
X157761904Y-83859580D02*
X157809523Y-83764342D01*
X157809523Y-83764342D02*
X157809523Y-83573866D01*
X157809523Y-83573866D02*
X157761904Y-83478628D01*
X157761904Y-83478628D02*
X157714285Y-83431009D01*
X157714285Y-83431009D02*
X157619047Y-83383390D01*
X158190476Y-83050057D02*
X158238095Y-83002438D01*
X158238095Y-83002438D02*
X158333333Y-82954819D01*
X158333333Y-82954819D02*
X158571428Y-82954819D01*
X158571428Y-82954819D02*
X158666666Y-83002438D01*
X158666666Y-83002438D02*
X158714285Y-83050057D01*
X158714285Y-83050057D02*
X158761904Y-83145295D01*
X158761904Y-83145295D02*
X158761904Y-83240533D01*
X158761904Y-83240533D02*
X158714285Y-83383390D01*
X158714285Y-83383390D02*
X158142857Y-83954819D01*
X158142857Y-83954819D02*
X158761904Y-83954819D01*
X172104819Y-103547618D02*
X172104819Y-102976190D01*
X173104819Y-103261904D02*
X172104819Y-103261904D01*
X172104819Y-102452380D02*
X172104819Y-102261904D01*
X172104819Y-102261904D02*
X172152438Y-102166666D01*
X172152438Y-102166666D02*
X172247676Y-102071428D01*
X172247676Y-102071428D02*
X172438152Y-102023809D01*
X172438152Y-102023809D02*
X172771485Y-102023809D01*
X172771485Y-102023809D02*
X172961961Y-102071428D01*
X172961961Y-102071428D02*
X173057200Y-102166666D01*
X173057200Y-102166666D02*
X173104819Y-102261904D01*
X173104819Y-102261904D02*
X173104819Y-102452380D01*
X173104819Y-102452380D02*
X173057200Y-102547618D01*
X173057200Y-102547618D02*
X172961961Y-102642856D01*
X172961961Y-102642856D02*
X172771485Y-102690475D01*
X172771485Y-102690475D02*
X172438152Y-102690475D01*
X172438152Y-102690475D02*
X172247676Y-102642856D01*
X172247676Y-102642856D02*
X172152438Y-102547618D01*
X172152438Y-102547618D02*
X172104819Y-102452380D01*
X173200057Y-101833333D02*
X173200057Y-101071428D01*
X172104819Y-100976189D02*
X172104819Y-100404761D01*
X173104819Y-100690475D02*
X172104819Y-100690475D01*
X173104819Y-99499999D02*
X172628628Y-99833332D01*
X173104819Y-100071427D02*
X172104819Y-100071427D01*
X172104819Y-100071427D02*
X172104819Y-99690475D01*
X172104819Y-99690475D02*
X172152438Y-99595237D01*
X172152438Y-99595237D02*
X172200057Y-99547618D01*
X172200057Y-99547618D02*
X172295295Y-99499999D01*
X172295295Y-99499999D02*
X172438152Y-99499999D01*
X172438152Y-99499999D02*
X172533390Y-99547618D01*
X172533390Y-99547618D02*
X172581009Y-99595237D01*
X172581009Y-99595237D02*
X172628628Y-99690475D01*
X172628628Y-99690475D02*
X172628628Y-100071427D01*
X172104819Y-99166665D02*
X173104819Y-98499999D01*
X172104819Y-98499999D02*
X173104819Y-99166665D01*
X111454819Y-100690476D02*
X111454819Y-101261904D01*
X111454819Y-100976190D02*
X110454819Y-100976190D01*
X110454819Y-100976190D02*
X110597676Y-101071428D01*
X110597676Y-101071428D02*
X110692914Y-101166666D01*
X110692914Y-101166666D02*
X110740533Y-101261904D01*
X110550057Y-100309523D02*
X110502438Y-100261904D01*
X110502438Y-100261904D02*
X110454819Y-100166666D01*
X110454819Y-100166666D02*
X110454819Y-99928571D01*
X110454819Y-99928571D02*
X110502438Y-99833333D01*
X110502438Y-99833333D02*
X110550057Y-99785714D01*
X110550057Y-99785714D02*
X110645295Y-99738095D01*
X110645295Y-99738095D02*
X110740533Y-99738095D01*
X110740533Y-99738095D02*
X110883390Y-99785714D01*
X110883390Y-99785714D02*
X111454819Y-100357142D01*
X111454819Y-100357142D02*
X111454819Y-99738095D01*
X111454819Y-99309523D02*
X110454819Y-99309523D01*
X110454819Y-99309523D02*
X111169104Y-98976190D01*
X111169104Y-98976190D02*
X110454819Y-98642857D01*
X110454819Y-98642857D02*
X111454819Y-98642857D01*
X111454819Y-98166666D02*
X110454819Y-98166666D01*
X110931009Y-98166666D02*
X110931009Y-97595238D01*
X111454819Y-97595238D02*
X110454819Y-97595238D01*
X110788152Y-97214285D02*
X110788152Y-96690476D01*
X110788152Y-96690476D02*
X111454819Y-97214285D01*
X111454819Y-97214285D02*
X111454819Y-96690476D01*
X146838095Y-68029580D02*
X146790476Y-68077200D01*
X146790476Y-68077200D02*
X146647619Y-68124819D01*
X146647619Y-68124819D02*
X146552381Y-68124819D01*
X146552381Y-68124819D02*
X146409524Y-68077200D01*
X146409524Y-68077200D02*
X146314286Y-67981961D01*
X146314286Y-67981961D02*
X146266667Y-67886723D01*
X146266667Y-67886723D02*
X146219048Y-67696247D01*
X146219048Y-67696247D02*
X146219048Y-67553390D01*
X146219048Y-67553390D02*
X146266667Y-67362914D01*
X146266667Y-67362914D02*
X146314286Y-67267676D01*
X146314286Y-67267676D02*
X146409524Y-67172438D01*
X146409524Y-67172438D02*
X146552381Y-67124819D01*
X146552381Y-67124819D02*
X146647619Y-67124819D01*
X146647619Y-67124819D02*
X146790476Y-67172438D01*
X146790476Y-67172438D02*
X146838095Y-67220057D01*
X147171429Y-67124819D02*
X147409524Y-68124819D01*
X147409524Y-68124819D02*
X147600000Y-67410533D01*
X147600000Y-67410533D02*
X147790476Y-68124819D01*
X147790476Y-68124819D02*
X148028572Y-67124819D01*
X173009580Y-66761904D02*
X173057200Y-66809523D01*
X173057200Y-66809523D02*
X173104819Y-66952380D01*
X173104819Y-66952380D02*
X173104819Y-67047618D01*
X173104819Y-67047618D02*
X173057200Y-67190475D01*
X173057200Y-67190475D02*
X172961961Y-67285713D01*
X172961961Y-67285713D02*
X172866723Y-67333332D01*
X172866723Y-67333332D02*
X172676247Y-67380951D01*
X172676247Y-67380951D02*
X172533390Y-67380951D01*
X172533390Y-67380951D02*
X172342914Y-67333332D01*
X172342914Y-67333332D02*
X172247676Y-67285713D01*
X172247676Y-67285713D02*
X172152438Y-67190475D01*
X172152438Y-67190475D02*
X172104819Y-67047618D01*
X172104819Y-67047618D02*
X172104819Y-66952380D01*
X172104819Y-66952380D02*
X172152438Y-66809523D01*
X172152438Y-66809523D02*
X172200057Y-66761904D01*
X172104819Y-66428570D02*
X173104819Y-66190475D01*
X173104819Y-66190475D02*
X172390533Y-65999999D01*
X172390533Y-65999999D02*
X173104819Y-65809523D01*
X173104819Y-65809523D02*
X172104819Y-65571428D01*
X172581009Y-92690476D02*
X172581009Y-93023809D01*
X173104819Y-93023809D02*
X172104819Y-93023809D01*
X172104819Y-93023809D02*
X172104819Y-92547619D01*
X173104819Y-91595238D02*
X172628628Y-91928571D01*
X173104819Y-92166666D02*
X172104819Y-92166666D01*
X172104819Y-92166666D02*
X172104819Y-91785714D01*
X172104819Y-91785714D02*
X172152438Y-91690476D01*
X172152438Y-91690476D02*
X172200057Y-91642857D01*
X172200057Y-91642857D02*
X172295295Y-91595238D01*
X172295295Y-91595238D02*
X172438152Y-91595238D01*
X172438152Y-91595238D02*
X172533390Y-91642857D01*
X172533390Y-91642857D02*
X172581009Y-91690476D01*
X172581009Y-91690476D02*
X172628628Y-91785714D01*
X172628628Y-91785714D02*
X172628628Y-92166666D01*
X172104819Y-90976190D02*
X172104819Y-90785714D01*
X172104819Y-90785714D02*
X172152438Y-90690476D01*
X172152438Y-90690476D02*
X172247676Y-90595238D01*
X172247676Y-90595238D02*
X172438152Y-90547619D01*
X172438152Y-90547619D02*
X172771485Y-90547619D01*
X172771485Y-90547619D02*
X172961961Y-90595238D01*
X172961961Y-90595238D02*
X173057200Y-90690476D01*
X173057200Y-90690476D02*
X173104819Y-90785714D01*
X173104819Y-90785714D02*
X173104819Y-90976190D01*
X173104819Y-90976190D02*
X173057200Y-91071428D01*
X173057200Y-91071428D02*
X172961961Y-91166666D01*
X172961961Y-91166666D02*
X172771485Y-91214285D01*
X172771485Y-91214285D02*
X172438152Y-91214285D01*
X172438152Y-91214285D02*
X172247676Y-91166666D01*
X172247676Y-91166666D02*
X172152438Y-91071428D01*
X172152438Y-91071428D02*
X172104819Y-90976190D01*
X173104819Y-90119047D02*
X172104819Y-90119047D01*
X172104819Y-90119047D02*
X172819104Y-89785714D01*
X172819104Y-89785714D02*
X172104819Y-89452381D01*
X172104819Y-89452381D02*
X173104819Y-89452381D01*
X173200057Y-89214286D02*
X173200057Y-88452381D01*
X172104819Y-88357142D02*
X172104819Y-87785714D01*
X173104819Y-88071428D02*
X172104819Y-88071428D01*
X173104819Y-86880952D02*
X172628628Y-87214285D01*
X173104819Y-87452380D02*
X172104819Y-87452380D01*
X172104819Y-87452380D02*
X172104819Y-87071428D01*
X172104819Y-87071428D02*
X172152438Y-86976190D01*
X172152438Y-86976190D02*
X172200057Y-86928571D01*
X172200057Y-86928571D02*
X172295295Y-86880952D01*
X172295295Y-86880952D02*
X172438152Y-86880952D01*
X172438152Y-86880952D02*
X172533390Y-86928571D01*
X172533390Y-86928571D02*
X172581009Y-86976190D01*
X172581009Y-86976190D02*
X172628628Y-87071428D01*
X172628628Y-87071428D02*
X172628628Y-87452380D01*
X172104819Y-86547618D02*
X173104819Y-85880952D01*
X172104819Y-85880952D02*
X173104819Y-86547618D01*
X111454819Y-69190476D02*
X111454819Y-69761904D01*
X111454819Y-69476190D02*
X110454819Y-69476190D01*
X110454819Y-69476190D02*
X110597676Y-69571428D01*
X110597676Y-69571428D02*
X110692914Y-69666666D01*
X110692914Y-69666666D02*
X110740533Y-69761904D01*
X110550057Y-68809523D02*
X110502438Y-68761904D01*
X110502438Y-68761904D02*
X110454819Y-68666666D01*
X110454819Y-68666666D02*
X110454819Y-68428571D01*
X110454819Y-68428571D02*
X110502438Y-68333333D01*
X110502438Y-68333333D02*
X110550057Y-68285714D01*
X110550057Y-68285714D02*
X110645295Y-68238095D01*
X110645295Y-68238095D02*
X110740533Y-68238095D01*
X110740533Y-68238095D02*
X110883390Y-68285714D01*
X110883390Y-68285714D02*
X111454819Y-68857142D01*
X111454819Y-68857142D02*
X111454819Y-68238095D01*
X111454819Y-67809523D02*
X110454819Y-67809523D01*
X110454819Y-67809523D02*
X111169104Y-67476190D01*
X111169104Y-67476190D02*
X110454819Y-67142857D01*
X110454819Y-67142857D02*
X111454819Y-67142857D01*
X111454819Y-66666666D02*
X110454819Y-66666666D01*
X110931009Y-66666666D02*
X110931009Y-66095238D01*
X111454819Y-66095238D02*
X110454819Y-66095238D01*
X110788152Y-65714285D02*
X110788152Y-65190476D01*
X110788152Y-65190476D02*
X111454819Y-65714285D01*
X111454819Y-65714285D02*
X111454819Y-65190476D01*
X124833333Y-88124819D02*
X124261905Y-88124819D01*
X124547619Y-88124819D02*
X124547619Y-87124819D01*
X124547619Y-87124819D02*
X124452381Y-87267676D01*
X124452381Y-87267676D02*
X124357143Y-87362914D01*
X124357143Y-87362914D02*
X124261905Y-87410533D01*
X125452381Y-87124819D02*
X125547619Y-87124819D01*
X125547619Y-87124819D02*
X125642857Y-87172438D01*
X125642857Y-87172438D02*
X125690476Y-87220057D01*
X125690476Y-87220057D02*
X125738095Y-87315295D01*
X125738095Y-87315295D02*
X125785714Y-87505771D01*
X125785714Y-87505771D02*
X125785714Y-87743866D01*
X125785714Y-87743866D02*
X125738095Y-87934342D01*
X125738095Y-87934342D02*
X125690476Y-88029580D01*
X125690476Y-88029580D02*
X125642857Y-88077200D01*
X125642857Y-88077200D02*
X125547619Y-88124819D01*
X125547619Y-88124819D02*
X125452381Y-88124819D01*
X125452381Y-88124819D02*
X125357143Y-88077200D01*
X125357143Y-88077200D02*
X125309524Y-88029580D01*
X125309524Y-88029580D02*
X125261905Y-87934342D01*
X125261905Y-87934342D02*
X125214286Y-87743866D01*
X125214286Y-87743866D02*
X125214286Y-87505771D01*
X125214286Y-87505771D02*
X125261905Y-87315295D01*
X125261905Y-87315295D02*
X125309524Y-87220057D01*
X125309524Y-87220057D02*
X125357143Y-87172438D01*
X125357143Y-87172438D02*
X125452381Y-87124819D01*
X126642857Y-87458152D02*
X126642857Y-88124819D01*
X126214286Y-87458152D02*
X126214286Y-87981961D01*
X126214286Y-87981961D02*
X126261905Y-88077200D01*
X126261905Y-88077200D02*
X126357143Y-88124819D01*
X126357143Y-88124819D02*
X126500000Y-88124819D01*
X126500000Y-88124819D02*
X126595238Y-88077200D01*
X126595238Y-88077200D02*
X126642857Y-88029580D01*
X127119048Y-88124819D02*
X127119048Y-87124819D01*
X127119048Y-87601009D02*
X127690476Y-87601009D01*
X127690476Y-88124819D02*
X127690476Y-87124819D01*
X168003507Y-80252838D02*
X168003507Y-79252838D01*
X168003507Y-79252838D02*
X168384459Y-79252838D01*
X168384459Y-79252838D02*
X168479697Y-79300457D01*
X168479697Y-79300457D02*
X168527316Y-79348076D01*
X168527316Y-79348076D02*
X168574935Y-79443314D01*
X168574935Y-79443314D02*
X168574935Y-79586171D01*
X168574935Y-79586171D02*
X168527316Y-79681409D01*
X168527316Y-79681409D02*
X168479697Y-79729028D01*
X168479697Y-79729028D02*
X168384459Y-79776647D01*
X168384459Y-79776647D02*
X168003507Y-79776647D01*
X168860650Y-79252838D02*
X169432078Y-79252838D01*
X169146364Y-80252838D02*
X169146364Y-79252838D01*
X169622555Y-79252838D02*
X170193983Y-79252838D01*
X169908269Y-80252838D02*
X169908269Y-79252838D01*
D11*
X124824402Y-80428571D02*
X124867260Y-80471428D01*
X124867260Y-80471428D02*
X124910117Y-80600000D01*
X124910117Y-80600000D02*
X124910117Y-80685714D01*
X124910117Y-80685714D02*
X124867260Y-80814285D01*
X124867260Y-80814285D02*
X124781545Y-80900000D01*
X124781545Y-80900000D02*
X124695831Y-80942857D01*
X124695831Y-80942857D02*
X124524402Y-80985714D01*
X124524402Y-80985714D02*
X124395831Y-80985714D01*
X124395831Y-80985714D02*
X124224402Y-80942857D01*
X124224402Y-80942857D02*
X124138688Y-80900000D01*
X124138688Y-80900000D02*
X124052974Y-80814285D01*
X124052974Y-80814285D02*
X124010117Y-80685714D01*
X124010117Y-80685714D02*
X124010117Y-80600000D01*
X124010117Y-80600000D02*
X124052974Y-80471428D01*
X124052974Y-80471428D02*
X124095831Y-80428571D01*
X124910117Y-80042857D02*
X124010117Y-80042857D01*
X124438688Y-80042857D02*
X124438688Y-79528571D01*
X124910117Y-79528571D02*
X124010117Y-79528571D01*
X124010117Y-79185714D02*
X124010117Y-78628571D01*
X124010117Y-78628571D02*
X124352974Y-78928571D01*
X124352974Y-78928571D02*
X124352974Y-78800000D01*
X124352974Y-78800000D02*
X124395831Y-78714286D01*
X124395831Y-78714286D02*
X124438688Y-78671428D01*
X124438688Y-78671428D02*
X124524402Y-78628571D01*
X124524402Y-78628571D02*
X124738688Y-78628571D01*
X124738688Y-78628571D02*
X124824402Y-78671428D01*
X124824402Y-78671428D02*
X124867260Y-78714286D01*
X124867260Y-78714286D02*
X124910117Y-78800000D01*
X124910117Y-78800000D02*
X124910117Y-79057143D01*
X124910117Y-79057143D02*
X124867260Y-79142857D01*
X124867260Y-79142857D02*
X124824402Y-79185714D01*
X124010117Y-78328571D02*
X124010117Y-77771428D01*
X124010117Y-77771428D02*
X124352974Y-78071428D01*
X124352974Y-78071428D02*
X124352974Y-77942857D01*
X124352974Y-77942857D02*
X124395831Y-77857143D01*
X124395831Y-77857143D02*
X124438688Y-77814285D01*
X124438688Y-77814285D02*
X124524402Y-77771428D01*
X124524402Y-77771428D02*
X124738688Y-77771428D01*
X124738688Y-77771428D02*
X124824402Y-77814285D01*
X124824402Y-77814285D02*
X124867260Y-77857143D01*
X124867260Y-77857143D02*
X124910117Y-77942857D01*
X124910117Y-77942857D02*
X124910117Y-78200000D01*
X124910117Y-78200000D02*
X124867260Y-78285714D01*
X124867260Y-78285714D02*
X124824402Y-78328571D01*
X124310117Y-77000000D02*
X124910117Y-77000000D01*
X123967260Y-77214285D02*
X124610117Y-77428571D01*
X124610117Y-77428571D02*
X124610117Y-76871428D01*
X124910117Y-76014285D02*
X124481545Y-76314285D01*
X124910117Y-76528571D02*
X124010117Y-76528571D01*
X124010117Y-76528571D02*
X124010117Y-76185714D01*
X124010117Y-76185714D02*
X124052974Y-76099999D01*
X124052974Y-76099999D02*
X124095831Y-76057142D01*
X124095831Y-76057142D02*
X124181545Y-76014285D01*
X124181545Y-76014285D02*
X124310117Y-76014285D01*
X124310117Y-76014285D02*
X124395831Y-76057142D01*
X124395831Y-76057142D02*
X124438688Y-76099999D01*
X124438688Y-76099999D02*
X124481545Y-76185714D01*
X124481545Y-76185714D02*
X124481545Y-76528571D01*
D13*
X132384580Y-72007857D02*
X132432200Y-72055476D01*
X132432200Y-72055476D02*
X132479819Y-72198333D01*
X132479819Y-72198333D02*
X132479819Y-72293571D01*
X132479819Y-72293571D02*
X132432200Y-72436428D01*
X132432200Y-72436428D02*
X132336961Y-72531666D01*
X132336961Y-72531666D02*
X132241723Y-72579285D01*
X132241723Y-72579285D02*
X132051247Y-72626904D01*
X132051247Y-72626904D02*
X131908390Y-72626904D01*
X131908390Y-72626904D02*
X131717914Y-72579285D01*
X131717914Y-72579285D02*
X131622676Y-72531666D01*
X131622676Y-72531666D02*
X131527438Y-72436428D01*
X131527438Y-72436428D02*
X131479819Y-72293571D01*
X131479819Y-72293571D02*
X131479819Y-72198333D01*
X131479819Y-72198333D02*
X131527438Y-72055476D01*
X131527438Y-72055476D02*
X131575057Y-72007857D01*
X132479819Y-71579285D02*
X131479819Y-71579285D01*
X131956009Y-71579285D02*
X131956009Y-71007857D01*
X132479819Y-71007857D02*
X131479819Y-71007857D01*
X131479819Y-70626904D02*
X131479819Y-70007857D01*
X131479819Y-70007857D02*
X131860771Y-70341190D01*
X131860771Y-70341190D02*
X131860771Y-70198333D01*
X131860771Y-70198333D02*
X131908390Y-70103095D01*
X131908390Y-70103095D02*
X131956009Y-70055476D01*
X131956009Y-70055476D02*
X132051247Y-70007857D01*
X132051247Y-70007857D02*
X132289342Y-70007857D01*
X132289342Y-70007857D02*
X132384580Y-70055476D01*
X132384580Y-70055476D02*
X132432200Y-70103095D01*
X132432200Y-70103095D02*
X132479819Y-70198333D01*
X132479819Y-70198333D02*
X132479819Y-70484047D01*
X132479819Y-70484047D02*
X132432200Y-70579285D01*
X132432200Y-70579285D02*
X132384580Y-70626904D01*
X131813152Y-69150714D02*
X132479819Y-69150714D01*
X131432200Y-69388809D02*
X132146485Y-69626904D01*
X132146485Y-69626904D02*
X132146485Y-69007857D01*
X131479819Y-68436428D02*
X131479819Y-68341190D01*
X131479819Y-68341190D02*
X131527438Y-68245952D01*
X131527438Y-68245952D02*
X131575057Y-68198333D01*
X131575057Y-68198333D02*
X131670295Y-68150714D01*
X131670295Y-68150714D02*
X131860771Y-68103095D01*
X131860771Y-68103095D02*
X132098866Y-68103095D01*
X132098866Y-68103095D02*
X132289342Y-68150714D01*
X132289342Y-68150714D02*
X132384580Y-68198333D01*
X132384580Y-68198333D02*
X132432200Y-68245952D01*
X132432200Y-68245952D02*
X132479819Y-68341190D01*
X132479819Y-68341190D02*
X132479819Y-68436428D01*
X132479819Y-68436428D02*
X132432200Y-68531666D01*
X132432200Y-68531666D02*
X132384580Y-68579285D01*
X132384580Y-68579285D02*
X132289342Y-68626904D01*
X132289342Y-68626904D02*
X132098866Y-68674523D01*
X132098866Y-68674523D02*
X131860771Y-68674523D01*
X131860771Y-68674523D02*
X131670295Y-68626904D01*
X131670295Y-68626904D02*
X131575057Y-68579285D01*
X131575057Y-68579285D02*
X131527438Y-68531666D01*
X131527438Y-68531666D02*
X131479819Y-68436428D01*
X132384580Y-67103095D02*
X132432200Y-67150714D01*
X132432200Y-67150714D02*
X132479819Y-67293571D01*
X132479819Y-67293571D02*
X132479819Y-67388809D01*
X132479819Y-67388809D02*
X132432200Y-67531666D01*
X132432200Y-67531666D02*
X132336961Y-67626904D01*
X132336961Y-67626904D02*
X132241723Y-67674523D01*
X132241723Y-67674523D02*
X132051247Y-67722142D01*
X132051247Y-67722142D02*
X131908390Y-67722142D01*
X131908390Y-67722142D02*
X131717914Y-67674523D01*
X131717914Y-67674523D02*
X131622676Y-67626904D01*
X131622676Y-67626904D02*
X131527438Y-67531666D01*
X131527438Y-67531666D02*
X131479819Y-67388809D01*
X131479819Y-67388809D02*
X131479819Y-67293571D01*
X131479819Y-67293571D02*
X131527438Y-67150714D01*
X131527438Y-67150714D02*
X131575057Y-67103095D01*
X118880952Y-68954819D02*
X118309524Y-68954819D01*
X118595238Y-68954819D02*
X118595238Y-67954819D01*
X118595238Y-67954819D02*
X118500000Y-68097676D01*
X118500000Y-68097676D02*
X118404762Y-68192914D01*
X118404762Y-68192914D02*
X118309524Y-68240533D01*
X119500000Y-67954819D02*
X119595238Y-67954819D01*
X119595238Y-67954819D02*
X119690476Y-68002438D01*
X119690476Y-68002438D02*
X119738095Y-68050057D01*
X119738095Y-68050057D02*
X119785714Y-68145295D01*
X119785714Y-68145295D02*
X119833333Y-68335771D01*
X119833333Y-68335771D02*
X119833333Y-68573866D01*
X119833333Y-68573866D02*
X119785714Y-68764342D01*
X119785714Y-68764342D02*
X119738095Y-68859580D01*
X119738095Y-68859580D02*
X119690476Y-68907200D01*
X119690476Y-68907200D02*
X119595238Y-68954819D01*
X119595238Y-68954819D02*
X119500000Y-68954819D01*
X119500000Y-68954819D02*
X119404762Y-68907200D01*
X119404762Y-68907200D02*
X119357143Y-68859580D01*
X119357143Y-68859580D02*
X119309524Y-68764342D01*
X119309524Y-68764342D02*
X119261905Y-68573866D01*
X119261905Y-68573866D02*
X119261905Y-68335771D01*
X119261905Y-68335771D02*
X119309524Y-68145295D01*
X119309524Y-68145295D02*
X119357143Y-68050057D01*
X119357143Y-68050057D02*
X119404762Y-68002438D01*
X119404762Y-68002438D02*
X119500000Y-67954819D01*
X120452381Y-67954819D02*
X120547619Y-67954819D01*
X120547619Y-67954819D02*
X120642857Y-68002438D01*
X120642857Y-68002438D02*
X120690476Y-68050057D01*
X120690476Y-68050057D02*
X120738095Y-68145295D01*
X120738095Y-68145295D02*
X120785714Y-68335771D01*
X120785714Y-68335771D02*
X120785714Y-68573866D01*
X120785714Y-68573866D02*
X120738095Y-68764342D01*
X120738095Y-68764342D02*
X120690476Y-68859580D01*
X120690476Y-68859580D02*
X120642857Y-68907200D01*
X120642857Y-68907200D02*
X120547619Y-68954819D01*
X120547619Y-68954819D02*
X120452381Y-68954819D01*
X120452381Y-68954819D02*
X120357143Y-68907200D01*
X120357143Y-68907200D02*
X120309524Y-68859580D01*
X120309524Y-68859580D02*
X120261905Y-68764342D01*
X120261905Y-68764342D02*
X120214286Y-68573866D01*
X120214286Y-68573866D02*
X120214286Y-68335771D01*
X120214286Y-68335771D02*
X120261905Y-68145295D01*
X120261905Y-68145295D02*
X120309524Y-68050057D01*
X120309524Y-68050057D02*
X120357143Y-68002438D01*
X120357143Y-68002438D02*
X120452381Y-67954819D01*
X121214286Y-68288152D02*
X121214286Y-68954819D01*
X121214286Y-68383390D02*
X121261905Y-68335771D01*
X121261905Y-68335771D02*
X121357143Y-68288152D01*
X121357143Y-68288152D02*
X121500000Y-68288152D01*
X121500000Y-68288152D02*
X121595238Y-68335771D01*
X121595238Y-68335771D02*
X121642857Y-68431009D01*
X121642857Y-68431009D02*
X121642857Y-68954819D01*
X146076190Y-64124819D02*
X146076190Y-63124819D01*
X146076190Y-63124819D02*
X146457142Y-63124819D01*
X146457142Y-63124819D02*
X146552380Y-63172438D01*
X146552380Y-63172438D02*
X146599999Y-63220057D01*
X146599999Y-63220057D02*
X146647618Y-63315295D01*
X146647618Y-63315295D02*
X146647618Y-63458152D01*
X146647618Y-63458152D02*
X146599999Y-63553390D01*
X146599999Y-63553390D02*
X146552380Y-63601009D01*
X146552380Y-63601009D02*
X146457142Y-63648628D01*
X146457142Y-63648628D02*
X146076190Y-63648628D01*
X146933333Y-63124819D02*
X147504761Y-63124819D01*
X147219047Y-64124819D02*
X147219047Y-63124819D01*
X147695238Y-63124819D02*
X148266666Y-63124819D01*
X147980952Y-64124819D02*
X147980952Y-63124819D01*
D11*
X140012981Y-84061882D02*
X139584409Y-84061882D01*
X139584409Y-84061882D02*
X139584409Y-83161882D01*
X140184409Y-83161882D02*
X140698695Y-83161882D01*
X140441552Y-84061882D02*
X140441552Y-83161882D01*
X140870123Y-83161882D02*
X141170123Y-84061882D01*
X141170123Y-84061882D02*
X141470123Y-83161882D01*
X141770123Y-83719025D02*
X142455838Y-83719025D01*
X143012981Y-83547596D02*
X142927266Y-83504739D01*
X142927266Y-83504739D02*
X142884409Y-83461882D01*
X142884409Y-83461882D02*
X142841552Y-83376167D01*
X142841552Y-83376167D02*
X142841552Y-83333310D01*
X142841552Y-83333310D02*
X142884409Y-83247596D01*
X142884409Y-83247596D02*
X142927266Y-83204739D01*
X142927266Y-83204739D02*
X143012981Y-83161882D01*
X143012981Y-83161882D02*
X143184409Y-83161882D01*
X143184409Y-83161882D02*
X143270124Y-83204739D01*
X143270124Y-83204739D02*
X143312981Y-83247596D01*
X143312981Y-83247596D02*
X143355838Y-83333310D01*
X143355838Y-83333310D02*
X143355838Y-83376167D01*
X143355838Y-83376167D02*
X143312981Y-83461882D01*
X143312981Y-83461882D02*
X143270124Y-83504739D01*
X143270124Y-83504739D02*
X143184409Y-83547596D01*
X143184409Y-83547596D02*
X143012981Y-83547596D01*
X143012981Y-83547596D02*
X142927266Y-83590453D01*
X142927266Y-83590453D02*
X142884409Y-83633310D01*
X142884409Y-83633310D02*
X142841552Y-83719025D01*
X142841552Y-83719025D02*
X142841552Y-83890453D01*
X142841552Y-83890453D02*
X142884409Y-83976167D01*
X142884409Y-83976167D02*
X142927266Y-84019025D01*
X142927266Y-84019025D02*
X143012981Y-84061882D01*
X143012981Y-84061882D02*
X143184409Y-84061882D01*
X143184409Y-84061882D02*
X143270124Y-84019025D01*
X143270124Y-84019025D02*
X143312981Y-83976167D01*
X143312981Y-83976167D02*
X143355838Y-83890453D01*
X143355838Y-83890453D02*
X143355838Y-83719025D01*
X143355838Y-83719025D02*
X143312981Y-83633310D01*
X143312981Y-83633310D02*
X143270124Y-83590453D01*
X143270124Y-83590453D02*
X143184409Y-83547596D01*
X144212981Y-84061882D02*
X143698695Y-84061882D01*
X143955838Y-84061882D02*
X143955838Y-83161882D01*
X143955838Y-83161882D02*
X143870124Y-83290453D01*
X143870124Y-83290453D02*
X143784409Y-83376167D01*
X143784409Y-83376167D02*
X143698695Y-83419025D01*
X144512981Y-83161882D02*
X145112981Y-83161882D01*
X145112981Y-83161882D02*
X144727267Y-84061882D01*
X145412981Y-84019025D02*
X145541553Y-84061882D01*
X145541553Y-84061882D02*
X145755838Y-84061882D01*
X145755838Y-84061882D02*
X145841553Y-84019025D01*
X145841553Y-84019025D02*
X145884410Y-83976167D01*
X145884410Y-83976167D02*
X145927267Y-83890453D01*
X145927267Y-83890453D02*
X145927267Y-83804739D01*
X145927267Y-83804739D02*
X145884410Y-83719025D01*
X145884410Y-83719025D02*
X145841553Y-83676167D01*
X145841553Y-83676167D02*
X145755838Y-83633310D01*
X145755838Y-83633310D02*
X145584410Y-83590453D01*
X145584410Y-83590453D02*
X145498695Y-83547596D01*
X145498695Y-83547596D02*
X145455838Y-83504739D01*
X145455838Y-83504739D02*
X145412981Y-83419025D01*
X145412981Y-83419025D02*
X145412981Y-83333310D01*
X145412981Y-83333310D02*
X145455838Y-83247596D01*
X145455838Y-83247596D02*
X145498695Y-83204739D01*
X145498695Y-83204739D02*
X145584410Y-83161882D01*
X145584410Y-83161882D02*
X145798695Y-83161882D01*
X145798695Y-83161882D02*
X145927267Y-83204739D01*
D13*
X128550057Y-83761904D02*
X128502438Y-83714285D01*
X128502438Y-83714285D02*
X128454819Y-83619047D01*
X128454819Y-83619047D02*
X128454819Y-83380952D01*
X128454819Y-83380952D02*
X128502438Y-83285714D01*
X128502438Y-83285714D02*
X128550057Y-83238095D01*
X128550057Y-83238095D02*
X128645295Y-83190476D01*
X128645295Y-83190476D02*
X128740533Y-83190476D01*
X128740533Y-83190476D02*
X128883390Y-83238095D01*
X128883390Y-83238095D02*
X129454819Y-83809523D01*
X129454819Y-83809523D02*
X129454819Y-83190476D01*
X128550057Y-82809523D02*
X128502438Y-82761904D01*
X128502438Y-82761904D02*
X128454819Y-82666666D01*
X128454819Y-82666666D02*
X128454819Y-82428571D01*
X128454819Y-82428571D02*
X128502438Y-82333333D01*
X128502438Y-82333333D02*
X128550057Y-82285714D01*
X128550057Y-82285714D02*
X128645295Y-82238095D01*
X128645295Y-82238095D02*
X128740533Y-82238095D01*
X128740533Y-82238095D02*
X128883390Y-82285714D01*
X128883390Y-82285714D02*
X129454819Y-82857142D01*
X129454819Y-82857142D02*
X129454819Y-82238095D01*
X123809523Y-98859580D02*
X123761904Y-98907200D01*
X123761904Y-98907200D02*
X123619047Y-98954819D01*
X123619047Y-98954819D02*
X123523809Y-98954819D01*
X123523809Y-98954819D02*
X123380952Y-98907200D01*
X123380952Y-98907200D02*
X123285714Y-98811961D01*
X123285714Y-98811961D02*
X123238095Y-98716723D01*
X123238095Y-98716723D02*
X123190476Y-98526247D01*
X123190476Y-98526247D02*
X123190476Y-98383390D01*
X123190476Y-98383390D02*
X123238095Y-98192914D01*
X123238095Y-98192914D02*
X123285714Y-98097676D01*
X123285714Y-98097676D02*
X123380952Y-98002438D01*
X123380952Y-98002438D02*
X123523809Y-97954819D01*
X123523809Y-97954819D02*
X123619047Y-97954819D01*
X123619047Y-97954819D02*
X123761904Y-98002438D01*
X123761904Y-98002438D02*
X123809523Y-98050057D01*
X124238095Y-98954819D02*
X124238095Y-97954819D01*
X124238095Y-97954819D02*
X124571428Y-98669104D01*
X124571428Y-98669104D02*
X124904761Y-97954819D01*
X124904761Y-97954819D02*
X124904761Y-98954819D01*
X125904761Y-98954819D02*
X125333333Y-98954819D01*
X125619047Y-98954819D02*
X125619047Y-97954819D01*
X125619047Y-97954819D02*
X125523809Y-98097676D01*
X125523809Y-98097676D02*
X125428571Y-98192914D01*
X125428571Y-98192914D02*
X125333333Y-98240533D01*
X126523809Y-97954819D02*
X126619047Y-97954819D01*
X126619047Y-97954819D02*
X126714285Y-98002438D01*
X126714285Y-98002438D02*
X126761904Y-98050057D01*
X126761904Y-98050057D02*
X126809523Y-98145295D01*
X126809523Y-98145295D02*
X126857142Y-98335771D01*
X126857142Y-98335771D02*
X126857142Y-98573866D01*
X126857142Y-98573866D02*
X126809523Y-98764342D01*
X126809523Y-98764342D02*
X126761904Y-98859580D01*
X126761904Y-98859580D02*
X126714285Y-98907200D01*
X126714285Y-98907200D02*
X126619047Y-98954819D01*
X126619047Y-98954819D02*
X126523809Y-98954819D01*
X126523809Y-98954819D02*
X126428571Y-98907200D01*
X126428571Y-98907200D02*
X126380952Y-98859580D01*
X126380952Y-98859580D02*
X126333333Y-98764342D01*
X126333333Y-98764342D02*
X126285714Y-98573866D01*
X126285714Y-98573866D02*
X126285714Y-98335771D01*
X126285714Y-98335771D02*
X126333333Y-98145295D01*
X126333333Y-98145295D02*
X126380952Y-98050057D01*
X126380952Y-98050057D02*
X126428571Y-98002438D01*
X126428571Y-98002438D02*
X126523809Y-97954819D01*
X127428571Y-98383390D02*
X127333333Y-98335771D01*
X127333333Y-98335771D02*
X127285714Y-98288152D01*
X127285714Y-98288152D02*
X127238095Y-98192914D01*
X127238095Y-98192914D02*
X127238095Y-98145295D01*
X127238095Y-98145295D02*
X127285714Y-98050057D01*
X127285714Y-98050057D02*
X127333333Y-98002438D01*
X127333333Y-98002438D02*
X127428571Y-97954819D01*
X127428571Y-97954819D02*
X127619047Y-97954819D01*
X127619047Y-97954819D02*
X127714285Y-98002438D01*
X127714285Y-98002438D02*
X127761904Y-98050057D01*
X127761904Y-98050057D02*
X127809523Y-98145295D01*
X127809523Y-98145295D02*
X127809523Y-98192914D01*
X127809523Y-98192914D02*
X127761904Y-98288152D01*
X127761904Y-98288152D02*
X127714285Y-98335771D01*
X127714285Y-98335771D02*
X127619047Y-98383390D01*
X127619047Y-98383390D02*
X127428571Y-98383390D01*
X127428571Y-98383390D02*
X127333333Y-98431009D01*
X127333333Y-98431009D02*
X127285714Y-98478628D01*
X127285714Y-98478628D02*
X127238095Y-98573866D01*
X127238095Y-98573866D02*
X127238095Y-98764342D01*
X127238095Y-98764342D02*
X127285714Y-98859580D01*
X127285714Y-98859580D02*
X127333333Y-98907200D01*
X127333333Y-98907200D02*
X127428571Y-98954819D01*
X127428571Y-98954819D02*
X127619047Y-98954819D01*
X127619047Y-98954819D02*
X127714285Y-98907200D01*
X127714285Y-98907200D02*
X127761904Y-98859580D01*
X127761904Y-98859580D02*
X127809523Y-98764342D01*
X127809523Y-98764342D02*
X127809523Y-98573866D01*
X127809523Y-98573866D02*
X127761904Y-98478628D01*
X127761904Y-98478628D02*
X127714285Y-98431009D01*
X127714285Y-98431009D02*
X127619047Y-98383390D01*
X128571428Y-98431009D02*
X128714285Y-98478628D01*
X128714285Y-98478628D02*
X128761904Y-98526247D01*
X128761904Y-98526247D02*
X128809523Y-98621485D01*
X128809523Y-98621485D02*
X128809523Y-98764342D01*
X128809523Y-98764342D02*
X128761904Y-98859580D01*
X128761904Y-98859580D02*
X128714285Y-98907200D01*
X128714285Y-98907200D02*
X128619047Y-98954819D01*
X128619047Y-98954819D02*
X128238095Y-98954819D01*
X128238095Y-98954819D02*
X128238095Y-97954819D01*
X128238095Y-97954819D02*
X128571428Y-97954819D01*
X128571428Y-97954819D02*
X128666666Y-98002438D01*
X128666666Y-98002438D02*
X128714285Y-98050057D01*
X128714285Y-98050057D02*
X128761904Y-98145295D01*
X128761904Y-98145295D02*
X128761904Y-98240533D01*
X128761904Y-98240533D02*
X128714285Y-98335771D01*
X128714285Y-98335771D02*
X128666666Y-98383390D01*
X128666666Y-98383390D02*
X128571428Y-98431009D01*
X128571428Y-98431009D02*
X128238095Y-98431009D01*
X173009580Y-78500000D02*
X173057200Y-78547619D01*
X173057200Y-78547619D02*
X173104819Y-78690476D01*
X173104819Y-78690476D02*
X173104819Y-78785714D01*
X173104819Y-78785714D02*
X173057200Y-78928571D01*
X173057200Y-78928571D02*
X172961961Y-79023809D01*
X172961961Y-79023809D02*
X172866723Y-79071428D01*
X172866723Y-79071428D02*
X172676247Y-79119047D01*
X172676247Y-79119047D02*
X172533390Y-79119047D01*
X172533390Y-79119047D02*
X172342914Y-79071428D01*
X172342914Y-79071428D02*
X172247676Y-79023809D01*
X172247676Y-79023809D02*
X172152438Y-78928571D01*
X172152438Y-78928571D02*
X172104819Y-78785714D01*
X172104819Y-78785714D02*
X172104819Y-78690476D01*
X172104819Y-78690476D02*
X172152438Y-78547619D01*
X172152438Y-78547619D02*
X172200057Y-78500000D01*
X172819104Y-78119047D02*
X172819104Y-77642857D01*
X173104819Y-78214285D02*
X172104819Y-77880952D01*
X172104819Y-77880952D02*
X173104819Y-77547619D01*
X172104819Y-77357142D02*
X172104819Y-76785714D01*
X173104819Y-77071428D02*
X172104819Y-77071428D01*
X119284819Y-99785714D02*
X119284819Y-100357142D01*
X119284819Y-100071428D02*
X118284819Y-100071428D01*
X118284819Y-100071428D02*
X118427676Y-100166666D01*
X118427676Y-100166666D02*
X118522914Y-100261904D01*
X118522914Y-100261904D02*
X118570533Y-100357142D01*
X119284819Y-99357142D02*
X118284819Y-99357142D01*
X118284819Y-99357142D02*
X118999104Y-99023809D01*
X118999104Y-99023809D02*
X118284819Y-98690476D01*
X118284819Y-98690476D02*
X119284819Y-98690476D01*
%TO.C,C14*%
D11*
X145411700Y-94295187D02*
X146834204Y-94295187D01*
X145411700Y-96115187D02*
X146834204Y-96115187D01*
%TO.C,C13*%
X134288748Y-101590000D02*
X135711252Y-101590000D01*
X134288748Y-103410000D02*
X135711252Y-103410000D01*
%TO.C,C12*%
X134288748Y-99090000D02*
X135711252Y-99090000D01*
X134288748Y-100910000D02*
X135711252Y-100910000D01*
%TO.C,C11*%
X134288748Y-96590000D02*
X135711252Y-96590000D01*
X134288748Y-98410000D02*
X135711252Y-98410000D01*
%TO.C,C10*%
X134288748Y-94090000D02*
X135711252Y-94090000D01*
X134288748Y-95910000D02*
X135711252Y-95910000D01*
%TO.C,C9*%
X141711252Y-104410000D02*
X140288748Y-104410000D01*
X141711252Y-102590000D02*
X140288748Y-102590000D01*
%TO.C,C8*%
X140266965Y-94318299D02*
X141689469Y-94318299D01*
X140266965Y-96138299D02*
X141689469Y-96138299D01*
%TO.C,C3*%
X118711252Y-105410000D02*
X117288748Y-105410000D01*
X118711252Y-103590000D02*
X117288748Y-103590000D01*
%TO.C,C1*%
X118711252Y-95410000D02*
X117288748Y-95410000D01*
X118711252Y-93590000D02*
X117288748Y-93590000D01*
%TO.C,C7*%
X125211252Y-74910000D02*
X123788748Y-74910000D01*
X125211252Y-73090000D02*
X123788748Y-73090000D01*
%TO.C,C6*%
X125211252Y-72410000D02*
X123788748Y-72410000D01*
X125211252Y-70590000D02*
X123788748Y-70590000D01*
%TO.C,C5*%
X131351248Y-91090000D02*
X132773752Y-91090000D01*
X131351248Y-92910000D02*
X132773752Y-92910000D01*
%TO.C,C4*%
X131288748Y-88590000D02*
X132711252Y-88590000D01*
X131288748Y-90410000D02*
X132711252Y-90410000D01*
%TO.C,C2*%
X131288748Y-86090000D02*
X132711252Y-86090000D01*
X131288748Y-87910000D02*
X132711252Y-87910000D01*
%TO.C,R20*%
X171590000Y-74189564D02*
X171590000Y-72735436D01*
X173410000Y-74189564D02*
X173410000Y-72735436D01*
%TO.C,D1*%
X117215000Y-61865000D02*
X117215000Y-64135000D01*
X117215000Y-64135000D02*
X121100000Y-64135000D01*
X121100000Y-61865000D02*
X117215000Y-61865000D01*
%TO.C,J1*%
X101517500Y-77390000D02*
X101517500Y-89610000D01*
X101517500Y-77390000D02*
X109487500Y-77390000D01*
X101517500Y-89610000D02*
X109487500Y-89610000D01*
X118137500Y-77390000D02*
X114387500Y-77390000D01*
X118137500Y-77390000D02*
X118137500Y-89610000D01*
X118137500Y-89610000D02*
X114387500Y-89610000D01*
X118337500Y-84750000D02*
X118837500Y-85250000D01*
X118837500Y-84250000D02*
X118337500Y-84750000D01*
X118837500Y-85250000D02*
X118837500Y-84250000D01*
%TO.C,R14*%
X141272936Y-75090000D02*
X142727064Y-75090000D01*
X141272936Y-76910000D02*
X142727064Y-76910000D01*
%TO.C,R7*%
X140272936Y-91590000D02*
X141727064Y-91590000D01*
X140272936Y-93410000D02*
X141727064Y-93410000D01*
%TO.C,R10*%
X158727064Y-85090000D02*
X157272936Y-85090000D01*
X158727064Y-86910000D02*
X157272936Y-86910000D01*
%TO.C,R12*%
X131272936Y-78590000D02*
X132727064Y-78590000D01*
X131272936Y-80410000D02*
X132727064Y-80410000D01*
%TO.C,R19*%
X169090000Y-72772936D02*
X169090000Y-74227064D01*
X170910000Y-72772936D02*
X170910000Y-74227064D01*
%TO.C,R15*%
X138992558Y-64970697D02*
X137538430Y-64970697D01*
X138992558Y-66790697D02*
X137538430Y-66790697D01*
%TO.C,R4*%
X132727064Y-83590000D02*
X131272936Y-83590000D01*
X132727064Y-85410000D02*
X131272936Y-85410000D01*
%TO.C,J2*%
X174400000Y-97900000D02*
X175600000Y-97900000D01*
X174400000Y-104100000D02*
X174400000Y-97900000D01*
X178800000Y-97900000D02*
X185300000Y-97900000D01*
X183300000Y-104100000D02*
X174400000Y-104100000D01*
X185300000Y-97900000D02*
X185300000Y-95900000D01*
X187900000Y-97900000D02*
X187900000Y-95900000D01*
X187900000Y-97900000D02*
X189100000Y-97900000D01*
X189100000Y-97900000D02*
X189100000Y-98400000D01*
X189100000Y-98400000D02*
X191600000Y-98400000D01*
X189100000Y-103600000D02*
X189100000Y-104100000D01*
X189100000Y-104100000D02*
X185900000Y-104100000D01*
X191600000Y-98400000D02*
X191600000Y-103600000D01*
X191600000Y-103600000D02*
X189100000Y-103600000D01*
%TO.C,Y1*%
X110065000Y-102125000D02*
X110065000Y-95875000D01*
X114935000Y-95875000D02*
X114935000Y-102125000D01*
X110065000Y-95875000D02*
G75*
G02*
X114935000Y-95875000I2435000J0D01*
G01*
X114935000Y-102125000D02*
G75*
G02*
X110065000Y-102125000I-2435000J0D01*
G01*
%TO.C,D5*%
X145500000Y-70635000D02*
X149385000Y-70635000D01*
X149385000Y-68365000D02*
X145500000Y-68365000D01*
X149385000Y-70635000D02*
X149385000Y-68365000D01*
%TO.C,C16*%
X160920000Y-83415113D02*
X166080000Y-83415113D01*
X160920000Y-83455113D02*
X166080000Y-83455113D01*
X160921000Y-83375113D02*
X166079000Y-83375113D01*
X160923000Y-83335113D02*
X166077000Y-83335113D01*
X160925000Y-83295113D02*
X166075000Y-83295113D01*
X160928000Y-83255113D02*
X166072000Y-83255113D01*
X160931000Y-83215113D02*
X162460000Y-83215113D01*
X160935000Y-83175113D02*
X162460000Y-83175113D01*
X160940000Y-83135113D02*
X162460000Y-83135113D01*
X160945000Y-83095113D02*
X162460000Y-83095113D01*
X160951000Y-83055113D02*
X162460000Y-83055113D01*
X160957000Y-83015113D02*
X162460000Y-83015113D01*
X160964000Y-82975113D02*
X162460000Y-82975113D01*
X160972000Y-82935113D02*
X162460000Y-82935113D01*
X160981000Y-82895113D02*
X162460000Y-82895113D01*
X160990000Y-82855113D02*
X162460000Y-82855113D01*
X160999000Y-82815113D02*
X162460000Y-82815113D01*
X161010000Y-82775113D02*
X162460000Y-82775113D01*
X161021000Y-82735113D02*
X162460000Y-82735113D01*
X161033000Y-82695113D02*
X162460000Y-82695113D01*
X161045000Y-82655113D02*
X162460000Y-82655113D01*
X161058000Y-82615113D02*
X162460000Y-82615113D01*
X161072000Y-82575113D02*
X162460000Y-82575113D01*
X161087000Y-82535113D02*
X162460000Y-82535113D01*
X161102000Y-82495113D02*
X162460000Y-82495113D01*
X161118000Y-82455113D02*
X162460000Y-82455113D01*
X161135000Y-82415113D02*
X162460000Y-82415113D01*
X161153000Y-82375113D02*
X162460000Y-82375113D01*
X161171000Y-82335113D02*
X162460000Y-82335113D01*
X161191000Y-82295113D02*
X162460000Y-82295113D01*
X161211000Y-82255113D02*
X162460000Y-82255113D01*
X161232000Y-82215113D02*
X162460000Y-82215113D01*
X161254000Y-82175113D02*
X162460000Y-82175113D01*
X161277000Y-82135113D02*
X162460000Y-82135113D01*
X161301000Y-82095113D02*
X162460000Y-82095113D01*
X161325000Y-82055113D02*
X162460000Y-82055113D01*
X161351000Y-82015113D02*
X162460000Y-82015113D01*
X161378000Y-81975113D02*
X162460000Y-81975113D01*
X161406000Y-81935113D02*
X162460000Y-81935113D01*
X161435000Y-81895113D02*
X162460000Y-81895113D01*
X161465000Y-81855113D02*
X162460000Y-81855113D01*
X161497000Y-81815113D02*
X162460000Y-81815113D01*
X161530000Y-81775113D02*
X162460000Y-81775113D01*
X161564000Y-81735113D02*
X162460000Y-81735113D01*
X161599000Y-81695113D02*
X162460000Y-81695113D01*
X161636000Y-81655113D02*
X162460000Y-81655113D01*
X161675000Y-81615113D02*
X162460000Y-81615113D01*
X161715000Y-81575113D02*
X162460000Y-81575113D01*
X161757000Y-81535113D02*
X162460000Y-81535113D01*
X161775000Y-86009888D02*
X162275000Y-86009888D01*
X161801000Y-81495113D02*
X162460000Y-81495113D01*
X161848000Y-81455113D02*
X162460000Y-81455113D01*
X161896000Y-81415113D02*
X162460000Y-81415113D01*
X161947000Y-81375113D02*
X162460000Y-81375113D01*
X162001000Y-81335113D02*
X162460000Y-81335113D01*
X162025000Y-86259888D02*
X162025000Y-85759888D01*
X162057000Y-81295113D02*
X162460000Y-81295113D01*
X162117000Y-81255113D02*
X162460000Y-81255113D01*
X162181000Y-81215113D02*
X162460000Y-81215113D01*
X162249000Y-81175113D02*
X162460000Y-81175113D01*
X162323000Y-81135113D02*
X164677000Y-81135113D01*
X162402000Y-81095113D02*
X164598000Y-81095113D01*
X162489000Y-81055113D02*
X164511000Y-81055113D01*
X162586000Y-81015113D02*
X164414000Y-81015113D01*
X162695000Y-80975113D02*
X164305000Y-80975113D01*
X162823000Y-80935113D02*
X164177000Y-80935113D01*
X162983000Y-80895113D02*
X164017000Y-80895113D01*
X163217000Y-80855113D02*
X163783000Y-80855113D01*
X164540000Y-81175113D02*
X164751000Y-81175113D01*
X164540000Y-81215113D02*
X164819000Y-81215113D01*
X164540000Y-81255113D02*
X164883000Y-81255113D01*
X164540000Y-81295113D02*
X164943000Y-81295113D01*
X164540000Y-81335113D02*
X164999000Y-81335113D01*
X164540000Y-81375113D02*
X165053000Y-81375113D01*
X164540000Y-81415113D02*
X165104000Y-81415113D01*
X164540000Y-81455113D02*
X165152000Y-81455113D01*
X164540000Y-81495113D02*
X165199000Y-81495113D01*
X164540000Y-81535113D02*
X165243000Y-81535113D01*
X164540000Y-81575113D02*
X165285000Y-81575113D01*
X164540000Y-81615113D02*
X165325000Y-81615113D01*
X164540000Y-81655113D02*
X165364000Y-81655113D01*
X164540000Y-81695113D02*
X165401000Y-81695113D01*
X164540000Y-81735113D02*
X165436000Y-81735113D01*
X164540000Y-81775113D02*
X165470000Y-81775113D01*
X164540000Y-81815113D02*
X165503000Y-81815113D01*
X164540000Y-81855113D02*
X165535000Y-81855113D01*
X164540000Y-81895113D02*
X165565000Y-81895113D01*
X164540000Y-81935113D02*
X165594000Y-81935113D01*
X164540000Y-81975113D02*
X165622000Y-81975113D01*
X164540000Y-82015113D02*
X165649000Y-82015113D01*
X164540000Y-82055113D02*
X165675000Y-82055113D01*
X164540000Y-82095113D02*
X165699000Y-82095113D01*
X164540000Y-82135113D02*
X165723000Y-82135113D01*
X164540000Y-82175113D02*
X165746000Y-82175113D01*
X164540000Y-82215113D02*
X165768000Y-82215113D01*
X164540000Y-82255113D02*
X165789000Y-82255113D01*
X164540000Y-82295113D02*
X165809000Y-82295113D01*
X164540000Y-82335113D02*
X165829000Y-82335113D01*
X164540000Y-82375113D02*
X165847000Y-82375113D01*
X164540000Y-82415113D02*
X165865000Y-82415113D01*
X164540000Y-82455113D02*
X165882000Y-82455113D01*
X164540000Y-82495113D02*
X165898000Y-82495113D01*
X164540000Y-82535113D02*
X165913000Y-82535113D01*
X164540000Y-82575113D02*
X165928000Y-82575113D01*
X164540000Y-82615113D02*
X165942000Y-82615113D01*
X164540000Y-82655113D02*
X165955000Y-82655113D01*
X164540000Y-82695113D02*
X165967000Y-82695113D01*
X164540000Y-82735113D02*
X165979000Y-82735113D01*
X164540000Y-82775113D02*
X165990000Y-82775113D01*
X164540000Y-82815113D02*
X166001000Y-82815113D01*
X164540000Y-82855113D02*
X166010000Y-82855113D01*
X164540000Y-82895113D02*
X166019000Y-82895113D01*
X164540000Y-82935113D02*
X166028000Y-82935113D01*
X164540000Y-82975113D02*
X166036000Y-82975113D01*
X164540000Y-83015113D02*
X166043000Y-83015113D01*
X164540000Y-83055113D02*
X166049000Y-83055113D01*
X164540000Y-83095113D02*
X166055000Y-83095113D01*
X164540000Y-83135113D02*
X166060000Y-83135113D01*
X164540000Y-83175113D02*
X166065000Y-83175113D01*
X164540000Y-83215113D02*
X166069000Y-83215113D01*
X166120000Y-83455113D02*
G75*
G02*
X160880000Y-83455113I-2620000J0D01*
G01*
X160880000Y-83455113D02*
G75*
G02*
X166120000Y-83455113I2620000J0D01*
G01*
%TO.C,R8*%
X146727064Y-91590000D02*
X145272936Y-91590000D01*
X146727064Y-93410000D02*
X145272936Y-93410000D01*
%TO.C,J5*%
X174400000Y-63400000D02*
X175600000Y-63400000D01*
X174400000Y-69600000D02*
X174400000Y-63400000D01*
X178800000Y-63400000D02*
X185300000Y-63400000D01*
X183300000Y-69600000D02*
X174400000Y-69600000D01*
X185300000Y-63400000D02*
X185300000Y-61400000D01*
X187900000Y-63400000D02*
X187900000Y-61400000D01*
X187900000Y-63400000D02*
X189100000Y-63400000D01*
X189100000Y-63400000D02*
X189100000Y-63900000D01*
X189100000Y-63900000D02*
X191600000Y-63900000D01*
X189100000Y-69100000D02*
X189100000Y-69600000D01*
X189100000Y-69600000D02*
X185900000Y-69600000D01*
X191600000Y-63900000D02*
X191600000Y-69100000D01*
X191600000Y-69100000D02*
X189100000Y-69100000D01*
%TO.C,U5*%
X139500000Y-77670000D02*
X139500000Y-82870000D01*
X139500000Y-82870000D02*
X145970000Y-82870000D01*
X141735000Y-77670000D02*
X139500000Y-77670000D01*
X145970000Y-77670000D02*
X143735000Y-77670000D01*
X145970000Y-82870000D02*
X145970000Y-77670000D01*
X143735000Y-77670000D02*
G75*
G02*
X141735000Y-77670000I-1000000J0D01*
G01*
%TO.C,U1*%
X123590000Y-82940000D02*
X125410000Y-82940000D01*
X123590000Y-82990000D02*
X123590000Y-82940000D01*
X123590000Y-86060000D02*
X123590000Y-86010000D01*
X125410000Y-82940000D02*
X125410000Y-82990000D01*
X125410000Y-86010000D02*
X125410000Y-86060000D01*
X125410000Y-86060000D02*
X123590000Y-86060000D01*
X123050000Y-82990000D02*
X122810000Y-82660000D01*
X123290000Y-82660000D01*
X123050000Y-82990000D01*
G36*
X123050000Y-82990000D02*
G01*
X122810000Y-82660000D01*
X123290000Y-82660000D01*
X123050000Y-82990000D01*
G37*
%TO.C,C17*%
X132711252Y-62090000D02*
X131288748Y-62090000D01*
X132711252Y-63910000D02*
X131288748Y-63910000D01*
%TO.C,T1*%
X149800000Y-88150000D02*
X167900000Y-88150000D01*
X149800000Y-106250000D02*
X149800000Y-88150000D01*
X167900000Y-88150000D02*
X167900000Y-106250000D01*
X167900000Y-106250000D02*
X149800000Y-106250000D01*
%TO.C,J3*%
X174400000Y-86400000D02*
X175600000Y-86400000D01*
X174400000Y-92600000D02*
X174400000Y-86400000D01*
X178800000Y-86400000D02*
X185300000Y-86400000D01*
X183300000Y-92600000D02*
X174400000Y-92600000D01*
X185300000Y-86400000D02*
X185300000Y-84400000D01*
X187900000Y-86400000D02*
X187900000Y-84400000D01*
X187900000Y-86400000D02*
X189100000Y-86400000D01*
X189100000Y-86400000D02*
X189100000Y-86900000D01*
X189100000Y-86900000D02*
X191600000Y-86900000D01*
X189100000Y-92100000D02*
X189100000Y-92600000D01*
X189100000Y-92600000D02*
X185900000Y-92600000D01*
X191600000Y-86900000D02*
X191600000Y-92100000D01*
X191600000Y-92100000D02*
X189100000Y-92100000D01*
%TO.C,Q2*%
X141902500Y-67940000D02*
X143422500Y-67940000D01*
X141902500Y-67990000D02*
X141902500Y-67940000D01*
X141902500Y-69890000D02*
X141902500Y-69110000D01*
X141902500Y-71060000D02*
X141902500Y-71010000D01*
X143422500Y-67940000D02*
X143422500Y-68940000D01*
X143422500Y-70060000D02*
X143422500Y-71060000D01*
X143422500Y-71060000D02*
X141902500Y-71060000D01*
X141362500Y-69120000D02*
X141602500Y-69450000D01*
X141122500Y-69450000D01*
X141362500Y-69120000D01*
G36*
X141602500Y-69450000D02*
G01*
X141122500Y-69450000D01*
X141362500Y-69120000D01*
X141602500Y-69450000D01*
G37*
%TO.C,R16*%
X138978170Y-67530240D02*
X137524042Y-67530240D01*
X138978170Y-69350240D02*
X137524042Y-69350240D01*
%TO.C,R17*%
X138968281Y-62418932D02*
X137514153Y-62418932D01*
X138968281Y-64238932D02*
X137514153Y-64238932D01*
%TO.C,D2*%
X144694173Y-102013131D02*
X148579173Y-102013131D01*
X148579173Y-99743131D02*
X144694173Y-99743131D01*
X148579173Y-102013131D02*
X148579173Y-99743131D01*
%TO.C,Y2*%
X110065000Y-70625000D02*
X110065000Y-64375000D01*
X114935000Y-64375000D02*
X114935000Y-70625000D01*
X110065000Y-64375000D02*
G75*
G02*
X114935000Y-64375000I2435000J0D01*
G01*
X114935000Y-70625000D02*
G75*
G02*
X110065000Y-70625000I-2435000J0D01*
G01*
%TO.C,L1*%
X126727064Y-88590000D02*
X125272936Y-88590000D01*
X126727064Y-90410000D02*
X125272936Y-90410000D01*
%TO.C,D3*%
X144694173Y-99013131D02*
X148579173Y-99013131D01*
X148579173Y-96743131D02*
X144694173Y-96743131D01*
X148579173Y-99013131D02*
X148579173Y-96743131D01*
D14*
%TO.C,G\u002A\u002A\u002A*%
G36*
X163314354Y-61649282D02*
G01*
X163314354Y-62348086D01*
X163154844Y-62348086D01*
X162995335Y-62348086D01*
X162995335Y-61649282D01*
X162995335Y-60950478D01*
X163154844Y-60950478D01*
X163314354Y-60950478D01*
X163314354Y-61649282D01*
G37*
G36*
X163314354Y-63350717D02*
G01*
X163314354Y-64049521D01*
X163154844Y-64049521D01*
X162995335Y-64049521D01*
X162995335Y-63350717D01*
X162995335Y-62651913D01*
X163154844Y-62651913D01*
X163314354Y-62651913D01*
X163314354Y-63350717D01*
G37*
G36*
X155764234Y-62500000D02*
G01*
X155764234Y-64657177D01*
X154381818Y-64657177D01*
X152999402Y-64657177D01*
X152999402Y-64353349D01*
X153303229Y-64353349D01*
X154381818Y-64353349D01*
X155460406Y-64353349D01*
X155460406Y-62500000D01*
X155460406Y-60646650D01*
X154381818Y-60646650D01*
X153303229Y-60646650D01*
X153303229Y-62500000D01*
X153303229Y-64353349D01*
X152999402Y-64353349D01*
X152999402Y-62500000D01*
X152999402Y-60342823D01*
X154381818Y-60342823D01*
X155764234Y-60342823D01*
X155764234Y-62500000D01*
G37*
G36*
X158346770Y-63146388D02*
G01*
X158346987Y-63292337D01*
X158347885Y-63410951D01*
X158349831Y-63505276D01*
X158353194Y-63578358D01*
X158358340Y-63633243D01*
X158365639Y-63672976D01*
X158375459Y-63700605D01*
X158388166Y-63719174D01*
X158404130Y-63731730D01*
X158418367Y-63738991D01*
X158441092Y-63742860D01*
X158489346Y-63746820D01*
X158558278Y-63750617D01*
X158643039Y-63754003D01*
X158738775Y-63756724D01*
X158775927Y-63757511D01*
X159106339Y-63763860D01*
X159106339Y-63207887D01*
X159106339Y-62651913D01*
X159265849Y-62651913D01*
X159425358Y-62651913D01*
X159425358Y-63350717D01*
X159425358Y-64049521D01*
X158905053Y-64047857D01*
X158779147Y-64047084D01*
X158660303Y-64045655D01*
X158552611Y-64043672D01*
X158460159Y-64041236D01*
X158387038Y-64038450D01*
X158337335Y-64035416D01*
X158318617Y-64033190D01*
X158233908Y-64005727D01*
X158159767Y-63961279D01*
X158104704Y-63905345D01*
X158093487Y-63887703D01*
X158076598Y-63853509D01*
X158062783Y-63815016D01*
X158051751Y-63768970D01*
X158043212Y-63712112D01*
X158036876Y-63641187D01*
X158032452Y-63552937D01*
X158029650Y-63444107D01*
X158028180Y-63311440D01*
X158027751Y-63151679D01*
X158027751Y-63150439D01*
X158027751Y-62651913D01*
X158187260Y-62651913D01*
X158346770Y-62651913D01*
X158346770Y-63146388D01*
G37*
G36*
X163827800Y-60961815D02*
G01*
X163930088Y-60996139D01*
X164001465Y-61042209D01*
X164029979Y-61069709D01*
X164072530Y-61115806D01*
X164124416Y-61175179D01*
X164180941Y-61242504D01*
X164212348Y-61281049D01*
X164318517Y-61412793D01*
X164407252Y-61522798D01*
X164480149Y-61613010D01*
X164538801Y-61685375D01*
X164584803Y-61741841D01*
X164619750Y-61784354D01*
X164645236Y-61814861D01*
X164662856Y-61835308D01*
X164674205Y-61847643D01*
X164680877Y-61853812D01*
X164682356Y-61854846D01*
X164686621Y-61842783D01*
X164690216Y-61802111D01*
X164693085Y-61734596D01*
X164695170Y-61642005D01*
X164696415Y-61526106D01*
X164696770Y-61407116D01*
X164696770Y-60950478D01*
X164848684Y-60950478D01*
X165000598Y-60950478D01*
X165000598Y-61651140D01*
X165000598Y-62351802D01*
X164867673Y-62345069D01*
X164800743Y-62340076D01*
X164743671Y-62330724D01*
X164692749Y-62314351D01*
X164644270Y-62288293D01*
X164594526Y-62249887D01*
X164539812Y-62196468D01*
X164476419Y-62125374D01*
X164400640Y-62033941D01*
X164353846Y-61975897D01*
X164292592Y-61899624D01*
X164220536Y-61810093D01*
X164146009Y-61717644D01*
X164077343Y-61632622D01*
X164067138Y-61620004D01*
X163914413Y-61431217D01*
X163910393Y-61889651D01*
X163906372Y-62348086D01*
X163754681Y-62348086D01*
X163602990Y-62348086D01*
X163602990Y-61649282D01*
X163602990Y-60950478D01*
X163706624Y-60950478D01*
X163827800Y-60961815D01*
G37*
G36*
X165000598Y-63350717D02*
G01*
X165000598Y-64049521D01*
X164841088Y-64049521D01*
X164681579Y-64049521D01*
X164681579Y-63814055D01*
X164681579Y-63578588D01*
X164301794Y-63578588D01*
X163922009Y-63578588D01*
X163922009Y-63814055D01*
X163922009Y-64049521D01*
X163761336Y-64049521D01*
X163600662Y-64049521D01*
X163606485Y-63498833D01*
X163608212Y-63347095D01*
X163609093Y-63289952D01*
X163922009Y-63289952D01*
X164301794Y-63289952D01*
X164681579Y-63289952D01*
X164681579Y-63122846D01*
X164681579Y-62955741D01*
X164355679Y-62955741D01*
X164233078Y-62956581D01*
X164133000Y-62959034D01*
X164057590Y-62963001D01*
X164008993Y-62968382D01*
X163992760Y-62972608D01*
X163959120Y-62996802D01*
X163937243Y-63036112D01*
X163925439Y-63095422D01*
X163922009Y-63176731D01*
X163922009Y-63289952D01*
X163609093Y-63289952D01*
X163610133Y-63222456D01*
X163611267Y-63176731D01*
X163612633Y-63121634D01*
X163616099Y-63041346D01*
X163620916Y-62978309D01*
X163627470Y-62929239D01*
X163636146Y-62890855D01*
X163647332Y-62859874D01*
X163661411Y-62833012D01*
X163678771Y-62806988D01*
X163689521Y-62792294D01*
X163717481Y-62758967D01*
X163749401Y-62731256D01*
X163788191Y-62708661D01*
X163836761Y-62690685D01*
X163898023Y-62676829D01*
X163974888Y-62666595D01*
X164070265Y-62659485D01*
X164187067Y-62655001D01*
X164328203Y-62652644D01*
X164496584Y-62651916D01*
X164509668Y-62651913D01*
X165000598Y-62651913D01*
X165000598Y-63350717D01*
G37*
G36*
X159425358Y-61648263D02*
G01*
X159425358Y-62348086D01*
X159265849Y-62348086D01*
X159106339Y-62348086D01*
X159106339Y-62112619D01*
X159106339Y-61877153D01*
X158726555Y-61877153D01*
X158346770Y-61877153D01*
X158346770Y-62112619D01*
X158346770Y-62348086D01*
X158186096Y-62348086D01*
X158025423Y-62348086D01*
X158031327Y-61797398D01*
X158033209Y-61639326D01*
X158034091Y-61588516D01*
X158346770Y-61588516D01*
X158726555Y-61588516D01*
X159106339Y-61588516D01*
X159106339Y-61421411D01*
X159106339Y-61254306D01*
X158778970Y-61254306D01*
X158653368Y-61254565D01*
X158554854Y-61256482D01*
X158480134Y-61261765D01*
X158425914Y-61272124D01*
X158388901Y-61289266D01*
X158365798Y-61314901D01*
X158353313Y-61350737D01*
X158348152Y-61398483D01*
X158347019Y-61459848D01*
X158346977Y-61478379D01*
X158346770Y-61588516D01*
X158034091Y-61588516D01*
X158035480Y-61508537D01*
X158038636Y-61401932D01*
X158043171Y-61316412D01*
X158049579Y-61248877D01*
X158058356Y-61196227D01*
X158069996Y-61155365D01*
X158084995Y-61123189D01*
X158103846Y-61096601D01*
X158127045Y-61072502D01*
X158150349Y-61051833D01*
X158177563Y-61029265D01*
X158203574Y-61010739D01*
X158231622Y-60995817D01*
X158264947Y-60984064D01*
X158306791Y-60975043D01*
X158360394Y-60968319D01*
X158428996Y-60963456D01*
X158515838Y-60960016D01*
X158624160Y-60957565D01*
X158757202Y-60955665D01*
X158874671Y-60954345D01*
X159425358Y-60948440D01*
X159425358Y-61648263D01*
G37*
G36*
X157754306Y-61649282D02*
G01*
X157754306Y-62348086D01*
X157602605Y-62348086D01*
X157450905Y-62348086D01*
X157446894Y-61868725D01*
X157442882Y-61389365D01*
X157282462Y-61538313D01*
X157222125Y-61594202D01*
X157167257Y-61644783D01*
X157122919Y-61685406D01*
X157094174Y-61711423D01*
X157089193Y-61715818D01*
X157076706Y-61725717D01*
X157064413Y-61729791D01*
X157048672Y-61725600D01*
X157025838Y-61710703D01*
X156992267Y-61682658D01*
X156944314Y-61639027D01*
X156878335Y-61577367D01*
X156868033Y-61567702D01*
X156805518Y-61509555D01*
X156750636Y-61459461D01*
X156707202Y-61420827D01*
X156679032Y-61397058D01*
X156670123Y-61391028D01*
X156667775Y-61405616D01*
X156665634Y-61446962D01*
X156663775Y-61511443D01*
X156662268Y-61595435D01*
X156661188Y-61695315D01*
X156660607Y-61807459D01*
X156660526Y-61869557D01*
X156660526Y-62348086D01*
X156508612Y-62348086D01*
X156356698Y-62348086D01*
X156356698Y-61649282D01*
X156356698Y-60950478D01*
X156459240Y-60950812D01*
X156520318Y-60953548D01*
X156573873Y-60963156D01*
X156624709Y-60982387D01*
X156677630Y-61013990D01*
X156737441Y-61060714D01*
X156808947Y-61125308D01*
X156874457Y-61188422D01*
X157056096Y-61366231D01*
X157112767Y-61313319D01*
X157145991Y-61282231D01*
X157194837Y-61236440D01*
X157252793Y-61182054D01*
X157313345Y-61125184D01*
X157314727Y-61123885D01*
X157388959Y-61056648D01*
X157449742Y-61009046D01*
X157503646Y-60977862D01*
X157557243Y-60959876D01*
X157617102Y-60951870D01*
X157668718Y-60950478D01*
X157754306Y-60950478D01*
X157754306Y-61649282D01*
G37*
G36*
X153911829Y-63073474D02*
G01*
X153912335Y-63222861D01*
X153913440Y-63345012D01*
X153915632Y-63443076D01*
X153919398Y-63520199D01*
X153925226Y-63579528D01*
X153933603Y-63624212D01*
X153945017Y-63657398D01*
X153959954Y-63682232D01*
X153978903Y-63701863D01*
X154002349Y-63719437D01*
X154012938Y-63726493D01*
X154028701Y-63734827D01*
X154050103Y-63741391D01*
X154080913Y-63746465D01*
X154124902Y-63750325D01*
X154185840Y-63753250D01*
X154267496Y-63755518D01*
X154373639Y-63757407D01*
X154445681Y-63758409D01*
X154837559Y-63763529D01*
X154837559Y-63207721D01*
X154837559Y-62651913D01*
X154997069Y-62651913D01*
X155156579Y-62651913D01*
X155156579Y-63350717D01*
X155156579Y-64049521D01*
X154583104Y-64047857D01*
X154451272Y-64047151D01*
X154326734Y-64045869D01*
X154213307Y-64044097D01*
X154114805Y-64041919D01*
X154035045Y-64039421D01*
X153977843Y-64036688D01*
X153947015Y-64033804D01*
X153946226Y-64033656D01*
X153838620Y-63998430D01*
X153749539Y-63939815D01*
X153680850Y-63859446D01*
X153635108Y-63761122D01*
X153625960Y-63730159D01*
X153618601Y-63697866D01*
X153612757Y-63660331D01*
X153608155Y-63613643D01*
X153604522Y-63553891D01*
X153601585Y-63477165D01*
X153599070Y-63379553D01*
X153596706Y-63257145D01*
X153595672Y-63196199D01*
X153594060Y-63078426D01*
X153593197Y-62969022D01*
X153593067Y-62872083D01*
X153593651Y-62791702D01*
X153594933Y-62731973D01*
X153596896Y-62696990D01*
X153597804Y-62691086D01*
X153603332Y-62673290D01*
X153613077Y-62661913D01*
X153632956Y-62655519D01*
X153668885Y-62652673D01*
X153726781Y-62651938D01*
X153759260Y-62651913D01*
X153910885Y-62651913D01*
X153911829Y-63073474D01*
G37*
G36*
X162524402Y-61101233D02*
G01*
X162524402Y-61254306D01*
X162102840Y-61254538D01*
X161992086Y-61254999D01*
X161890919Y-61256181D01*
X161803425Y-61257977D01*
X161733686Y-61260277D01*
X161685788Y-61262974D01*
X161663815Y-61265957D01*
X161663241Y-61266241D01*
X161639590Y-61296258D01*
X161622061Y-61347566D01*
X161613387Y-61411262D01*
X161612918Y-61429996D01*
X161612918Y-61497368D01*
X161992703Y-61497368D01*
X162372488Y-61497368D01*
X162372488Y-61641686D01*
X162372488Y-61786004D01*
X161992703Y-61786004D01*
X161612918Y-61786004D01*
X161612918Y-61860972D01*
X161618472Y-61931153D01*
X161633615Y-61988926D01*
X161656067Y-62026534D01*
X161663241Y-62032323D01*
X161682529Y-62035251D01*
X161728232Y-62037920D01*
X161796385Y-62040228D01*
X161883020Y-62042075D01*
X161984171Y-62043360D01*
X162095870Y-62043984D01*
X162125628Y-62044025D01*
X162569976Y-62044258D01*
X162569976Y-62196172D01*
X162569976Y-62348086D01*
X162118032Y-62346017D01*
X162002082Y-62345283D01*
X161894569Y-62344215D01*
X161799650Y-62342885D01*
X161721484Y-62341365D01*
X161664229Y-62339727D01*
X161632043Y-62338042D01*
X161628110Y-62337574D01*
X161523153Y-62310571D01*
X161441463Y-62267117D01*
X161380300Y-62204386D01*
X161336922Y-62119552D01*
X161308589Y-62009790D01*
X161308241Y-62007805D01*
X161302553Y-61956201D01*
X161298812Y-61882292D01*
X161296901Y-61791980D01*
X161296704Y-61691164D01*
X161298103Y-61585748D01*
X161300980Y-61481631D01*
X161305219Y-61384715D01*
X161310701Y-61300902D01*
X161317311Y-61236092D01*
X161324334Y-61198156D01*
X161361399Y-61118693D01*
X161420153Y-61049126D01*
X161492586Y-60998194D01*
X161517918Y-60987042D01*
X161542381Y-60979164D01*
X161571757Y-60972804D01*
X161609672Y-60967740D01*
X161659758Y-60963750D01*
X161725640Y-60960612D01*
X161810950Y-60958104D01*
X161919314Y-60956004D01*
X162054362Y-60954091D01*
X162057266Y-60954054D01*
X162524402Y-60948160D01*
X162524402Y-61101233D01*
G37*
G36*
X160234300Y-60954025D02*
G01*
X160390367Y-60955866D01*
X160519205Y-60958144D01*
X160623967Y-60961377D01*
X160707807Y-60966081D01*
X160773878Y-60972776D01*
X160825333Y-60981979D01*
X160865326Y-60994207D01*
X160897010Y-61009979D01*
X160923539Y-61029812D01*
X160948066Y-61054224D01*
X160965542Y-61074092D01*
X160992214Y-61107861D01*
X161013292Y-61142472D01*
X161029421Y-61181912D01*
X161041244Y-61230168D01*
X161049405Y-61291225D01*
X161054549Y-61369072D01*
X161057318Y-61467694D01*
X161058357Y-61591079D01*
X161058433Y-61649282D01*
X161057913Y-61783883D01*
X161055925Y-61892099D01*
X161051825Y-61977918D01*
X161044970Y-62045325D01*
X161034714Y-62098308D01*
X161020415Y-62140853D01*
X161001428Y-62176948D01*
X160977110Y-62210579D01*
X160965542Y-62224472D01*
X160940553Y-62252359D01*
X160915747Y-62275309D01*
X160887969Y-62293839D01*
X160854068Y-62308467D01*
X160810889Y-62319711D01*
X160755278Y-62328087D01*
X160684083Y-62334116D01*
X160594150Y-62338313D01*
X160482326Y-62341197D01*
X160345457Y-62343285D01*
X160234300Y-62344538D01*
X159698803Y-62350169D01*
X159698803Y-61649282D01*
X160017823Y-61649282D01*
X160017823Y-62044258D01*
X160328531Y-62044258D01*
X160451669Y-62043336D01*
X160550214Y-62040625D01*
X160622497Y-62036207D01*
X160666847Y-62030166D01*
X160677177Y-62026973D01*
X160709478Y-62000355D01*
X160731062Y-61963940D01*
X160737012Y-61930726D01*
X160741538Y-61873599D01*
X160744644Y-61798997D01*
X160746330Y-61713357D01*
X160746600Y-61623115D01*
X160745456Y-61534708D01*
X160742901Y-61454574D01*
X160738936Y-61389148D01*
X160733563Y-61344869D01*
X160730832Y-61333964D01*
X160720771Y-61309233D01*
X160707497Y-61289936D01*
X160687448Y-61275430D01*
X160657061Y-61265073D01*
X160612770Y-61258223D01*
X160551014Y-61254238D01*
X160468229Y-61252476D01*
X160360851Y-61252294D01*
X160279874Y-61252696D01*
X160017823Y-61254306D01*
X160017823Y-61649282D01*
X159698803Y-61649282D01*
X159698803Y-61254306D01*
X159698803Y-60948394D01*
X160234300Y-60954025D01*
G37*
G36*
X157069873Y-62659747D02*
G01*
X157201293Y-62660747D01*
X157308554Y-62662937D01*
X157394768Y-62666744D01*
X157463046Y-62672598D01*
X157516500Y-62680926D01*
X157558240Y-62692156D01*
X157591378Y-62706717D01*
X157619026Y-62725037D01*
X157644294Y-62747544D01*
X157658807Y-62762392D01*
X157705121Y-62816627D01*
X157735527Y-62868690D01*
X157753058Y-62927399D01*
X157760746Y-63001569D01*
X157761902Y-63062081D01*
X157760611Y-63136587D01*
X157755688Y-63190349D01*
X157745554Y-63232934D01*
X157728629Y-63273910D01*
X157726096Y-63279114D01*
X157694568Y-63329263D01*
X157655718Y-63373001D01*
X157638040Y-63387335D01*
X157585789Y-63422841D01*
X157640362Y-63455039D01*
X157680534Y-63484123D01*
X157710379Y-63520383D01*
X157731271Y-63568391D01*
X157744583Y-63632716D01*
X157751689Y-63717929D01*
X157753963Y-63828601D01*
X157753972Y-63833044D01*
X157754306Y-64049521D01*
X157596417Y-64049521D01*
X157438528Y-64049521D01*
X157436181Y-63855854D01*
X157433695Y-63761254D01*
X157427881Y-63692172D01*
X157417248Y-63643800D01*
X157400303Y-63611329D01*
X157375555Y-63589950D01*
X157349951Y-63577910D01*
X157323615Y-63573538D01*
X157272083Y-63569693D01*
X157200539Y-63566588D01*
X157114166Y-63564433D01*
X157018148Y-63563439D01*
X156993747Y-63563397D01*
X156675717Y-63563397D01*
X156675717Y-63806459D01*
X156675717Y-64049521D01*
X156516054Y-64049521D01*
X156356392Y-64049521D01*
X156360343Y-63354515D01*
X156360883Y-63259569D01*
X156675717Y-63259569D01*
X157023048Y-63259569D01*
X157370378Y-63259569D01*
X157410428Y-63219519D01*
X157439192Y-63180826D01*
X157449903Y-63133964D01*
X157450478Y-63114422D01*
X157449212Y-63068577D01*
X157443246Y-63032520D01*
X157429334Y-63005080D01*
X157404226Y-62985084D01*
X157364673Y-62971360D01*
X157307427Y-62962736D01*
X157229239Y-62958040D01*
X157126860Y-62956100D01*
X157010682Y-62955741D01*
X156675717Y-62955741D01*
X156675717Y-63107655D01*
X156675717Y-63259569D01*
X156360883Y-63259569D01*
X156361746Y-63107655D01*
X156364294Y-62659509D01*
X156911184Y-62659509D01*
X157069873Y-62659747D01*
G37*
G36*
X154241297Y-60953520D02*
G01*
X154400576Y-60954731D01*
X154532396Y-60956012D01*
X154639683Y-60957494D01*
X154725362Y-60959309D01*
X154792358Y-60961589D01*
X154843596Y-60964465D01*
X154882000Y-60968068D01*
X154910495Y-60972531D01*
X154932006Y-60977984D01*
X154949458Y-60984559D01*
X154951495Y-60985464D01*
X155039461Y-61039496D01*
X155104295Y-61112320D01*
X155146619Y-61204901D01*
X155167056Y-61318207D01*
X155167257Y-61320855D01*
X155165074Y-61440833D01*
X155139767Y-61543211D01*
X155091817Y-61626753D01*
X155025280Y-61687843D01*
X154978257Y-61719532D01*
X155032569Y-61748970D01*
X155072773Y-61774406D01*
X155102808Y-61804215D01*
X155124244Y-61843141D01*
X155138650Y-61895930D01*
X155147598Y-61967327D01*
X155152655Y-62062075D01*
X155154144Y-62116417D01*
X155159305Y-62348086D01*
X154998432Y-62348086D01*
X154837559Y-62348086D01*
X154837559Y-62158908D01*
X154836128Y-62062604D01*
X154831051Y-61991928D01*
X154821153Y-61942226D01*
X154805257Y-61908844D01*
X154782189Y-61887128D01*
X154766808Y-61878828D01*
X154737453Y-61872918D01*
X154678526Y-61868248D01*
X154590815Y-61864846D01*
X154475108Y-61862741D01*
X154332190Y-61861965D01*
X154320337Y-61861961D01*
X153910885Y-61861961D01*
X153910885Y-62105023D01*
X153910885Y-62348086D01*
X153761503Y-62348086D01*
X153696904Y-62347115D01*
X153644152Y-62344503D01*
X153610331Y-62340700D01*
X153601993Y-62337958D01*
X153599912Y-62321141D01*
X153597975Y-62277021D01*
X153596226Y-62208674D01*
X153594711Y-62119180D01*
X153593474Y-62011617D01*
X153592558Y-61889064D01*
X153592010Y-61754599D01*
X153591866Y-61638399D01*
X153591866Y-61558134D01*
X153909822Y-61558134D01*
X154336881Y-61558134D01*
X154763940Y-61558134D01*
X154808345Y-61513728D01*
X154841179Y-61462657D01*
X154852953Y-61402730D01*
X154844299Y-61343152D01*
X154815847Y-61293130D01*
X154791820Y-61272919D01*
X154769409Y-61266880D01*
X154722629Y-61262046D01*
X154650159Y-61258362D01*
X154550679Y-61255771D01*
X154422869Y-61254218D01*
X154340957Y-61253789D01*
X153918480Y-61252387D01*
X153914151Y-61405260D01*
X153909822Y-61558134D01*
X153591866Y-61558134D01*
X153591866Y-60948967D01*
X154241297Y-60953520D01*
G37*
G36*
X162585167Y-62803827D02*
G01*
X162585167Y-62955741D01*
X162129425Y-62955741D01*
X161999537Y-62955826D01*
X161896611Y-62956224D01*
X161817226Y-62957149D01*
X161757960Y-62958815D01*
X161715393Y-62961435D01*
X161686103Y-62965223D01*
X161666671Y-62970393D01*
X161653674Y-62977158D01*
X161643692Y-62985734D01*
X161643301Y-62986124D01*
X161619119Y-63028985D01*
X161613584Y-63081784D01*
X161626849Y-63131207D01*
X161641402Y-63151330D01*
X161652677Y-63160330D01*
X161668866Y-63167381D01*
X161693775Y-63172825D01*
X161731211Y-63177001D01*
X161784981Y-63180251D01*
X161858893Y-63182916D01*
X161956753Y-63185336D01*
X162040176Y-63187042D01*
X162177591Y-63190419D01*
X162288607Y-63195233D01*
X162377203Y-63202400D01*
X162447356Y-63212838D01*
X162503047Y-63227466D01*
X162548254Y-63247200D01*
X162586956Y-63272958D01*
X162623132Y-63305659D01*
X162642505Y-63325972D01*
X162692725Y-63390802D01*
X162724395Y-63459843D01*
X162740460Y-63541749D01*
X162744053Y-63624416D01*
X162736020Y-63733728D01*
X162710781Y-63822235D01*
X162666183Y-63895521D01*
X162622194Y-63940845D01*
X162589187Y-63968261D01*
X162556278Y-63990662D01*
X162520084Y-64008550D01*
X162477223Y-64022426D01*
X162424311Y-64032791D01*
X162357965Y-64040148D01*
X162274802Y-64044998D01*
X162171438Y-64047842D01*
X162044490Y-64049183D01*
X161890575Y-64049521D01*
X161889164Y-64049521D01*
X161400239Y-64049521D01*
X161400239Y-63905203D01*
X161400239Y-63760885D01*
X161836991Y-63760800D01*
X161980440Y-63760375D01*
X162096677Y-63758925D01*
X162188863Y-63756092D01*
X162260161Y-63751520D01*
X162313734Y-63744852D01*
X162352744Y-63735731D01*
X162380354Y-63723801D01*
X162399727Y-63708703D01*
X162410018Y-63696149D01*
X162430915Y-63643476D01*
X162427768Y-63588152D01*
X162403292Y-63539343D01*
X162360201Y-63506217D01*
X162352935Y-63503387D01*
X162322879Y-63498269D01*
X162266908Y-63493927D01*
X162189484Y-63490549D01*
X162095069Y-63488326D01*
X161988126Y-63487446D01*
X161977659Y-63487440D01*
X161850248Y-63486756D01*
X161748644Y-63484245D01*
X161668294Y-63479215D01*
X161604644Y-63470975D01*
X161553139Y-63458836D01*
X161509226Y-63442106D01*
X161468350Y-63420094D01*
X161447929Y-63407090D01*
X161389234Y-63351615D01*
X161342625Y-63274823D01*
X161310385Y-63184159D01*
X161294799Y-63087064D01*
X161298153Y-62990984D01*
X161307000Y-62948004D01*
X161339322Y-62867765D01*
X161388243Y-62793057D01*
X161445954Y-62735444D01*
X161454823Y-62729035D01*
X161488166Y-62708647D01*
X161524956Y-62692135D01*
X161568650Y-62679107D01*
X161622707Y-62669170D01*
X161690585Y-62661934D01*
X161775741Y-62657006D01*
X161881635Y-62653993D01*
X162011723Y-62652506D01*
X162133223Y-62652151D01*
X162585167Y-62651913D01*
X162585167Y-62803827D01*
G37*
G36*
X161028235Y-62685223D02*
G01*
X161032026Y-62717610D01*
X161033637Y-62769502D01*
X161032751Y-62830076D01*
X161032586Y-62834389D01*
X161028050Y-62948145D01*
X160532841Y-62955741D01*
X160389854Y-62958194D01*
X160274509Y-62960813D01*
X160184066Y-62963750D01*
X160115783Y-62967153D01*
X160066920Y-62971172D01*
X160034738Y-62975957D01*
X160016494Y-62981658D01*
X160012536Y-62984186D01*
X159993312Y-63018670D01*
X159987440Y-63071186D01*
X159988284Y-63102637D01*
X159992970Y-63127492D01*
X160004724Y-63146592D01*
X160026774Y-63160777D01*
X160062347Y-63170890D01*
X160114670Y-63177768D01*
X160186972Y-63182254D01*
X160282480Y-63185188D01*
X160404420Y-63187410D01*
X160435586Y-63187894D01*
X160555000Y-63189922D01*
X160648408Y-63192136D01*
X160720185Y-63194901D01*
X160774706Y-63198583D01*
X160816348Y-63203547D01*
X160849486Y-63210158D01*
X160878495Y-63218783D01*
X160899858Y-63226669D01*
X160996141Y-63276747D01*
X161068158Y-63343248D01*
X161116914Y-63427771D01*
X161143413Y-63531917D01*
X161149284Y-63624162D01*
X161139285Y-63743302D01*
X161108466Y-63841378D01*
X161055595Y-63920550D01*
X160979440Y-63982980D01*
X160929306Y-64009977D01*
X160910157Y-64018312D01*
X160889783Y-64025103D01*
X160864919Y-64030538D01*
X160832298Y-64034809D01*
X160788653Y-64038108D01*
X160730716Y-64040623D01*
X160655223Y-64042548D01*
X160558906Y-64044071D01*
X160438498Y-64045385D01*
X160302661Y-64046580D01*
X159744378Y-64051235D01*
X159744378Y-63906990D01*
X159744378Y-63762744D01*
X160254622Y-63758017D01*
X160764867Y-63753289D01*
X160801512Y-63710666D01*
X160831445Y-63657181D01*
X160836952Y-63601255D01*
X160820026Y-63550296D01*
X160782663Y-63511711D01*
X160743598Y-63495606D01*
X160719158Y-63493274D01*
X160668968Y-63490888D01*
X160597663Y-63488584D01*
X160509876Y-63486495D01*
X160410238Y-63484754D01*
X160336842Y-63483826D01*
X160220024Y-63482434D01*
X160129265Y-63480817D01*
X160060243Y-63478600D01*
X160008633Y-63475408D01*
X159970113Y-63470864D01*
X159940360Y-63464594D01*
X159915051Y-63456221D01*
X159889862Y-63445371D01*
X159888885Y-63444921D01*
X159812081Y-63402536D01*
X159756181Y-63353033D01*
X159711735Y-63287889D01*
X159708719Y-63282356D01*
X159692877Y-63247705D01*
X159683009Y-63209760D01*
X159677835Y-63160189D01*
X159676074Y-63090658D01*
X159676016Y-63069677D01*
X159676785Y-62997450D01*
X159680150Y-62946987D01*
X159687696Y-62909686D01*
X159701009Y-62876945D01*
X159716832Y-62848335D01*
X159776906Y-62773317D01*
X159859256Y-62710376D01*
X159919079Y-62679798D01*
X159942515Y-62673960D01*
X159984516Y-62669017D01*
X160047157Y-62664880D01*
X160132512Y-62661460D01*
X160242654Y-62658667D01*
X160379658Y-62656411D01*
X160492000Y-62655111D01*
X161019348Y-62649813D01*
X161028235Y-62685223D01*
G37*
%TO.C,R18*%
D11*
X138974284Y-70090000D02*
X137520156Y-70090000D01*
X138974284Y-71910000D02*
X137520156Y-71910000D01*
%TO.C,J6*%
X167695000Y-83520000D02*
X167695000Y-86120000D01*
X167695000Y-83520000D02*
X170355000Y-83520000D01*
X167695000Y-86120000D02*
X170355000Y-86120000D01*
X169025000Y-80920000D02*
X170355000Y-80920000D01*
X170355000Y-80920000D02*
X170355000Y-82250000D01*
X170355000Y-83520000D02*
X170355000Y-86120000D01*
%TO.C,U3*%
X122440000Y-75817500D02*
X126560000Y-75817500D01*
X126560000Y-81182500D02*
X122440000Y-81182500D01*
X128210000Y-80730000D02*
X128540000Y-80490000D01*
X128540000Y-80970000D01*
X128210000Y-80730000D01*
G36*
X128540000Y-80970000D02*
G01*
X128210000Y-80730000D01*
X128540000Y-80490000D01*
X128540000Y-80970000D01*
G37*
%TO.C,U4*%
X129965000Y-64805000D02*
X134085000Y-64805000D01*
X129965000Y-64860000D02*
X129965000Y-64805000D01*
X129965000Y-74925000D02*
X129965000Y-74870000D01*
X134085000Y-64805000D02*
X134085000Y-64860000D01*
X134085000Y-74870000D02*
X134085000Y-74925000D01*
X134085000Y-74925000D02*
X129965000Y-74925000D01*
X129425000Y-64855000D02*
X129185000Y-64525000D01*
X129665000Y-64525000D01*
X129425000Y-64855000D01*
G36*
X129425000Y-64855000D02*
G01*
X129185000Y-64525000D01*
X129665000Y-64525000D01*
X129425000Y-64855000D01*
G37*
%TO.C,R11*%
X131272936Y-76090000D02*
X132727064Y-76090000D01*
X131272936Y-77910000D02*
X132727064Y-77910000D01*
%TO.C,C18*%
X123788748Y-67590000D02*
X125211252Y-67590000D01*
X123788748Y-69410000D02*
X125211252Y-69410000D01*
%TO.C,D4*%
X145500000Y-66635000D02*
X149385000Y-66635000D01*
X149385000Y-64365000D02*
X145500000Y-64365000D01*
X149385000Y-66635000D02*
X149385000Y-64365000D01*
%TO.C,T2*%
X149950000Y-60460000D02*
X168050000Y-60460000D01*
X149950000Y-78560000D02*
X149950000Y-60460000D01*
X168050000Y-60460000D02*
X168050000Y-78560000D01*
X168050000Y-78560000D02*
X149950000Y-78560000D01*
%TO.C,U6*%
X139500000Y-84400000D02*
X139500000Y-89600000D01*
X139500000Y-89600000D02*
X145970000Y-89600000D01*
X141735000Y-84400000D02*
X139500000Y-84400000D01*
X145970000Y-84400000D02*
X143735000Y-84400000D01*
X145970000Y-89600000D02*
X145970000Y-84400000D01*
X143735000Y-84400000D02*
G75*
G02*
X141735000Y-84400000I-1000000J0D01*
G01*
%TO.C,R5*%
X132727064Y-81090000D02*
X131272936Y-81090000D01*
X132727064Y-82910000D02*
X131272936Y-82910000D01*
%TO.C,C19*%
X146288748Y-72590000D02*
X147711252Y-72590000D01*
X146288748Y-74410000D02*
X147711252Y-74410000D01*
%TO.C,C20*%
X146288748Y-75090000D02*
X147711252Y-75090000D01*
X146288748Y-76910000D02*
X147711252Y-76910000D01*
%TO.C,U2*%
X122390000Y-95390000D02*
X122840000Y-95390000D01*
X122390000Y-95840000D02*
X122390000Y-95390000D01*
X122390000Y-102610000D02*
X122390000Y-102160000D01*
X122840000Y-102610000D02*
X122390000Y-102610000D01*
X129160000Y-95390000D02*
X129610000Y-95390000D01*
X129610000Y-95390000D02*
X129610000Y-95840000D01*
X129610000Y-102160000D02*
X129610000Y-102610000D01*
X129610000Y-102610000D02*
X129160000Y-102610000D01*
X121750000Y-95840000D02*
X121410000Y-95370000D01*
X122090000Y-95370000D01*
X121750000Y-95840000D01*
G36*
X121750000Y-95840000D02*
G01*
X121410000Y-95370000D01*
X122090000Y-95370000D01*
X121750000Y-95840000D01*
G37*
%TO.C,R9*%
X158727064Y-79590000D02*
X157272936Y-79590000D01*
X158727064Y-81410000D02*
X157272936Y-81410000D01*
%TO.C,Q1*%
X141840000Y-63940000D02*
X143360000Y-63940000D01*
X141840000Y-63990000D02*
X141840000Y-63940000D01*
X141840000Y-65890000D02*
X141840000Y-65110000D01*
X141840000Y-67060000D02*
X141840000Y-67010000D01*
X143360000Y-63940000D02*
X143360000Y-64940000D01*
X143360000Y-66060000D02*
X143360000Y-67060000D01*
X143360000Y-67060000D02*
X141840000Y-67060000D01*
X141300000Y-65120000D02*
X141540000Y-65450000D01*
X141060000Y-65450000D01*
X141300000Y-65120000D01*
G36*
X141540000Y-65450000D02*
G01*
X141060000Y-65450000D01*
X141300000Y-65120000D01*
X141540000Y-65450000D01*
G37*
%TO.C,R1*%
X123772936Y-62090000D02*
X125227064Y-62090000D01*
X123772936Y-63910000D02*
X125227064Y-63910000D01*
%TO.C,R6*%
X141521237Y-96968131D02*
X140067109Y-96968131D01*
X141521237Y-98788131D02*
X140067109Y-98788131D01*
%TO.C,J4*%
X174400000Y-74900000D02*
X175600000Y-74900000D01*
X174400000Y-81100000D02*
X174400000Y-74900000D01*
X178800000Y-74900000D02*
X185300000Y-74900000D01*
X183300000Y-81100000D02*
X174400000Y-81100000D01*
X185300000Y-74900000D02*
X185300000Y-72900000D01*
X187900000Y-74900000D02*
X187900000Y-72900000D01*
X187900000Y-74900000D02*
X189100000Y-74900000D01*
X189100000Y-74900000D02*
X189100000Y-75400000D01*
X189100000Y-75400000D02*
X191600000Y-75400000D01*
X189100000Y-80600000D02*
X189100000Y-81100000D01*
X189100000Y-81100000D02*
X185900000Y-81100000D01*
X191600000Y-75400000D02*
X191600000Y-80600000D01*
X191600000Y-80600000D02*
X189100000Y-80600000D01*
%TO.C,R13*%
X141272936Y-72590000D02*
X142727064Y-72590000D01*
X141272936Y-74410000D02*
X142727064Y-74410000D01*
%TO.C,C15*%
X149920000Y-83415113D02*
X155080000Y-83415113D01*
X149920000Y-83455113D02*
X155080000Y-83455113D01*
X149921000Y-83375113D02*
X155079000Y-83375113D01*
X149923000Y-83335113D02*
X155077000Y-83335113D01*
X149925000Y-83295113D02*
X155075000Y-83295113D01*
X149928000Y-83255113D02*
X155072000Y-83255113D01*
X149931000Y-83215113D02*
X151460000Y-83215113D01*
X149935000Y-83175113D02*
X151460000Y-83175113D01*
X149940000Y-83135113D02*
X151460000Y-83135113D01*
X149945000Y-83095113D02*
X151460000Y-83095113D01*
X149951000Y-83055113D02*
X151460000Y-83055113D01*
X149957000Y-83015113D02*
X151460000Y-83015113D01*
X149964000Y-82975113D02*
X151460000Y-82975113D01*
X149972000Y-82935113D02*
X151460000Y-82935113D01*
X149981000Y-82895113D02*
X151460000Y-82895113D01*
X149990000Y-82855113D02*
X151460000Y-82855113D01*
X149999000Y-82815113D02*
X151460000Y-82815113D01*
X150010000Y-82775113D02*
X151460000Y-82775113D01*
X150021000Y-82735113D02*
X151460000Y-82735113D01*
X150033000Y-82695113D02*
X151460000Y-82695113D01*
X150045000Y-82655113D02*
X151460000Y-82655113D01*
X150058000Y-82615113D02*
X151460000Y-82615113D01*
X150072000Y-82575113D02*
X151460000Y-82575113D01*
X150087000Y-82535113D02*
X151460000Y-82535113D01*
X150102000Y-82495113D02*
X151460000Y-82495113D01*
X150118000Y-82455113D02*
X151460000Y-82455113D01*
X150135000Y-82415113D02*
X151460000Y-82415113D01*
X150153000Y-82375113D02*
X151460000Y-82375113D01*
X150171000Y-82335113D02*
X151460000Y-82335113D01*
X150191000Y-82295113D02*
X151460000Y-82295113D01*
X150211000Y-82255113D02*
X151460000Y-82255113D01*
X150232000Y-82215113D02*
X151460000Y-82215113D01*
X150254000Y-82175113D02*
X151460000Y-82175113D01*
X150277000Y-82135113D02*
X151460000Y-82135113D01*
X150301000Y-82095113D02*
X151460000Y-82095113D01*
X150325000Y-82055113D02*
X151460000Y-82055113D01*
X150351000Y-82015113D02*
X151460000Y-82015113D01*
X150378000Y-81975113D02*
X151460000Y-81975113D01*
X150406000Y-81935113D02*
X151460000Y-81935113D01*
X150435000Y-81895113D02*
X151460000Y-81895113D01*
X150465000Y-81855113D02*
X151460000Y-81855113D01*
X150497000Y-81815113D02*
X151460000Y-81815113D01*
X150530000Y-81775113D02*
X151460000Y-81775113D01*
X150564000Y-81735113D02*
X151460000Y-81735113D01*
X150599000Y-81695113D02*
X151460000Y-81695113D01*
X150636000Y-81655113D02*
X151460000Y-81655113D01*
X150675000Y-81615113D02*
X151460000Y-81615113D01*
X150715000Y-81575113D02*
X151460000Y-81575113D01*
X150757000Y-81535113D02*
X151460000Y-81535113D01*
X150775000Y-86009888D02*
X151275000Y-86009888D01*
X150801000Y-81495113D02*
X151460000Y-81495113D01*
X150848000Y-81455113D02*
X151460000Y-81455113D01*
X150896000Y-81415113D02*
X151460000Y-81415113D01*
X150947000Y-81375113D02*
X151460000Y-81375113D01*
X151001000Y-81335113D02*
X151460000Y-81335113D01*
X151025000Y-86259888D02*
X151025000Y-85759888D01*
X151057000Y-81295113D02*
X151460000Y-81295113D01*
X151117000Y-81255113D02*
X151460000Y-81255113D01*
X151181000Y-81215113D02*
X151460000Y-81215113D01*
X151249000Y-81175113D02*
X151460000Y-81175113D01*
X151323000Y-81135113D02*
X153677000Y-81135113D01*
X151402000Y-81095113D02*
X153598000Y-81095113D01*
X151489000Y-81055113D02*
X153511000Y-81055113D01*
X151586000Y-81015113D02*
X153414000Y-81015113D01*
X151695000Y-80975113D02*
X153305000Y-80975113D01*
X151823000Y-80935113D02*
X153177000Y-80935113D01*
X151983000Y-80895113D02*
X153017000Y-80895113D01*
X152217000Y-80855113D02*
X152783000Y-80855113D01*
X153540000Y-81175113D02*
X153751000Y-81175113D01*
X153540000Y-81215113D02*
X153819000Y-81215113D01*
X153540000Y-81255113D02*
X153883000Y-81255113D01*
X153540000Y-81295113D02*
X153943000Y-81295113D01*
X153540000Y-81335113D02*
X153999000Y-81335113D01*
X153540000Y-81375113D02*
X154053000Y-81375113D01*
X153540000Y-81415113D02*
X154104000Y-81415113D01*
X153540000Y-81455113D02*
X154152000Y-81455113D01*
X153540000Y-81495113D02*
X154199000Y-81495113D01*
X153540000Y-81535113D02*
X154243000Y-81535113D01*
X153540000Y-81575113D02*
X154285000Y-81575113D01*
X153540000Y-81615113D02*
X154325000Y-81615113D01*
X153540000Y-81655113D02*
X154364000Y-81655113D01*
X153540000Y-81695113D02*
X154401000Y-81695113D01*
X153540000Y-81735113D02*
X154436000Y-81735113D01*
X153540000Y-81775113D02*
X154470000Y-81775113D01*
X153540000Y-81815113D02*
X154503000Y-81815113D01*
X153540000Y-81855113D02*
X154535000Y-81855113D01*
X153540000Y-81895113D02*
X154565000Y-81895113D01*
X153540000Y-81935113D02*
X154594000Y-81935113D01*
X153540000Y-81975113D02*
X154622000Y-81975113D01*
X153540000Y-82015113D02*
X154649000Y-82015113D01*
X153540000Y-82055113D02*
X154675000Y-82055113D01*
X153540000Y-82095113D02*
X154699000Y-82095113D01*
X153540000Y-82135113D02*
X154723000Y-82135113D01*
X153540000Y-82175113D02*
X154746000Y-82175113D01*
X153540000Y-82215113D02*
X154768000Y-82215113D01*
X153540000Y-82255113D02*
X154789000Y-82255113D01*
X153540000Y-82295113D02*
X154809000Y-82295113D01*
X153540000Y-82335113D02*
X154829000Y-82335113D01*
X153540000Y-82375113D02*
X154847000Y-82375113D01*
X153540000Y-82415113D02*
X154865000Y-82415113D01*
X153540000Y-82455113D02*
X154882000Y-82455113D01*
X153540000Y-82495113D02*
X154898000Y-82495113D01*
X153540000Y-82535113D02*
X154913000Y-82535113D01*
X153540000Y-82575113D02*
X154928000Y-82575113D01*
X153540000Y-82615113D02*
X154942000Y-82615113D01*
X153540000Y-82655113D02*
X154955000Y-82655113D01*
X153540000Y-82695113D02*
X154967000Y-82695113D01*
X153540000Y-82735113D02*
X154979000Y-82735113D01*
X153540000Y-82775113D02*
X154990000Y-82775113D01*
X153540000Y-82815113D02*
X155001000Y-82815113D01*
X153540000Y-82855113D02*
X155010000Y-82855113D01*
X153540000Y-82895113D02*
X155019000Y-82895113D01*
X153540000Y-82935113D02*
X155028000Y-82935113D01*
X153540000Y-82975113D02*
X155036000Y-82975113D01*
X153540000Y-83015113D02*
X155043000Y-83015113D01*
X153540000Y-83055113D02*
X155049000Y-83055113D01*
X153540000Y-83095113D02*
X155055000Y-83095113D01*
X153540000Y-83135113D02*
X155060000Y-83135113D01*
X153540000Y-83175113D02*
X155065000Y-83175113D01*
X153540000Y-83215113D02*
X155069000Y-83215113D01*
X155120000Y-83455113D02*
G75*
G02*
X149880000Y-83455113I-2620000J0D01*
G01*
X149880000Y-83455113D02*
G75*
G02*
X155120000Y-83455113I2620000J0D01*
G01*
%TO.C,R2*%
X116090000Y-100227064D02*
X116090000Y-98772936D01*
X117910000Y-100227064D02*
X117910000Y-98772936D01*
%TO.C,R3*%
X141521237Y-99968131D02*
X140067109Y-99968131D01*
X141521237Y-101788131D02*
X140067109Y-101788131D01*
%TD*%
M02*
